M48
;Layer_Color=9474304
;FILE_FORMAT=2:5
INCH,LZ
;TYPE=PLATED
T1F00S00C0.00787
T2F00S00C0.01181
T3F00S00C0.01378
%
T01
X11068Y02917
X10829Y02866
X10723Y0309
X10399Y03077
X1031017Y02931
X1031Y02893
X0836Y02915
Y02948
X08275Y03116
X0797Y0312
X07798Y0283
X07571Y02965
X07613Y03166
X07767Y03387
X0779621Y0342
X08563Y03223
X08691Y03608
X08683Y04129
X08541Y04013
X09132Y04078
X09152Y04105
X09201Y04098
Y04062
X09227Y04029
X09231Y03988
X09221Y03924
X0923287Y03885
X09184Y03894
X09185Y03826
X09244Y03815
X09243Y03765
X09194Y03742
X0921Y03687
X09222Y0363
X0925Y03585
X09282Y03606
X09332Y03561
X09343Y03447
X09322Y03438
X09275Y03469
X09271Y034
X09286Y03339
X09368Y03343
X09323Y03236
Y03186
Y03133
X09318Y0378
X09351Y03929
Y03958
X0933Y04005
X0937Y04113
X0934Y04183
X09354Y04266
X09223Y04315
X09224Y0436
X09265Y04469
X09262Y04489
X09289Y04468
X09279Y0456
X09258Y04579
X0922Y0459
X0921935Y0454687
X0919722Y0452345
X09176Y04501
X0914136Y0450539
X0911014Y0450936
X0922Y04634
X09282Y04613
X09268Y04112
X09113Y04157
X09384Y04186
X09455Y0411
X09437Y04079
X095Y04064
X09541Y04156
X0975Y04153
X09436Y04292
X0940279Y0435679
X09425Y04413
X09463
X09515Y04404
X09535Y04507
X09465Y04477
X09444Y04485
X09548Y04594
X09547Y04614
X09576Y04661
X09429Y04001
X09459Y03966
X09457Y03935
X0943Y03933
X09389Y03894
X09411Y03837
X09439Y03821
X09462Y03786
X09473Y03847
X09477Y0389
X09434Y03647
X094Y03633
X09386Y03662
X09375Y03691
X09409Y03529
X09388Y03487
X09389Y03441
X09918Y03615
X10126Y03608
X10074Y03874
X10093Y03228
X10865Y03416
X10889Y03393
X11059Y03145
X11098Y05637
X10851Y05645
X10919Y05983
X10717Y06143
X10572Y05445
X10323Y05354
X10285Y052
X10446Y05098
X10031Y04966
X09827Y05142
X09611Y04958
X09483Y04975
X09452Y0492
X09418Y04947
X0939Y0499
X09423Y05077
X09406Y05156
X09439Y05158
Y05181
X0944Y04795
X09432Y04767
X09446Y04741
X09487Y04736
X09514Y04731
X09541Y0473
X0956Y04759
X09491Y04774
X09407Y04799
X09363Y04751
X09283Y04794
X09256Y04823
X09187Y04894
X09217Y04983
X09228Y05076
X0925Y05124
X09254Y05155
X09221Y05154
X09271Y05107
X0932
X09319Y05171
X09369Y05157
X09363Y05009
X09324Y04987
X09301Y05008
X09056Y04923
X09064Y048476
X09055Y04807
X0908832Y0481242
X09109Y04796
X0913212Y0476747
X0916Y04736
X0918044Y0470219
X08819Y05141
X08322Y05348
X09301Y05384
X09363Y05389
X07975Y06238
X07746Y05967
X07769Y0563
X07568Y05628
X07587Y06283
X075997Y06327
X07712Y06381
X10762Y06332
X10969Y06377
X11061Y06306
X1107852Y06275
T02
X0936569Y0456869
Y04612
Y0465531
X09409
Y04612
X0945231
Y0465531
Y0456869
X09409
T03
X07948Y03594
X08028Y03604
X08052Y03667
X08162Y03623
X08208Y03602
X08203Y03547
X0822Y03784
X0814Y03746
X08678Y03495
X08657Y03453
X09984Y03449
X0996Y03486
X1048Y03624
X10507Y03747
X10448Y03789
X10385Y03767
X10617Y03662
X10633Y03601
X10984Y05461
X11018Y05497
X10479Y05725
X10448Y05804
X10455Y05925
X10328Y05897
X10238Y05839
X1022Y05745
X10406Y05672
X10416Y06043
X10444Y06101
X10543Y06026
X08398Y05858
X08408Y05796
X08337Y05911
X08196Y05896
X08205Y05805
X08144Y05963
X08213Y06029
X08206Y06099
X08134Y06123
X07712Y05485
X07732Y0545
M30
