G04 Layer_Color=128*
%FSLAX25Y25*%
%MOIN*%
G70*
G01*
G75*
%ADD13R,0.02756X0.01968*%
%ADD14R,0.03543X0.03937*%
%ADD19R,0.03937X0.03543*%
%ADD22R,0.02756X0.01575*%
%ADD23R,0.00984X0.01575*%
%ADD24R,0.01968X0.02756*%
%ADD41O,0.00984X0.03543*%
%ADD42O,0.03543X0.00984*%
%ADD43R,0.01417X0.00984*%
%ADD44R,0.02559X0.07874*%
%ADD45R,0.02756X0.03937*%
%ADD46R,0.02362X0.03937*%
%ADD47R,0.07480X0.07480*%
%ADD48R,0.07087X0.07480*%
%ADD49R,0.08268X0.05315*%
%ADD50R,0.01575X0.06299*%
%ADD51R,0.03543X0.02854*%
%ADD53R,0.01063X0.01279*%
%ADD54R,0.01575X0.00984*%
%ADD55R,0.01575X0.02756*%
%ADD99R,0.03858X0.03858*%
D13*
X954400Y476735D02*
D03*
Y481065D02*
D03*
X954300Y489765D02*
D03*
Y485435D02*
D03*
X947900Y490235D02*
D03*
Y494565D02*
D03*
X938600Y507565D02*
D03*
Y503235D02*
D03*
X925900Y507565D02*
D03*
Y503235D02*
D03*
X934267Y507615D02*
D03*
Y503285D02*
D03*
X930033Y507615D02*
D03*
Y503285D02*
D03*
X929000Y453465D02*
D03*
Y449135D02*
D03*
X932800Y469935D02*
D03*
Y474265D02*
D03*
X931800Y461965D02*
D03*
Y457635D02*
D03*
X939600Y470035D02*
D03*
Y474365D02*
D03*
D14*
X930440Y396900D02*
D03*
X922960D02*
D03*
D19*
X941700Y377140D02*
D03*
Y369660D02*
D03*
D22*
X951400Y466722D02*
D03*
D23*
X950514Y469478D02*
D03*
X952286D02*
D03*
D24*
X946535Y480700D02*
D03*
X950865D02*
D03*
X946435Y485800D02*
D03*
X950765D02*
D03*
X941035Y499500D02*
D03*
X945365D02*
D03*
X919570Y439852D02*
D03*
X923901D02*
D03*
X919570Y444052D02*
D03*
X923901D02*
D03*
D41*
X930426Y480900D02*
D03*
X932395D02*
D03*
X934363D02*
D03*
X936331D02*
D03*
X938300D02*
D03*
Y495664D02*
D03*
X936331D02*
D03*
X934363D02*
D03*
X932395D02*
D03*
X930426D02*
D03*
D42*
X941745Y484345D02*
D03*
Y486313D02*
D03*
Y488282D02*
D03*
Y490250D02*
D03*
Y492219D02*
D03*
X926981D02*
D03*
Y490250D02*
D03*
Y488282D02*
D03*
Y486313D02*
D03*
Y484345D02*
D03*
D43*
X919446Y381900D02*
D03*
X922754D02*
D03*
X930746Y349200D02*
D03*
X934054D02*
D03*
D44*
X928442Y387400D02*
D03*
X933757D02*
D03*
D45*
X927260Y379021D02*
D03*
X934740D02*
D03*
D46*
X927260Y369572D02*
D03*
X931000D02*
D03*
X934740D02*
D03*
D47*
X937900Y533400D02*
D03*
X928451D02*
D03*
D48*
X948136D02*
D03*
X918215D02*
D03*
D49*
X944790Y523361D02*
D03*
X921561D02*
D03*
D50*
X938294Y522868D02*
D03*
X935735D02*
D03*
X933176D02*
D03*
X930616D02*
D03*
X928057D02*
D03*
D51*
X936024Y431447D02*
D03*
Y435679D02*
D03*
Y439911D02*
D03*
Y444144D02*
D03*
X929331D02*
D03*
Y439911D02*
D03*
Y435679D02*
D03*
Y431447D02*
D03*
D53*
X929932Y515229D02*
D03*
X931900D02*
D03*
X933869D02*
D03*
Y512571D02*
D03*
X932000D02*
D03*
X929932D02*
D03*
D54*
X933378Y466886D02*
D03*
Y465114D02*
D03*
D55*
X930622Y466000D02*
D03*
D99*
X934363Y488282D02*
D03*
M02*
