G04 Layer_Color=8388736*
%FSLAX25Y25*%
%MOIN*%
G70*
G01*
G75*
%ADD60R,0.03556X0.02768*%
%ADD61R,0.04343X0.04737*%
%ADD62C,0.01181*%
%ADD63O,0.03950X0.01587*%
%ADD64O,0.01587X0.03950*%
%ADD65R,0.15367X0.15367*%
%ADD66R,0.04737X0.04343*%
%ADD67R,0.01784X0.04343*%
%ADD68R,0.02572X0.02572*%
%ADD69R,0.03556X0.02375*%
%ADD70R,0.01784X0.02375*%
%ADD71R,0.02768X0.03556*%
G04:AMPARAMS|DCode=72|XSize=35.56mil|YSize=27.68mil|CornerRadius=0mil|HoleSize=0mil|Usage=FLASHONLY|Rotation=45.000|XOffset=0mil|YOffset=0mil|HoleType=Round|Shape=Rectangle|*
%AMROTATEDRECTD72*
4,1,4,-0.00278,-0.02236,-0.02236,-0.00278,0.00278,0.02236,0.02236,0.00278,-0.00278,-0.02236,0.0*
%
%ADD72ROTATEDRECTD72*%

G04:AMPARAMS|DCode=73|XSize=47.37mil|YSize=67.06mil|CornerRadius=0mil|HoleSize=0mil|Usage=FLASHONLY|Rotation=115.000|XOffset=0mil|YOffset=0mil|HoleType=Round|Shape=Rectangle|*
%AMROTATEDRECTD73*
4,1,4,0.04040,-0.00730,-0.02038,-0.03564,-0.04040,0.00730,0.02038,0.03564,0.04040,-0.00730,0.0*
%
%ADD73ROTATEDRECTD73*%

G04:AMPARAMS|DCode=74|XSize=35.56mil|YSize=27.68mil|CornerRadius=0mil|HoleSize=0mil|Usage=FLASHONLY|Rotation=135.000|XOffset=0mil|YOffset=0mil|HoleType=Round|Shape=Rectangle|*
%AMROTATEDRECTD74*
4,1,4,0.02236,-0.00278,0.00278,-0.02236,-0.02236,0.00278,-0.00278,0.02236,0.02236,-0.00278,0.0*
%
%ADD74ROTATEDRECTD74*%

%ADD75R,0.02768X0.02768*%
%ADD76R,0.02768X0.02768*%
%ADD77R,0.01378X0.01476*%
%ADD78R,0.01476X0.01378*%
%ADD79O,0.01784X0.04737*%
%ADD80O,0.04737X0.01784*%
%ADD81P,0.09389X8X112.5*%
%ADD82C,0.02375*%
D60*
X850200Y312065D02*
D03*
Y307735D02*
D03*
X1016100Y311965D02*
D03*
Y307635D02*
D03*
X925900Y459035D02*
D03*
Y463365D02*
D03*
X924409Y443110D02*
D03*
Y438779D02*
D03*
X928347Y443110D02*
D03*
Y438779D02*
D03*
X938800Y490035D02*
D03*
Y494365D02*
D03*
Y482535D02*
D03*
Y486865D02*
D03*
X925900Y469235D02*
D03*
Y473565D02*
D03*
X926900Y491865D02*
D03*
Y487535D02*
D03*
X938583Y443110D02*
D03*
Y438779D02*
D03*
X956000Y477735D02*
D03*
Y482065D02*
D03*
X951300Y448065D02*
D03*
Y443735D02*
D03*
X928700Y477735D02*
D03*
Y482065D02*
D03*
X935000Y477735D02*
D03*
Y482065D02*
D03*
X749700Y595735D02*
D03*
Y600065D02*
D03*
X1116900Y595735D02*
D03*
Y600065D02*
D03*
X930383Y525325D02*
D03*
Y529656D02*
D03*
X924872Y525325D02*
D03*
Y529656D02*
D03*
X919360Y525325D02*
D03*
Y529656D02*
D03*
X935895Y525325D02*
D03*
Y529656D02*
D03*
X941407Y525325D02*
D03*
Y529656D02*
D03*
X946919Y525325D02*
D03*
Y529656D02*
D03*
X948900Y398065D02*
D03*
Y393735D02*
D03*
X925400Y362635D02*
D03*
Y366965D02*
D03*
X940000Y360365D02*
D03*
Y356035D02*
D03*
X939000Y397965D02*
D03*
Y393635D02*
D03*
X928900Y397965D02*
D03*
Y393635D02*
D03*
X932600Y347235D02*
D03*
Y351565D02*
D03*
Y332165D02*
D03*
Y327835D02*
D03*
X918600Y398065D02*
D03*
Y393735D02*
D03*
X943900Y385735D02*
D03*
Y390065D02*
D03*
X922000Y381835D02*
D03*
Y386165D02*
D03*
X942520Y438779D02*
D03*
Y443110D02*
D03*
X946457Y438779D02*
D03*
Y443110D02*
D03*
D61*
X843540Y298600D02*
D03*
X836060D02*
D03*
X1023460D02*
D03*
X1030940D02*
D03*
D62*
X930472Y337172D02*
D03*
Y339400D02*
D03*
Y341628D02*
D03*
X931586Y338286D02*
D03*
Y340514D02*
D03*
X932700Y337172D02*
D03*
Y341628D02*
D03*
X933814Y338286D02*
D03*
Y340514D02*
D03*
X934928Y337172D02*
D03*
Y339400D02*
D03*
Y341628D02*
D03*
D63*
X931353Y470157D02*
D03*
Y468779D02*
D03*
Y467401D02*
D03*
Y466023D02*
D03*
Y464645D02*
D03*
Y463267D02*
D03*
Y461889D02*
D03*
Y460511D02*
D03*
Y459133D02*
D03*
Y457755D02*
D03*
Y456377D02*
D03*
Y454999D02*
D03*
Y453621D02*
D03*
Y452243D02*
D03*
X950447D02*
D03*
Y453621D02*
D03*
Y454999D02*
D03*
Y456377D02*
D03*
Y457755D02*
D03*
Y459133D02*
D03*
Y460511D02*
D03*
Y461889D02*
D03*
Y463267D02*
D03*
Y464645D02*
D03*
Y466023D02*
D03*
Y467401D02*
D03*
Y468779D02*
D03*
Y470157D02*
D03*
D64*
X934699Y451653D02*
D03*
X936077D02*
D03*
X937455D02*
D03*
X938833D02*
D03*
X940211D02*
D03*
X941589D02*
D03*
X942967D02*
D03*
X944345D02*
D03*
X945723D02*
D03*
X947101D02*
D03*
Y470747D02*
D03*
X945723D02*
D03*
X944345D02*
D03*
X942967D02*
D03*
X941589D02*
D03*
X940211D02*
D03*
X938833D02*
D03*
X937455D02*
D03*
X936077D02*
D03*
X934699D02*
D03*
D65*
X940900Y461200D02*
D03*
D66*
X933465Y434449D02*
D03*
Y441929D02*
D03*
X756200Y612860D02*
D03*
Y620340D02*
D03*
X1111900Y612860D02*
D03*
Y620340D02*
D03*
X1093300Y327460D02*
D03*
Y334940D02*
D03*
X772400Y325360D02*
D03*
Y332840D02*
D03*
D67*
X920653Y414286D02*
D03*
X918684D02*
D03*
X916716D02*
D03*
X914747D02*
D03*
X920653Y402514D02*
D03*
X918684D02*
D03*
X916716D02*
D03*
X914747D02*
D03*
X930786Y414286D02*
D03*
X928818D02*
D03*
X926849D02*
D03*
X924881D02*
D03*
X930786Y402514D02*
D03*
X928818D02*
D03*
X926849D02*
D03*
X924881D02*
D03*
X940919Y414286D02*
D03*
X938951D02*
D03*
X936982D02*
D03*
X935014D02*
D03*
X940919Y402514D02*
D03*
X938951D02*
D03*
X936982D02*
D03*
X935014D02*
D03*
X951053Y414286D02*
D03*
X949084D02*
D03*
X947116D02*
D03*
X945147D02*
D03*
X951053Y402514D02*
D03*
X949084D02*
D03*
X947116D02*
D03*
X945147D02*
D03*
D68*
X946526Y487061D02*
D03*
X942274D02*
D03*
X946526Y489739D02*
D03*
X942274D02*
D03*
D69*
X946969Y520778D02*
D03*
X941457D02*
D03*
X935946D02*
D03*
X919410D02*
D03*
X924922D02*
D03*
X930434D02*
D03*
X865800Y339222D02*
D03*
X1098600Y552478D02*
D03*
X1000700Y339222D02*
D03*
X767300Y552478D02*
D03*
D70*
X947855Y518022D02*
D03*
X946083D02*
D03*
X942343D02*
D03*
X940571D02*
D03*
X936831D02*
D03*
X935060D02*
D03*
X920296D02*
D03*
X918524D02*
D03*
X925807D02*
D03*
X924036D02*
D03*
X931319D02*
D03*
X929548D02*
D03*
X864914Y341978D02*
D03*
X866686D02*
D03*
X1099486Y549722D02*
D03*
X1097714D02*
D03*
X999814Y341978D02*
D03*
X1001586D02*
D03*
X768186Y549722D02*
D03*
X766414D02*
D03*
D71*
X946435Y483700D02*
D03*
X950765D02*
D03*
X930569Y491700D02*
D03*
X934900D02*
D03*
Y487800D02*
D03*
X930569D02*
D03*
X946435Y480000D02*
D03*
X950765D02*
D03*
X1072035Y320500D02*
D03*
X1076365D02*
D03*
X792765Y319800D02*
D03*
X788435D02*
D03*
X950765Y476600D02*
D03*
X946435D02*
D03*
D72*
X916269Y461931D02*
D03*
X919331Y458869D02*
D03*
D73*
X904038Y471509D02*
D03*
X909362Y460091D02*
D03*
D74*
X921331Y467731D02*
D03*
X918269Y464669D02*
D03*
D75*
X923725Y538375D02*
D03*
Y535225D02*
D03*
X926875D02*
D03*
Y538375D02*
D03*
D76*
X939225Y535225D02*
D03*
X942375D02*
D03*
Y538375D02*
D03*
X939225D02*
D03*
D77*
X931231Y358598D02*
D03*
X933200D02*
D03*
X935168D02*
D03*
Y364602D02*
D03*
X933200D02*
D03*
X931231D02*
D03*
D78*
X936202Y360616D02*
D03*
Y362584D02*
D03*
X930198D02*
D03*
Y360616D02*
D03*
D79*
X931047Y374191D02*
D03*
X933016D02*
D03*
X934984D02*
D03*
X936953D02*
D03*
Y385609D02*
D03*
X934984D02*
D03*
X933016D02*
D03*
X931047D02*
D03*
D80*
X938724Y377931D02*
D03*
Y379900D02*
D03*
Y381869D02*
D03*
X929276D02*
D03*
Y379900D02*
D03*
Y377931D02*
D03*
D81*
X860400Y332400D02*
D03*
X1102500Y560900D02*
D03*
X812100Y368200D02*
D03*
X1036900Y596700D02*
D03*
X1005900Y332400D02*
D03*
X764900Y560500D02*
D03*
X1054600Y367800D02*
D03*
X828000Y597700D02*
D03*
D82*
X936569Y465531D02*
D03*
X940900D02*
D03*
X945231D02*
D03*
X936569Y461200D02*
D03*
X940900D02*
D03*
X945231D02*
D03*
X936569Y456869D02*
D03*
X940900D02*
D03*
X945231D02*
D03*
M02*
