G04 Layer_Color=32896*
%FSLAX25Y25*%
%MOIN*%
G70*
G01*
G75*
%ADD57C,0.00394*%
%ADD100C,0.00394*%
D57*
X1104072Y303441D02*
G03*
X1104072Y303441I-13780J0D01*
G01*
X789111D02*
G03*
X789111Y303441I-13780J0D01*
G01*
Y618402D02*
G03*
X789111Y618402I-13780J0D01*
G01*
X1104072D02*
G03*
X1104072Y618402I-13780J0D01*
G01*
X1118769Y618496D02*
G03*
X1118765Y618511I-191J-49D01*
G01*
X1118769Y618497D02*
G03*
X1118765Y618511I-190J-50D01*
G01*
X1119911Y614152D02*
G03*
X1119908Y614167I-194J-36D01*
G01*
X1119911Y614152D02*
G03*
X1119907Y614168I-194J-36D01*
G01*
X1117372Y622554D02*
G03*
X1117366Y622569I-186J-64D01*
G01*
X1117372Y622554D02*
G03*
X1117366Y622569I-186J-64D01*
G01*
X1120848Y609056D02*
G03*
X1120846Y609071I-196J-20D01*
G01*
X1120848Y609057D02*
G03*
X1120846Y609071I-196J-21D01*
G01*
X1121411Y603764D02*
G03*
X1121410Y603779I-197J-6D01*
G01*
X1121411Y603764D02*
G03*
X1121410Y603780I-197J-6D01*
G01*
X1111950Y632648D02*
G03*
X1111939Y632663I-164J-109D01*
G01*
X1111950Y632648D02*
G03*
X1111939Y632663I-164J-109D01*
G01*
X1109830Y635267D02*
G03*
X1109817Y635282I-153J-124D01*
G01*
X1109830Y635267D02*
G03*
X1109817Y635282I-153J-124D01*
G01*
X1115749Y626282D02*
G03*
X1115742Y626297I-181J-79D01*
G01*
X1115749Y626282D02*
G03*
X1115742Y626297I-181J-79D01*
G01*
X1113932Y629651D02*
G03*
X1113923Y629667I-173J-94D01*
G01*
X1113932Y629651D02*
G03*
X1113923Y629667I-173J-94D01*
G01*
X1121585Y598354D02*
G03*
X1121585Y598361I-197J0D01*
G01*
X1121585Y598354D02*
G03*
X1121585Y598361I-197J0D01*
G01*
X1121585Y598347D02*
G03*
X1121585Y598354I-197J8D01*
G01*
X1121585Y598347D02*
G03*
X1121585Y598354I-197J8D01*
G01*
X1097721Y643054D02*
G03*
X1097697Y643061I-65J-186D01*
G01*
X1100320Y642164D02*
G03*
X1100299Y642172I-85J-177D01*
G01*
X1100320Y642164D02*
G03*
X1100297Y642173I-85J-177D01*
G01*
X1095026Y643631D02*
G03*
X1095002Y643634I-41J-193D01*
G01*
X1097720Y643055D02*
G03*
X1097697Y643061I-64J-186D01*
G01*
X1102833Y640951D02*
G03*
X1102813Y640962I-106J-166D01*
G01*
X1105259Y639406D02*
G03*
X1105241Y639419I-124J-153D01*
G01*
X1105259Y639406D02*
G03*
X1105241Y639419I-124J-153D01*
G01*
X1102833Y640951D02*
G03*
X1102813Y640962I-106J-166D01*
G01*
X1091914Y643901D02*
G03*
X1091889Y643902I-17J-196D01*
G01*
X1091914Y643901D02*
G03*
X1091889Y643902I-17J-196D01*
G01*
X1095026Y643631D02*
G03*
X1095002Y643634I-41J-193D01*
G01*
X1088657Y643775D02*
G03*
X1088634Y643772I8J-197D01*
G01*
X1088657Y643775D02*
G03*
X1088634Y643772I8J-197D01*
G01*
X1085237Y643232D02*
G03*
X1085216Y643228I31J-195D01*
G01*
X1085237Y643232D02*
G03*
X1085216Y643228I31J-195D01*
G01*
X1081631Y642246D02*
G03*
X1081612Y642240I52J-190D01*
G01*
X1081631Y642246D02*
G03*
X1081612Y642240I52J-190D01*
G01*
X1107595Y637516D02*
G03*
X1107579Y637531I-140J-139D01*
G01*
X1107595Y637516D02*
G03*
X1107579Y637531I-140J-139D01*
G01*
X1121362Y592860D02*
G03*
X1121363Y592874I-196J22D01*
G01*
X1121362Y592860D02*
G03*
X1121363Y592874I-196J22D01*
G01*
X1120739Y587351D02*
G03*
X1120741Y587365I-194J36D01*
G01*
X1120739Y587351D02*
G03*
X1120741Y587365I-194J36D01*
G01*
X1119717Y581854D02*
G03*
X1119720Y581868I-191J50D01*
G01*
X1119716Y581853D02*
G03*
X1119720Y581868I-190J51D01*
G01*
X1118297Y576398D02*
G03*
X1118301Y576413I-187J63D01*
G01*
X1118297Y576399D02*
G03*
X1118301Y576411I-187J62D01*
G01*
X1118296Y576397D02*
G03*
X1118297Y576399I-186J64D01*
G01*
X1077815Y640778D02*
G03*
X1077798Y640771I71J-184D01*
G01*
X1077815Y640778D02*
G03*
X1077797Y640770I71J-184D01*
G01*
X1073765Y638781D02*
G03*
X1073750Y638773I86J-177D01*
G01*
X1073764Y638781D02*
G03*
X1073750Y638773I87J-177D01*
G01*
X1069450Y636198D02*
G03*
X1069438Y636191I101J-169D01*
G01*
X1069450Y636198D02*
G03*
X1069437Y636190I101J-169D01*
G01*
X1064844Y632965D02*
G03*
X1064833Y632957I112J-162D01*
G01*
X1064843Y632965D02*
G03*
X1064832Y632956I113J-161D01*
G01*
X1059907Y629003D02*
G03*
X1059898Y628995I122J-155D01*
G01*
X1059898Y628995D02*
G03*
X1059897Y628994I131J-147D01*
G01*
X1059906Y629002D02*
G03*
X1059898Y628995I123J-154D01*
G01*
X1054595Y624218D02*
G03*
X1054588Y624212I132J-146D01*
G01*
X1054596Y624219D02*
G03*
X1054595Y624218I131J-147D01*
G01*
X1054595Y624218D02*
G03*
X1054588Y624212I132J-146D01*
G01*
X1048852Y618502D02*
G03*
X1048846Y618495I139J-140D01*
G01*
X1048847Y618496D02*
G03*
X1048846Y618495I144J-134D01*
G01*
X1048852Y618502D02*
G03*
X1048847Y618496I139J-140D01*
G01*
X1056751Y609696D02*
G03*
X1056726Y609682I88J-176D01*
G01*
X1056752Y609697D02*
G03*
X1056751Y609696I86J-177D01*
G01*
X1056727Y609682D02*
G03*
X1056725Y609681I112J-162D01*
G01*
X1056752Y609697D02*
G03*
X1056727Y609682I87J-177D01*
G01*
X1054611Y608211D02*
G03*
X1054591Y608194I113J-161D01*
G01*
X1054612Y608212D02*
G03*
X1054611Y608211I112J-162D01*
G01*
X1054611Y608211D02*
G03*
X1054591Y608194I112J-162D01*
G01*
X1052361Y606146D02*
G03*
X1052347Y606132I133J-145D01*
G01*
X1052348Y606133D02*
G03*
X1052347Y606131I146J-132D01*
G01*
X1052361Y606146D02*
G03*
X1052348Y606133I133J-145D01*
G01*
X1049803Y603285D02*
G03*
X1049799Y603281I147J-131D01*
G01*
X1049804Y603287D02*
G03*
X1049803Y603285I146J-132D01*
G01*
X1049803Y603286D02*
G03*
X1049799Y603281I147J-131D01*
G01*
X1116484Y571015D02*
G03*
X1116485Y571017I-186J64D01*
G01*
X1116480Y571003D02*
G03*
X1116484Y571015I-182J76D01*
G01*
X1116480Y571004D02*
G03*
X1116484Y571016I-182J75D01*
G01*
X1116479Y571003D02*
G03*
X1116480Y571004I-182J76D01*
G01*
X1114266Y565687D02*
G03*
X1114271Y565698I-177J87D01*
G01*
X1114265Y565685D02*
G03*
X1114266Y565687I-176J89D01*
G01*
X1114271Y565698D02*
G03*
X1114271Y565699I-182J76D01*
G01*
X1114265Y565686D02*
G03*
X1114271Y565698I-176J88D01*
G01*
X1111658Y560469D02*
G03*
X1111659Y560470I-176J89D01*
G01*
X1111652Y560459D02*
G03*
X1111658Y560469I-170J99D01*
G01*
X1111652Y560459D02*
G03*
X1111658Y560470I-170J99D01*
G01*
X1108956Y555838D02*
G03*
X1108963Y555848I-164J109D01*
G01*
X1108957Y555838D02*
G03*
X1108963Y555848I-164J109D01*
G01*
X1108956Y555837D02*
G03*
X1108957Y555838I-163J110D01*
G01*
X1105931Y551304D02*
G03*
X1105937Y551313I-157J118D01*
G01*
X1105930Y551303D02*
G03*
X1105931Y551304I-157J119D01*
G01*
X1105937Y551313D02*
G03*
X1105938Y551314I-163J110D01*
G01*
X1105931Y551304D02*
G03*
X1105937Y551313I-157J119D01*
G01*
X1102569Y546860D02*
G03*
X1102576Y546869I-150J128D01*
G01*
X1102569Y546861D02*
G03*
X1102576Y546869I-151J127D01*
G01*
X1102568Y546859D02*
G03*
X1102569Y546861I-149J128D01*
G01*
X1098870Y542519D02*
G03*
X1098871Y542520I-149J128D01*
G01*
X1098863Y542511D02*
G03*
X1098870Y542519I-143J136D01*
G01*
X1098864Y542512D02*
G03*
X1098871Y542519I-143J135D01*
G01*
X1098862Y542510D02*
G03*
X1098864Y542512I-142J137D01*
G01*
X1094811Y538267D02*
G03*
X1094813Y538269I-142J137D01*
G01*
X1094804Y538260D02*
G03*
X1094811Y538267I-135J144D01*
G01*
X1094804Y538260D02*
G03*
X1094812Y538268I-135J144D01*
G01*
X1090380Y534111D02*
G03*
X1090388Y534118I-127J151D01*
G01*
X1090380Y534111D02*
G03*
X1090388Y534118I-127J151D01*
G01*
X1085578Y530066D02*
G03*
X1085586Y530072I-119J157D01*
G01*
X1085578Y530066D02*
G03*
X1085586Y530072I-119J157D01*
G01*
X1080379Y526129D02*
G03*
X1080387Y526134I-112J162D01*
G01*
X1080378Y526128D02*
G03*
X1080379Y526129I-110J163D01*
G01*
X1080379Y526128D02*
G03*
X1080387Y526134I-111J163D01*
G01*
X1074771Y522305D02*
G03*
X1074772Y522306I-110J163D01*
G01*
X1074763Y522300D02*
G03*
X1074771Y522305I-103J168D01*
G01*
X1074763Y522300D02*
G03*
X1074771Y522306I-103J168D01*
G01*
X1068706Y518584D02*
G03*
X1068713Y518588I-95J172D01*
G01*
X1068705Y518583D02*
G03*
X1068713Y518588I-94J173D01*
G01*
X1062173Y514979D02*
G03*
X1062182Y514983I-88J177D01*
G01*
X1062173Y514979D02*
G03*
X1062180Y514983I-88J177D01*
G01*
X1052088Y533416D02*
G03*
X1052094Y533388I195J26D01*
G01*
X1052094Y533389D02*
G03*
X1052094Y533387I190J53D01*
G01*
X1052088Y533416D02*
G03*
X1052094Y533389I195J26D01*
G01*
X1055120Y511483D02*
G03*
X1055128Y511486I-80J180D01*
G01*
X1055121Y511483D02*
G03*
X1055128Y511486I-80J180D01*
G01*
X1055120Y511482D02*
G03*
X1055121Y511483I-80J180D01*
G01*
X1047491Y508091D02*
G03*
X1047491Y508092I-80J180D01*
G01*
X1047484Y508088D02*
G03*
X1047491Y508091I-73J183D01*
G01*
X1047485Y508089D02*
G03*
X1047491Y508091I-74J183D01*
G01*
X1047483Y508088D02*
G03*
X1047485Y508089I-72J183D01*
G01*
X1042597Y611706D02*
G03*
X1042592Y611701I145J-133D01*
G01*
X1042597Y611707D02*
G03*
X1042597Y611706I144J-134D01*
G01*
X1042592Y611702D02*
G03*
X1042592Y611701I149J-128D01*
G01*
X1042597Y611707D02*
G03*
X1042592Y611702I145J-133D01*
G01*
X1035710Y603636D02*
G03*
X1035706Y603631I150J-128D01*
G01*
X1035710Y603637D02*
G03*
X1035710Y603636I149J-128D01*
G01*
X1035707Y603632D02*
G03*
X1035705Y603630I153J-124D01*
G01*
X1035710Y603636D02*
G03*
X1035707Y603632I150J-128D01*
G01*
X1027997Y593989D02*
G03*
X1027995Y593986I155J-122D01*
G01*
X1027999Y593991D02*
G03*
X1027997Y593989I153J-124D01*
G01*
X1027998Y593990D02*
G03*
X1027995Y593986I154J-123D01*
G01*
X1019103Y582243D02*
G03*
X1019101Y582240I157J-119D01*
G01*
X1019103Y582243D02*
G03*
X1019101Y582240I157J-119D01*
G01*
X1008208Y567239D02*
G03*
X1008208Y567238I159J-116D01*
G01*
X1008208Y567239D02*
G03*
X1008208Y567238I159J-116D01*
G01*
X1007664Y547385D02*
G03*
X1007665Y547387I-169J101D01*
G01*
X943771Y541181D02*
G03*
X943746Y541198I-121J-155D01*
G01*
X943769Y541182D02*
G03*
X943744Y541199I-120J-156D01*
G01*
X946063Y539415D02*
G03*
X946041Y539434I-141J-137D01*
G01*
X946063Y539415D02*
G03*
X946040Y539435I-141J-137D01*
G01*
X941245Y542597D02*
G03*
X941218Y542610I-97J-171D01*
G01*
X941244Y542598D02*
G03*
X941218Y542610I-96J-172D01*
G01*
X948074Y537334D02*
G03*
X948057Y537355I-159J-116D01*
G01*
X948075Y537332D02*
G03*
X948074Y537334I-160J-114D01*
G01*
X948075Y537333D02*
G03*
X948057Y537355I-160J-115D01*
G01*
X951092Y532409D02*
G03*
X951081Y532436I-186J-64D01*
G01*
X951092Y532409D02*
G03*
X951081Y532436I-186J-64D01*
G01*
X949763Y534981D02*
G03*
X949748Y535006I-175J-91D01*
G01*
X949749Y535005D02*
G03*
X949748Y535007I-160J-114D01*
G01*
X949763Y534981D02*
G03*
X949749Y535005I-175J-91D01*
G01*
X952568Y526826D02*
G03*
X952564Y526855I-197J-8D01*
G01*
X952034Y529672D02*
G03*
X952026Y529699I-193J-36D01*
G01*
X952568Y526826D02*
G03*
X952564Y526855I-197J-8D01*
G01*
X952034Y529672D02*
G03*
X952026Y529699I-193J-36D01*
G01*
X952684Y523954D02*
G03*
X952684Y523962I-197J0D01*
G01*
X952683Y523933D02*
G03*
X952684Y523954I-196J21D01*
G01*
D02*
G03*
X952684Y523962I-197J0D01*
G01*
X952683Y523933D02*
G03*
X952684Y523954I-196J21D01*
G01*
X952376Y521054D02*
G03*
X952381Y521082I-191J49D01*
G01*
X952376Y521054D02*
G03*
X952381Y521082I-191J49D01*
G01*
X1039161Y504779D02*
G03*
X1039168Y504782I-66J186D01*
G01*
X1039161Y504779D02*
G03*
X1039167Y504782I-67J185D01*
G01*
X1039160Y504779D02*
G03*
X1039161Y504779I-65J186D01*
G01*
X1029964Y501518D02*
G03*
X1029966Y501518I-65J186D01*
G01*
X1029959Y501516D02*
G03*
X1029964Y501518I-59J188D01*
G01*
X1029959Y501516D02*
G03*
X1029965Y501518I-60J187D01*
G01*
X1029958Y501516D02*
G03*
X1029959Y501516I-58J188D01*
G01*
X1019422Y498193D02*
G03*
X1019424Y498194I-58J188D01*
G01*
X1019414Y498191D02*
G03*
X1019422Y498193I-50J190D01*
G01*
X1019414Y498191D02*
G03*
X1019423Y498194I-50J190D01*
G01*
X951655Y518250D02*
G03*
X951664Y518278I-182J76D01*
G01*
X951654Y518249D02*
G03*
X951664Y518278I-181J77D01*
G01*
X950534Y515581D02*
G03*
X950547Y515608I-169J102D01*
G01*
X950534Y515581D02*
G03*
X950547Y515606I-169J101D01*
G01*
X950533Y515581D02*
G03*
X950534Y515581I-168J102D01*
G01*
X949053Y513126D02*
G03*
X949054Y513127I-168J102D01*
G01*
X949037Y513103D02*
G03*
X949053Y513126I-152J125D01*
G01*
X949037Y513103D02*
G03*
X949054Y513126I-152J125D01*
G01*
X947196Y510868D02*
G03*
X947216Y510889I-132J146D01*
G01*
X947196Y510868D02*
G03*
X947216Y510889I-132J146D01*
G01*
X946753Y502782D02*
G03*
X946592Y502866I-161J-113D01*
G01*
X946752Y502783D02*
G03*
X946592Y502866I-160J-114D01*
G01*
X967019Y474199D02*
G03*
X966982Y474314I-197J0D01*
G01*
X967019Y474199D02*
G03*
X966983Y474313I-197J0D01*
G01*
X967002Y474118D02*
G03*
X967019Y474199I-180J81D01*
G01*
X967002Y474119D02*
G03*
X967019Y474199I-180J80D01*
G01*
X967002Y474118D02*
G03*
X967002Y474119I-179J81D01*
G01*
X1063679Y368493D02*
G03*
X1063675Y368496I-126J-151D01*
G01*
X1063679Y368493D02*
G03*
X1063675Y368496I-127J-151D01*
G01*
X1073406Y360295D02*
G03*
X1073402Y360298I-131J-147D01*
G01*
X1073408Y360294D02*
G03*
X1073406Y360295I-132J-146D01*
G01*
X1073403Y360298D02*
G03*
X1073402Y360299I-127J-150D01*
G01*
X1073407Y360294D02*
G03*
X1073403Y360298I-132J-147D01*
G01*
X1052164Y377689D02*
G03*
X1052160Y377692I-123J-154D01*
G01*
X1052164Y377689D02*
G03*
X1052160Y377692I-123J-154D01*
G01*
X1081681Y352870D02*
G03*
X1081676Y352874I-136J-142D01*
G01*
X1081682Y352868D02*
G03*
X1081681Y352870I-137J-141D01*
G01*
X1088716Y346085D02*
G03*
X1088711Y346091I-142J-136D01*
G01*
X1088711Y346090D02*
G03*
X1088710Y346091I-137J-141D01*
G01*
X1088716Y346085D02*
G03*
X1088711Y346090I-142J-136D01*
G01*
X1081677Y352873D02*
G03*
X1081675Y352874I-132J-146D01*
G01*
X1081681Y352869D02*
G03*
X1081677Y352873I-137J-142D01*
G01*
X1094668Y339853D02*
G03*
X1094662Y339860I-149J-129D01*
G01*
X1094668Y339853D02*
G03*
X1094662Y339860I-148J-130D01*
G01*
X1094669Y339852D02*
G03*
X1094668Y339853I-149J-129D01*
G01*
X1099662Y334108D02*
G03*
X1099655Y334116I-155J-121D01*
G01*
X1103800Y328800D02*
G03*
X1103792Y328810I-163J-110D01*
G01*
X1103799Y328801D02*
G03*
X1103792Y328810I-162J-111D01*
G01*
X1099655Y334116D02*
G03*
X1099654Y334117I-149J-129D01*
G01*
X1099662Y334108D02*
G03*
X1099655Y334116I-155J-121D01*
G01*
X1109860Y319335D02*
G03*
X1109852Y319348I-177J-87D01*
G01*
X1109853Y319347D02*
G03*
X1109852Y319349I-170J-99D01*
G01*
X1109860Y319335D02*
G03*
X1109853Y319347I-177J-87D01*
G01*
X1107172Y323889D02*
G03*
X1107165Y323900I-169J-101D01*
G01*
X1107173Y323888D02*
G03*
X1107172Y323889I-170J-99D01*
G01*
X1107172Y323888D02*
G03*
X1107164Y323901I-170J-100D01*
G01*
X1044092Y329758D02*
G03*
X1044107Y329748I118J158D01*
G01*
X1051972Y325401D02*
G03*
X1051983Y325396I88J176D01*
G01*
X1051972Y325401D02*
G03*
X1051983Y325396I88J176D01*
G01*
X1044092Y329758D02*
G03*
X1044107Y329748I118J158D01*
G01*
X1047772Y327515D02*
G03*
X1047786Y327507I103J168D01*
G01*
X1047772Y327515D02*
G03*
X1047786Y327507I103J168D01*
G01*
X1038235Y388329D02*
G03*
X1038233Y388331I-120J-157D01*
G01*
X1038234Y388330D02*
G03*
X1038232Y388332I-118J-158D01*
G01*
X1038235Y388329D02*
G03*
X1038234Y388330I-120J-157D01*
G01*
X1042221Y361642D02*
G03*
X1042211Y361623I167J-104D01*
G01*
X1042221Y361642D02*
G03*
X1042211Y361623I167J-104D01*
G01*
X1041090Y359273D02*
G03*
X1041080Y359247I178J-85D01*
G01*
X1041090Y359273D02*
G03*
X1041080Y359247I178J-85D01*
G01*
X1040382Y357022D02*
G03*
X1040375Y356992I188J-59D01*
G01*
X1040382Y357022D02*
G03*
X1040375Y356992I188J-59D01*
G01*
X1040105Y352629D02*
G03*
X1040108Y352599I197J3D01*
G01*
X1040069Y354922D02*
G03*
X1040067Y354890I195J-29D01*
G01*
X1040067Y354891D02*
G03*
X1040067Y354889I197J2D01*
G01*
X1040069Y354922D02*
G03*
X1040067Y354891I195J-29D01*
G01*
X1040105Y352628D02*
G03*
X1040108Y352599I197J4D01*
G01*
X1040105Y352630D02*
G03*
X1040105Y352628I197J2D01*
G01*
X1040509Y350227D02*
G03*
X1040512Y350214I194J33D01*
G01*
X1040511Y350215D02*
G03*
X1040512Y350214I192J45D01*
G01*
X1040509Y350227D02*
G03*
X1040511Y350215I194J33D01*
G01*
X1040961Y332089D02*
G03*
X1040976Y332076I133J145D01*
G01*
X1040961Y332089D02*
G03*
X1040976Y332076I133J145D01*
G01*
X1115042Y304056D02*
G03*
X1115039Y304078I-197J-10D01*
G01*
X1115042Y304054D02*
G03*
X1115042Y304056I-197J-8D01*
G01*
X1115042Y304055D02*
G03*
X1115039Y304080I-197J-9D01*
G01*
X1115189Y300835D02*
G03*
X1115189Y300844I-197J0D01*
G01*
X1115189Y300819D02*
G03*
X1115189Y300835I-196J16D01*
G01*
X1115189Y300843D02*
G03*
X1115189Y300845I-197J-8D01*
G01*
X1115189Y300835D02*
G03*
X1115189Y300843I-197J0D01*
G01*
X1114474Y307495D02*
G03*
X1114470Y307517I-195J-31D01*
G01*
X1114474Y307496D02*
G03*
X1114469Y307518I-194J-32D01*
G01*
X1115189Y300819D02*
G03*
X1115189Y300835I-196J16D01*
G01*
X1114940Y297761D02*
G03*
X1114943Y297786I-193J41D01*
G01*
X1114940Y297761D02*
G03*
X1114943Y297786I-193J41D01*
G01*
X1114386Y295139D02*
G03*
X1114393Y295163I-186J64D01*
G01*
X1114386Y295139D02*
G03*
X1114393Y295163I-186J64D01*
G01*
X1113453Y311168D02*
G03*
X1113447Y311188I-190J-52D01*
G01*
X1113453Y311170D02*
G03*
X1113446Y311189I-190J-53D01*
G01*
X1111933Y315105D02*
G03*
X1111926Y315121I-184J-70D01*
G01*
X1111932Y315106D02*
G03*
X1111926Y315121I-184J-71D01*
G01*
X1070005Y293636D02*
G03*
X1070016Y293614I180J79D01*
G01*
X1070005Y293637D02*
G03*
X1070005Y293636I181J77D01*
G01*
X1068355Y298357D02*
G03*
X1068361Y298323I196J17D01*
G01*
X1068961Y296048D02*
G03*
X1068962Y296046I181J77D01*
G01*
X1068952Y296076D02*
G03*
X1068961Y296048I190J50D01*
G01*
X1068952Y296076D02*
G03*
X1068962Y296047I190J50D01*
G01*
X1113522Y292627D02*
G03*
X1113531Y292650I-177J87D01*
G01*
X1113522Y292627D02*
G03*
X1113531Y292650I-177J87D01*
G01*
X1112339Y290214D02*
G03*
X1112351Y290235I-165J108D01*
G01*
X1112339Y290213D02*
G03*
X1112351Y290235I-164J108D01*
G01*
X1110825Y287891D02*
G03*
X1110839Y287911I-151J126D01*
G01*
X1110824Y287890D02*
G03*
X1110839Y287910I-150J127D01*
G01*
X1108958Y285657D02*
G03*
X1108974Y285674I-136J142D01*
G01*
X1108958Y285657D02*
G03*
X1108973Y285673I-136J142D01*
G01*
X1071557Y291027D02*
G03*
X1071558Y291026I160J115D01*
G01*
X1071548Y291042D02*
G03*
X1071557Y291027I169J101D01*
G01*
X1073682Y288103D02*
G03*
X1073683Y288101I159J116D01*
G01*
X1073683Y288102D02*
G03*
X1073683Y288101I159J116D01*
G01*
X1073682Y288103D02*
G03*
X1073683Y288102I160J115D01*
G01*
X1070005Y293637D02*
G03*
X1070016Y293614I181J78D01*
G01*
X1071548Y291042D02*
G03*
X1071558Y291027I169J101D01*
G01*
X1068355Y298358D02*
G03*
X1068361Y298323I196J16D01*
G01*
X1106717Y283515D02*
G03*
X1106732Y283528I-121J155D01*
G01*
X1106715Y283514D02*
G03*
X1106717Y283515I-120J156D01*
G01*
X1106716Y283515D02*
G03*
X1106732Y283528I-120J156D01*
G01*
X1104089Y281485D02*
G03*
X1104090Y281487I-120J156D01*
G01*
X1104074Y281475D02*
G03*
X1104089Y281485I-105J167D01*
G01*
X1104072Y281474D02*
G03*
X1104089Y281486I-103J168D01*
G01*
X1101009Y279554D02*
G03*
X1101026Y279563I-89J176D01*
G01*
X1101008Y279553D02*
G03*
X1101025Y279563I-88J176D01*
G01*
X1097508Y277775D02*
G03*
X1097524Y277782I-74J182D01*
G01*
X1097509Y277775D02*
G03*
X1097523Y277782I-75J182D01*
G01*
X1097508Y277775D02*
G03*
X1097509Y277775I-74J183D01*
G01*
X1093568Y276167D02*
G03*
X1093582Y276172I-60J187D01*
G01*
X1093567Y276166D02*
G03*
X1093582Y276172I-59J188D01*
G01*
X1089207Y274764D02*
G03*
X1089221Y274768I-47J191D01*
G01*
X1089207Y274764D02*
G03*
X1089220Y274768I-47J191D01*
G01*
X1084470Y273603D02*
G03*
X1084482Y273606I-34J194D01*
G01*
X1084470Y273603D02*
G03*
X1084482Y273606I-34J194D01*
G01*
X1079442Y272720D02*
G03*
X1079455Y272722I-22J196D01*
G01*
X1079443Y272720D02*
G03*
X1079455Y272722I-22J196D01*
G01*
X1079442Y272720D02*
G03*
X1079443Y272720I-21J196D01*
G01*
X1074246Y272144D02*
G03*
X1074248Y272145I-21J196D01*
G01*
X1074234Y272144D02*
G03*
X1074246Y272144I-9J197D01*
G01*
X1074234Y272144D02*
G03*
X1074247Y272145I-9J197D01*
G01*
X1068372Y271879D02*
G03*
X1068385Y271879I5J197D01*
G01*
X1062561Y272012D02*
G03*
X1062574Y272011I18J196D01*
G01*
X1068372Y271879D02*
G03*
X1068385Y271879I5J197D01*
G01*
X1062561Y272012D02*
G03*
X1062574Y272011I18J196D01*
G01*
X1051782Y287973D02*
G03*
X1051783Y287972I112J162D01*
G01*
X1046874Y291354D02*
G03*
X1046883Y291348I121J155D01*
G01*
X1051782Y287972D02*
G03*
X1051783Y287972I111J162D01*
G01*
X1051782Y287973D02*
G03*
X1051782Y287972I112J162D01*
G01*
X1046874Y291354D02*
G03*
X1046883Y291348I121J155D01*
G01*
X1042908Y294437D02*
G03*
X1042917Y294430I129J149D01*
G01*
X1042908Y294437D02*
G03*
X1042917Y294430I129J149D01*
G01*
X1056905Y272531D02*
G03*
X1056918Y272530I32J194D01*
G01*
X1056905Y272531D02*
G03*
X1056918Y272530I32J194D01*
G01*
X1051477Y273418D02*
G03*
X1051491Y273415I46J192D01*
G01*
X1051478Y273418D02*
G03*
X1051491Y273415I45J192D01*
G01*
X1051476Y273418D02*
G03*
X1051478Y273418I47J191D01*
G01*
X1046334Y274646D02*
G03*
X1046336Y274645I47J191D01*
G01*
X1046321Y274650D02*
G03*
X1046334Y274646I60J188D01*
G01*
X1041459Y276207D02*
G03*
X1041473Y276202I74J183D01*
G01*
X1041457Y276208D02*
G03*
X1041459Y276207I75J182D01*
G01*
X1046321Y274650D02*
G03*
X1046336Y274646I60J188D01*
G01*
X1041458Y276207D02*
G03*
X1041473Y276202I75J182D01*
G01*
X1036905Y278070D02*
G03*
X1036906Y278069I75J182D01*
G01*
X1036891Y278076D02*
G03*
X1036905Y278070I89J176D01*
G01*
X1036892Y278076D02*
G03*
X1036905Y278070I88J176D01*
G01*
X1036890Y278077D02*
G03*
X1036892Y278076I90J175D01*
G01*
X1024851Y285504D02*
G03*
X1024852Y285503I118J158D01*
G01*
X1024839Y285513D02*
G03*
X1024851Y285504I130J148D01*
G01*
X1024839Y285513D02*
G03*
X1024852Y285503I130J148D01*
G01*
X1032624Y280241D02*
G03*
X1032625Y280240I90J175D01*
G01*
X1032610Y280248D02*
G03*
X1032624Y280241I103J168D01*
G01*
X1028601Y282724D02*
G03*
X1028614Y282715I117J159D01*
G01*
X1028599Y282724D02*
G03*
X1028601Y282724I118J158D01*
G01*
X1032609Y280249D02*
G03*
X1032625Y280240I105J167D01*
G01*
X1028600Y282724D02*
G03*
X1028615Y282714I117J158D01*
G01*
X1020257Y401623D02*
G03*
X1020256Y401624I-118J-158D01*
G01*
X1020256Y401624D02*
G03*
X1020255Y401624I-117J-158D01*
G01*
X993574Y400998D02*
G03*
X993565Y401004I-125J-152D01*
G01*
X993574Y400997D02*
G03*
X993574Y400998I-125J-152D01*
G01*
X995275Y399594D02*
G03*
X995252Y399616I-148J-130D01*
G01*
X995253Y399616D02*
G03*
X995252Y399616I-125J-152D01*
G01*
X995275Y399594D02*
G03*
X995253Y399616I-148J-130D01*
G01*
X993574Y400998D02*
G03*
X993564Y401005I-125J-152D01*
G01*
X998106Y395737D02*
G03*
X998092Y395764I-181J-76D01*
G01*
X998092Y395764D02*
G03*
X998091Y395765I-168J-103D01*
G01*
X998105Y395738D02*
G03*
X998092Y395764I-181J-78D01*
G01*
X996793Y397864D02*
G03*
X996773Y397891I-167J-104D01*
G01*
X996793Y397865D02*
G03*
X996773Y397891I-167J-104D01*
G01*
X996793Y397864D02*
G03*
X996793Y397865I-168J-103D01*
G01*
X979416Y416475D02*
G03*
X979436Y416500I-143J135D01*
G01*
X979416Y416475D02*
G03*
X979436Y416500I-143J135D01*
G01*
X956631Y417302D02*
G03*
X956434Y417499I-197J0D01*
G01*
X956631Y417302D02*
G03*
X956434Y417499I-197J0D01*
G01*
X956627Y417262D02*
G03*
X956631Y417302I-193J40D01*
G01*
X956627Y417262D02*
G03*
X956631Y417302I-193J40D01*
G01*
X1010076Y388481D02*
G03*
X1010074Y388489I-194J-36D01*
G01*
X1010076Y388481D02*
G03*
X1010074Y388489I-194J-36D01*
G01*
X1020777Y343336D02*
G03*
X1020779Y343332I168J103D01*
G01*
X1020778Y343333D02*
G03*
X1020779Y343332I166J105D01*
G01*
X1020777Y343334D02*
G03*
X1020778Y343333I167J104D01*
G01*
X1018267Y320881D02*
G03*
X1018261Y320892I-177J-87D01*
G01*
X1020753Y315850D02*
G03*
X1020750Y315856I-179J-81D01*
G01*
X1020753Y315849D02*
G03*
X1020753Y315850I-180J-80D01*
G01*
X1021648Y288310D02*
G03*
X1021659Y288300I141J138D01*
G01*
X1021649Y288309D02*
G03*
X1021659Y288300I140J138D01*
G01*
X1021647Y288311D02*
G03*
X1021649Y288309I141J137D01*
G01*
X1020753Y315850D02*
G03*
X1020750Y315856I-180J-81D01*
G01*
X1018629Y291393D02*
G03*
X1018631Y291392I141J137D01*
G01*
X1018620Y291404D02*
G03*
X1018629Y291393I151J127D01*
G01*
X1018620Y291404D02*
G03*
X1018630Y291393I151J127D01*
G01*
X1015531Y325670D02*
G03*
X1015530Y325671I-172J-97D01*
G01*
X1015531Y325671D02*
G03*
X1015530Y325672I-171J-98D01*
G01*
X1018262Y320891D02*
G03*
X1018261Y320893I-172J-97D01*
G01*
X1018267Y320881D02*
G03*
X1018262Y320891I-177J-87D01*
G01*
X1015735Y294832D02*
G03*
X1015743Y294821I160J115D01*
G01*
X1015735Y294832D02*
G03*
X1015743Y294821I159J116D01*
G01*
X1015734Y294833D02*
G03*
X1015735Y294832I160J115D01*
G01*
X1012976Y298640D02*
G03*
X1012976Y298639I160J115D01*
G01*
X1012968Y298651D02*
G03*
X1012976Y298640I167J104D01*
G01*
X1012968Y298651D02*
G03*
X1012976Y298640I167J104D01*
G01*
X1010292Y302942D02*
G03*
X1010298Y302931I174J93D01*
G01*
X1007665Y307831D02*
G03*
X1007670Y307821I179J83D01*
G01*
X1010292Y302941D02*
G03*
X1010298Y302931I173J94D01*
G01*
X1010292Y302942D02*
G03*
X1010292Y302941I174J93D01*
G01*
X1007670Y307821D02*
G03*
X1007670Y307820I174J93D01*
G01*
X1007665Y307831D02*
G03*
X1007670Y307821I179J83D01*
G01*
X998412Y383474D02*
G03*
X998412Y383475I-185J68D01*
G01*
X998410Y383470D02*
G03*
X998412Y383474I-183J72D01*
G01*
X998410Y383471D02*
G03*
X998412Y383475I-184J71D01*
G01*
X998410Y383469D02*
G03*
X998410Y383471I-183J73D01*
G01*
X1005021Y313540D02*
G03*
X1005026Y313531I183J73D01*
G01*
X1002223Y320537D02*
G03*
X1002226Y320529I186J65D01*
G01*
X1005021Y313542D02*
G03*
X1005026Y313531I183J72D01*
G01*
X1002223Y320537D02*
G03*
X1002227Y320527I186J65D01*
G01*
X997267Y380550D02*
G03*
X997268Y380552I-183J73D01*
G01*
X997260Y380535D02*
G03*
X997267Y380550I-176J88D01*
G01*
X997260Y380536D02*
G03*
X997267Y380551I-177J87D01*
G01*
X997260Y380534D02*
G03*
X997260Y380536I-176J88D01*
G01*
X999241Y329055D02*
G03*
X999243Y329050I188J59D01*
G01*
X999241Y329055D02*
G03*
X999243Y329050I188J59D01*
G01*
X995704Y340209D02*
G03*
X995704Y340208I188J58D01*
G01*
X995704Y340209D02*
G03*
X995704Y340208I188J58D01*
G01*
X932826Y544474D02*
G03*
X932798Y544474I-14J-196D01*
G01*
X932826D02*
G03*
X932798Y544474I-14J-196D01*
G01*
X935714Y544261D02*
G03*
X935685Y544266I-43J-192D01*
G01*
X852604Y573929D02*
G03*
X852602Y573932I-160J-114D01*
G01*
X852604Y573929D02*
G03*
X852602Y573932I-160J-114D01*
G01*
X935713Y544262D02*
G03*
X935685Y544266I-42J-192D01*
G01*
X935714Y544261D02*
G03*
X935713Y544262I-43J-192D01*
G01*
X938540Y543631D02*
G03*
X938512Y543640I-70J-184D01*
G01*
X938513Y543640D02*
G03*
X938511Y543640I-43J-192D01*
G01*
X938540Y543631D02*
G03*
X938513Y543640I-70J-184D01*
G01*
X929939Y544266D02*
G03*
X929910Y544261I14J-196D01*
G01*
X929939Y544266D02*
G03*
X929909Y544261I14J-196D01*
G01*
X927113Y543640D02*
G03*
X927085Y543631I42J-192D01*
G01*
X927112Y543640D02*
G03*
X927085Y543631I43J-192D01*
G01*
X924406Y542610D02*
G03*
X924380Y542598I70J-184D01*
G01*
X924406Y542610D02*
G03*
X924379Y542597I70J-184D01*
G01*
X921880Y541199D02*
G03*
X921855Y541182I95J-172D01*
G01*
X921879Y541198D02*
G03*
X921855Y541182I96J-172D01*
G01*
X919583Y539434D02*
G03*
X919561Y539415I120J-156D01*
G01*
X919562Y539416D02*
G03*
X919561Y539414I141J-138D01*
G01*
X919583Y539434D02*
G03*
X919562Y539416I120J-156D01*
G01*
X917567Y537355D02*
G03*
X917549Y537333I142J-136D01*
G01*
X917568Y537356D02*
G03*
X917567Y537355I141J-138D01*
G01*
X917550Y537334D02*
G03*
X917549Y537332I159J-116D01*
G01*
X917568Y537355D02*
G03*
X917550Y537334I141J-137D01*
G01*
X842434Y587711D02*
G03*
X842431Y587715I-158J-117D01*
G01*
X842432Y587714D02*
G03*
X842431Y587715I-156J-120D01*
G01*
X842434Y587711D02*
G03*
X842432Y587714I-158J-117D01*
G01*
X915875Y535005D02*
G03*
X915861Y534981I160J-114D01*
G01*
X915876Y535007D02*
G03*
X915875Y535005I159J-116D01*
G01*
X915876Y535006D02*
G03*
X915861Y534981I160J-115D01*
G01*
X914543Y532436D02*
G03*
X914532Y532409I175J-91D01*
G01*
X914543Y532436D02*
G03*
X914532Y532409I175J-91D01*
G01*
X913598Y529699D02*
G03*
X913590Y529672I186J-64D01*
G01*
X913598Y529699D02*
G03*
X913590Y529672I186J-64D01*
G01*
X913060Y526855D02*
G03*
X913056Y526826I193J-36D01*
G01*
X913060Y526855D02*
G03*
X913056Y526826I193J-36D01*
G01*
X912941Y523962D02*
G03*
X912941Y523933I197J-8D01*
G01*
X912941Y523962D02*
G03*
X912941Y523933I197J-8D01*
G01*
X913243Y521082D02*
G03*
X913248Y521054I196J21D01*
G01*
X913243Y521082D02*
G03*
X913248Y521053I196J21D01*
G01*
X833861Y598771D02*
G03*
X833858Y598775I-155J-121D01*
G01*
X833862Y598771D02*
G03*
X833861Y598771I-156J-120D01*
G01*
X833861Y598771D02*
G03*
X833858Y598775I-156J-121D01*
G01*
X826634Y607551D02*
G03*
X826630Y607556I-152J-125D01*
G01*
X826630Y607556D02*
G03*
X826629Y607557I-148J-130D01*
G01*
X826634Y607551D02*
G03*
X826630Y607556I-152J-125D01*
G01*
X918408Y510889D02*
G03*
X918428Y510868I152J125D01*
G01*
X919033Y502866D02*
G03*
X918872Y502783I0J-197D01*
G01*
X919033Y502866D02*
G03*
X918871Y502782I0J-197D01*
G01*
X915077Y515606D02*
G03*
X915090Y515581I182J76D01*
G01*
X916571Y513126D02*
G03*
X916587Y513103I168J102D01*
G01*
X916570Y513127D02*
G03*
X916571Y513126I169J101D01*
G01*
X913960Y518279D02*
G03*
X913969Y518250I191J48D01*
G01*
X915077Y515606D02*
G03*
X915090Y515581I182J76D01*
G01*
X913960Y518278D02*
G03*
X913969Y518250I191J49D01*
G01*
X916570Y513126D02*
G03*
X916587Y513103I169J102D01*
G01*
X918408Y510889D02*
G03*
X918428Y510868I152J125D01*
G01*
X898641Y474313D02*
G03*
X898622Y474118I160J-114D01*
G01*
X898622Y474119D02*
G03*
X898622Y474118I180J80D01*
G01*
X898641Y474313D02*
G03*
X898622Y474119I160J-114D01*
G01*
X822851Y506170D02*
G03*
X822858Y506167I76J182D01*
G01*
X822851Y506170D02*
G03*
X822858Y506167I76J182D01*
G01*
X865348Y492952D02*
G03*
X865349Y492952I51J190D01*
G01*
X865346Y492952D02*
G03*
X865349Y492952I52J190D01*
G01*
X831913Y502802D02*
G03*
X831919Y502799I69J185D01*
G01*
X831918Y502800D02*
G03*
X831920Y502799I63J187D01*
G01*
X831913Y502802D02*
G03*
X831918Y502800I69J185D01*
G01*
X852703Y496320D02*
G03*
X852709Y496318I56J189D01*
G01*
X841780Y499540D02*
G03*
X841786Y499539I61J187D01*
G01*
X841778Y499541D02*
G03*
X841780Y499540I63J187D01*
G01*
X852704Y496320D02*
G03*
X852708Y496319I55J189D01*
G01*
X852702Y496320D02*
G03*
X852704Y496320I57J189D01*
G01*
X841785Y499539D02*
G03*
X841786Y499538I57J189D01*
G01*
X841779Y499541D02*
G03*
X841785Y499539I62J187D01*
G01*
X814465Y620862D02*
G03*
X814458Y620868I-143J-136D01*
G01*
X814465Y620862D02*
G03*
X814458Y620868I-143J-136D01*
G01*
X820244Y614798D02*
G03*
X820239Y614803I-147J-131D01*
G01*
X820245Y614797D02*
G03*
X820244Y614798I-148J-130D01*
G01*
X820244Y614798D02*
G03*
X820239Y614803I-148J-130D01*
G01*
X809165Y625955D02*
G03*
X809158Y625962I-137J-142D01*
G01*
X809165Y625955D02*
G03*
X809158Y625962I-137J-142D01*
G01*
X804265Y630219D02*
G03*
X804256Y630226I-129J-149D01*
G01*
X804265Y630219D02*
G03*
X804256Y630226I-129J-149D01*
G01*
X808021Y607127D02*
G03*
X808000Y607141I-122J-155D01*
G01*
X808023Y607125D02*
G03*
X808021Y607127I-124J-153D01*
G01*
X810086Y605479D02*
G03*
X810069Y605494I-140J-139D01*
G01*
X810088Y605478D02*
G03*
X810086Y605479I-141J-138D01*
G01*
X810070Y605494D02*
G03*
X810069Y605495I-124J-153D01*
G01*
X810087Y605479D02*
G03*
X810070Y605494I-140J-138D01*
G01*
X812465Y603069D02*
G03*
X812455Y603079I-149J-128D01*
G01*
X812456Y603078D02*
G03*
X812455Y603079I-141J-138D01*
G01*
X812465Y603069D02*
G03*
X812456Y603078I-149J-128D01*
G01*
X805887Y608391D02*
G03*
X805879Y608395I-100J-170D01*
G01*
X805888Y608390D02*
G03*
X805887Y608391I-101J-169D01*
G01*
X805888Y608390D02*
G03*
X805879Y608395I-100J-169D01*
G01*
X808000Y607141D02*
G03*
X807999Y607142I-101J-169D01*
G01*
X808022Y607126D02*
G03*
X808000Y607141I-123J-154D01*
G01*
X799706Y633761D02*
G03*
X799696Y633768I-121J-155D01*
G01*
X799697Y633768D02*
G03*
X799696Y633768I-112J-162D01*
G01*
X799706Y633761D02*
G03*
X799697Y633768I-121J-155D01*
G01*
X795447Y636665D02*
G03*
X795436Y636672I-110J-163D01*
G01*
X795448Y636664D02*
G03*
X795447Y636665I-112J-162D01*
G01*
X795448Y636664D02*
G03*
X795436Y636672I-111J-163D01*
G01*
X777662Y643697D02*
G03*
X777641Y643700I-34J-194D01*
G01*
X780829Y643134D02*
G03*
X780808Y643138I-55J-189D01*
G01*
X780828Y643134D02*
G03*
X780808Y643138I-54J-189D01*
G01*
X774655Y643906D02*
G03*
X774632Y643906I-15J-196D01*
G01*
X774633Y643906D02*
G03*
X774631Y643906I8J-197D01*
G01*
X774654Y643906D02*
G03*
X774633Y643906I-14J-197D01*
G01*
X777662Y643697D02*
G03*
X777640Y643700I-34J-194D01*
G01*
X784168Y642188D02*
G03*
X784151Y642194I-70J-184D01*
G01*
X784169Y642188D02*
G03*
X784168Y642188I-71J-184D01*
G01*
X787704Y640824D02*
G03*
X787689Y640831I-86J-177D01*
G01*
X787690Y640830D02*
G03*
X787689Y640831I-71J-184D01*
G01*
X787704Y640824D02*
G03*
X787690Y640830I-86J-177D01*
G01*
X784169Y642188D02*
G03*
X784150Y642194I-71J-184D01*
G01*
X771786Y643782D02*
G03*
X771764Y643779I10J-197D01*
G01*
X771788Y643782D02*
G03*
X771786Y643782I8J-197D01*
G01*
X771787Y643782D02*
G03*
X771763Y643779I9J-197D01*
G01*
X769046Y643340D02*
G03*
X769021Y643334I30J-195D01*
G01*
X769044Y643340D02*
G03*
X769021Y643334I32J-194D01*
G01*
X766131Y642485D02*
G03*
X766107Y642476I55J-189D01*
G01*
X766131Y642485D02*
G03*
X766105Y642476I55J-189D01*
G01*
X763344Y641250D02*
G03*
X763321Y641237I79J-181D01*
G01*
X763343Y641249D02*
G03*
X763321Y641237I80J-180D01*
G01*
X791456Y638999D02*
G03*
X791443Y639006I-99J-170D01*
G01*
X791456Y638999D02*
G03*
X791443Y639006I-99J-170D01*
G01*
X760674Y639626D02*
G03*
X760654Y639611I102J-168D01*
G01*
X760674Y639626D02*
G03*
X760653Y639610I102J-168D01*
G01*
X758125Y637602D02*
G03*
X758106Y637586I121J-155D01*
G01*
X758124Y637601D02*
G03*
X758105Y637585I123J-154D01*
G01*
X755699Y635161D02*
G03*
X755683Y635144I139J-140D01*
G01*
X755698Y635160D02*
G03*
X755683Y635144I140J-139D01*
G01*
X753413Y632285D02*
G03*
X753401Y632269I154J-123D01*
G01*
X753401Y632269D02*
G03*
X753400Y632268I166J-107D01*
G01*
X753413Y632285D02*
G03*
X753401Y632269I154J-123D01*
G01*
X751291Y628966D02*
G03*
X751282Y628950I166J-105D01*
G01*
X751292Y628967D02*
G03*
X751291Y628966I166J-107D01*
G01*
X751283Y628951D02*
G03*
X751282Y628949I175J-91D01*
G01*
X751292Y628966D02*
G03*
X751283Y628951I166J-106D01*
G01*
X749367Y625200D02*
G03*
X749360Y625185I176J-89D01*
G01*
X749368Y625202D02*
G03*
X749367Y625200I175J-91D01*
G01*
X749367Y625201D02*
G03*
X749360Y625185I175J-90D01*
G01*
X747677Y621003D02*
G03*
X747671Y620987I183J-74D01*
G01*
X747671Y620988D02*
G03*
X747671Y620986I188J-59D01*
G01*
X747677Y621003D02*
G03*
X747671Y620988I183J-74D01*
G01*
X746262Y616402D02*
G03*
X746258Y616387I189J-57D01*
G01*
X746263Y616403D02*
G03*
X746262Y616402I188J-59D01*
G01*
X746262Y616402D02*
G03*
X746258Y616386I188J-58D01*
G01*
X745166Y611454D02*
G03*
X745163Y611439I192J-44D01*
G01*
X745166Y611453D02*
G03*
X745163Y611439I192J-43D01*
G01*
X744482Y606759D02*
G03*
X744481Y606746I195J-28D01*
G01*
X744481Y606746D02*
G03*
X744481Y606745I196J-15D01*
G01*
X744482Y606759D02*
G03*
X744481Y606746I195J-28D01*
G01*
X744109Y601908D02*
G03*
X744108Y601895I196J-15D01*
G01*
X744109Y601908D02*
G03*
X744108Y601895I196J-15D01*
G01*
X744058Y596962D02*
G03*
X744059Y596948I197J-2D01*
G01*
X744058Y596962D02*
G03*
X744058Y596949I197J-2D01*
G01*
X744336Y591968D02*
G03*
X744338Y591954I197J10D01*
G01*
X744338Y591954D02*
G03*
X744338Y591953I196J23D01*
G01*
X744337Y591966D02*
G03*
X744338Y591954I197J11D01*
G01*
X744945Y586958D02*
G03*
X744947Y586944I195J24D01*
G01*
X744945Y586958D02*
G03*
X744947Y586945I195J24D01*
G01*
X745883Y581965D02*
G03*
X745885Y581953I194J36D01*
G01*
X745882Y581966D02*
G03*
X745885Y581953I194J35D01*
G01*
X814074Y536562D02*
G03*
X814076Y536572I-194J33D01*
G01*
X814074Y536561D02*
G03*
X814076Y536572I-194J35D01*
G01*
X813509Y533300D02*
G03*
X813514Y533320I-190J52D01*
G01*
X813509Y533300D02*
G03*
X813513Y533319I-190J52D01*
G01*
X814469Y509674D02*
G03*
X814477Y509670I84J178D01*
G01*
X814469Y509674D02*
G03*
X814477Y509670I84J178D01*
G01*
X806693Y513325D02*
G03*
X806701Y513321I92J174D01*
G01*
X806693Y513324D02*
G03*
X806701Y513321I91J175D01*
G01*
X806692Y513325D02*
G03*
X806693Y513324I93J174D01*
G01*
X799480Y517124D02*
G03*
X799482Y517123I93J174D01*
G01*
X799472Y517129D02*
G03*
X799480Y517124I100J170D01*
G01*
X792772Y521085D02*
G03*
X792781Y521079I109J164D01*
G01*
X799473Y517128D02*
G03*
X799481Y517124I100J170D01*
G01*
X799472Y517129D02*
G03*
X799473Y517128I101J169D01*
G01*
X792780Y521080D02*
G03*
X792781Y521079I101J169D01*
G01*
X792772Y521085D02*
G03*
X792780Y521080I109J164D01*
G01*
X747147Y577012D02*
G03*
X747151Y577000I191J49D01*
G01*
X747147Y577012D02*
G03*
X747151Y577000I191J49D01*
G01*
X748736Y572115D02*
G03*
X748740Y572104I187J61D01*
G01*
X748736Y572115D02*
G03*
X748740Y572102I187J61D01*
G01*
X752876Y562542D02*
G03*
X752882Y562532I178J84D01*
G01*
X750645Y567290D02*
G03*
X750651Y567277I184J71D01*
G01*
X752876Y562542D02*
G03*
X752882Y562532I178J84D01*
G01*
X750646Y567289D02*
G03*
X750651Y567277I183J72D01*
G01*
X780827Y529448D02*
G03*
X780835Y529441I126J151D01*
G01*
X786564Y525192D02*
G03*
X786573Y525186I117J158D01*
G01*
X786564Y525192D02*
G03*
X786573Y525186I117J158D01*
G01*
X780827Y529448D02*
G03*
X780835Y529441I126J151D01*
G01*
X775540Y533848D02*
G03*
X775549Y533841I135J144D01*
G01*
X775540Y533848D02*
G03*
X775549Y533841I135J144D01*
G01*
X755427Y557885D02*
G03*
X755434Y557874I173J95D01*
G01*
X755427Y557885D02*
G03*
X755434Y557874I173J95D01*
G01*
X758637Y552821D02*
G03*
X758645Y552810I166J106D01*
G01*
X762247Y547880D02*
G03*
X762255Y547870I159J116D01*
G01*
X758637Y552821D02*
G03*
X758645Y552810I166J106D01*
G01*
X770689Y538390D02*
G03*
X770698Y538381I143J135D01*
G01*
X770690Y538389D02*
G03*
X770698Y538381I142J136D01*
G01*
X770689Y538390D02*
G03*
X770690Y538389I144J135D01*
G01*
X762254Y547871D02*
G03*
X762255Y547870I152J126D01*
G01*
X762247Y547880D02*
G03*
X762254Y547871I159J116D01*
G01*
X766269Y543060D02*
G03*
X766271Y543058I144J135D01*
G01*
X766262Y543069D02*
G03*
X766269Y543060I151J126D01*
G01*
X766262Y543068D02*
G03*
X766270Y543059I151J127D01*
G01*
X766261Y543069D02*
G03*
X766262Y543068I152J126D01*
G01*
X909190Y417499D02*
G03*
X908997Y417264I0J-197D01*
G01*
X909190Y417499D02*
G03*
X908997Y417263I0J-197D01*
G01*
X886160Y416536D02*
G03*
X886178Y416513I164J109D01*
G01*
X887333Y415221D02*
G03*
X887337Y415217I147J131D01*
G01*
X887333Y415221D02*
G03*
X887337Y415217I147J131D01*
G01*
X886161Y416535D02*
G03*
X886178Y416513I164J109D01*
G01*
X886160Y416536D02*
G03*
X886161Y416535I164J108D01*
G01*
X855854Y409288D02*
G03*
X855853Y409287I117J-159D01*
G01*
X869567Y398776D02*
G03*
X869534Y398741I126J-151D01*
G01*
X869567Y398776D02*
G03*
X869534Y398741I126J-152D01*
G01*
X868149Y396851D02*
G03*
X868133Y396826I159J-116D01*
G01*
X868149Y396851D02*
G03*
X868133Y396826I159J-116D01*
G01*
X866970Y394599D02*
G03*
X866961Y394579I175J-91D01*
G01*
X866970Y394599D02*
G03*
X866961Y394579I175J-91D01*
G01*
X869778Y377741D02*
G03*
X869782Y377732I181J78D01*
G01*
X869778Y377742D02*
G03*
X869778Y377741I181J77D01*
G01*
X869782Y377732D02*
G03*
X869782Y377731I177J86D01*
G01*
X869778Y377741D02*
G03*
X869782Y377732I181J77D01*
G01*
X931984Y301412D02*
G03*
X932370Y301410I193J38D01*
G01*
X931983Y301413D02*
G03*
X932370Y301410I193J37D01*
G01*
X868473Y335554D02*
G03*
X868474Y335557I-187J61D01*
G01*
X868473Y335554D02*
G03*
X868474Y335555I-187J61D01*
G01*
X865204Y325566D02*
G03*
X865206Y325573I-185J68D01*
G01*
X865203Y325565D02*
G03*
X865206Y325573I-184J69D01*
G01*
X862362Y317823D02*
G03*
X862366Y317833I-181J77D01*
G01*
X862362Y317823D02*
G03*
X862366Y317832I-181J77D01*
G01*
X854747Y384187D02*
G03*
X854746Y384184I192J-42D01*
G01*
X854747Y384187D02*
G03*
X854746Y384184I192J-42D01*
G01*
X859647Y311378D02*
G03*
X859651Y311388I-177J87D01*
G01*
X859647Y311378D02*
G03*
X859651Y311388I-177J87D01*
G01*
X856928Y305824D02*
G03*
X856934Y305836I-171J98D01*
G01*
X856928Y305824D02*
G03*
X856934Y305836I-171J98D01*
G01*
X854135Y300943D02*
G03*
X854142Y300955I-164J110D01*
G01*
X854135Y300943D02*
G03*
X854142Y300955I-164J110D01*
G01*
X844844Y343330D02*
G03*
X844845Y343331I-164J109D01*
G01*
X844844Y343330D02*
G03*
X844845Y343331I-164J109D01*
G01*
X847353Y320872D02*
G03*
X847348Y320863I171J-97D01*
G01*
X851219Y296597D02*
G03*
X851228Y296609I-155J122D01*
G01*
X851219Y296597D02*
G03*
X851228Y296609I-155J122D01*
G01*
X848145Y292699D02*
G03*
X848156Y292711I-144J134D01*
G01*
X847348Y320863D02*
G03*
X847347Y320862I176J-88D01*
G01*
X847353Y320872D02*
G03*
X847348Y320863I171J-97D01*
G01*
X848146Y292699D02*
G03*
X848156Y292711I-145J134D01*
G01*
X848145Y292698D02*
G03*
X848146Y292699I-144J134D01*
G01*
X844968Y316062D02*
G03*
X844964Y316052I177J-87D01*
G01*
X844969Y316062D02*
G03*
X844968Y316062I176J-88D01*
G01*
X844964Y316053D02*
G03*
X844964Y316052I181J-78D01*
G01*
X844969Y316062D02*
G03*
X844964Y316053I177J-88D01*
G01*
X842681Y310707D02*
G03*
X842681Y310706I181J-77D01*
G01*
X842682Y310708D02*
G03*
X842681Y310707I181J-78D01*
G01*
X844892Y289197D02*
G03*
X844893Y289198I-144J134D01*
G01*
X844881Y289186D02*
G03*
X844892Y289197I-132J146D01*
G01*
X844881Y289186D02*
G03*
X844893Y289197I-132J146D01*
G01*
X842681Y310708D02*
G03*
X842681Y310706I181J-77D01*
G01*
X828398Y389085D02*
G03*
X828394Y389082I115J-160D01*
G01*
X828397Y389084D02*
G03*
X828394Y389082I117J-159D01*
G01*
X825574Y353433D02*
G03*
X825576Y353456I-196J23D01*
G01*
D02*
G03*
X825576Y353465I-197J0D01*
G01*
X825490Y355607D02*
G03*
X825486Y355641I-197J-7D01*
G01*
X825490Y355608D02*
G03*
X825486Y355642I-197J-8D01*
G01*
X825576Y353456D02*
G03*
X825576Y353464I-197J0D01*
G01*
X822752Y362762D02*
G03*
X822746Y362772I-173J-95D01*
G01*
X822753Y362761D02*
G03*
X822752Y362762I-174J-93D01*
G01*
X822747Y362771D02*
G03*
X822746Y362773I-167J-104D01*
G01*
X822753Y362762D02*
G03*
X822747Y362771I-173J-94D01*
G01*
X825008Y357908D02*
G03*
X824999Y357939I-193J-39D01*
G01*
X825008Y357909D02*
G03*
X824999Y357939I-193J-41D01*
G01*
X824105Y360266D02*
G03*
X824104Y360267I-174J-93D01*
G01*
X824115Y360243D02*
G03*
X824105Y360266I-184J-71D01*
G01*
X824115Y360243D02*
G03*
X824104Y360267I-184J-71D01*
G01*
X825574Y353433D02*
G03*
X825576Y353456I-196J23D01*
G01*
X825305Y351131D02*
G03*
X825309Y351153I-192J45D01*
G01*
X825304Y351130D02*
G03*
X825309Y351153I-192J46D01*
G01*
X827136Y334275D02*
G03*
X827143Y334281I-130J148D01*
G01*
X827136Y334275D02*
G03*
X827142Y334280I-130J148D01*
G01*
X824278Y331777D02*
G03*
X824292Y331788I-115J160D01*
G01*
X824278Y331777D02*
G03*
X824292Y331788I-115J160D01*
G01*
X814120Y378204D02*
G03*
X814117Y378201I119J-157D01*
G01*
X814120Y378204D02*
G03*
X814117Y378201I119J-157D01*
G01*
X802187Y368691D02*
G03*
X802183Y368688I123J-154D01*
G01*
X802187Y368691D02*
G03*
X802183Y368688I123J-154D01*
G01*
X792511Y360550D02*
G03*
X792507Y360546I127J-151D01*
G01*
X792511Y360550D02*
G03*
X792507Y360546I127J-151D01*
G01*
X784415Y353307D02*
G03*
X784410Y353303I131J-147D01*
G01*
X784415Y353307D02*
G03*
X784410Y353303I131J-147D01*
G01*
X777571Y346748D02*
G03*
X777566Y346743I136J-142D01*
G01*
X777571Y346748D02*
G03*
X777566Y346743I136J-142D01*
G01*
X771779Y340749D02*
G03*
X771773Y340743I142J-137D01*
G01*
X820983Y329393D02*
G03*
X820998Y329403I-100J169D01*
G01*
X820983Y329393D02*
G03*
X820998Y329403I-100J169D01*
G01*
X817340Y327235D02*
G03*
X817358Y327245I-82J179D01*
G01*
X817338Y327235D02*
G03*
X817358Y327245I-81J180D01*
G01*
X771779Y340749D02*
G03*
X771773Y340743I142J-137D01*
G01*
X766897Y335229D02*
G03*
X766891Y335222I148J-131D01*
G01*
X766891Y335223D02*
G03*
X766890Y335221I153J-124D01*
G01*
X766897Y335229D02*
G03*
X766891Y335223I148J-131D01*
G01*
X762815Y330130D02*
G03*
X762809Y330122I154J-122D01*
G01*
X762816Y330131D02*
G03*
X762815Y330130I153J-124D01*
G01*
X762815Y330130D02*
G03*
X762809Y330122I154J-123D01*
G01*
X759445Y325408D02*
G03*
X759438Y325398I160J-114D01*
G01*
X759439Y325399D02*
G03*
X759438Y325397I166J-105D01*
G01*
X759445Y325408D02*
G03*
X759439Y325399I160J-114D01*
G01*
X756709Y321025D02*
G03*
X756703Y321014I168J-103D01*
G01*
X756711Y321027D02*
G03*
X756709Y321025I166J-105D01*
G01*
X756710Y321026D02*
G03*
X756703Y321014I167J-104D01*
G01*
X841397Y286017D02*
G03*
X841410Y286027I-120J156D01*
G01*
X841397Y286017D02*
G03*
X841410Y286027I-120J156D01*
G01*
X838051Y283437D02*
G03*
X838064Y283446I-108J165D01*
G01*
X838051Y283437D02*
G03*
X838064Y283446I-108J165D01*
G01*
X834487Y281104D02*
G03*
X834500Y281112I-95J172D01*
G01*
X834487Y281104D02*
G03*
X834500Y281112I-95J172D01*
G01*
X830687Y279013D02*
G03*
X830700Y279019I-82J179D01*
G01*
X830688Y279013D02*
G03*
X830700Y279019I-83J179D01*
G01*
X830686Y279012D02*
G03*
X830688Y279013I-81J180D01*
G01*
X825040Y296462D02*
G03*
X825044Y296465I-127J150D01*
G01*
X825040Y296462D02*
G03*
X825044Y296465I-127J150D01*
G01*
X821267Y293261D02*
G03*
X821279Y293270I-115J160D01*
G01*
X821268Y293261D02*
G03*
X821279Y293270I-116J159D01*
G01*
X821266Y293260D02*
G03*
X821268Y293261I-114J160D01*
G01*
X826651Y277171D02*
G03*
X826652Y277172I-81J180D01*
G01*
X826638Y277166D02*
G03*
X826651Y277171I-68J185D01*
G01*
X826637Y277166D02*
G03*
X826651Y277171I-67J185D01*
G01*
X822332Y275571D02*
G03*
X822346Y275576I-55J189D01*
G01*
X822332Y275571D02*
G03*
X822345Y275576I-56J189D01*
G01*
X822331Y275571D02*
G03*
X822332Y275571I-55J189D01*
G01*
X817782Y274244D02*
G03*
X817783Y274244I-55J189D01*
G01*
X817769Y274241D02*
G03*
X817782Y274244I-42J192D01*
G01*
X817770Y274241D02*
G03*
X817782Y274244I-43J192D01*
G01*
X817768Y274241D02*
G03*
X817770Y274241I-41J193D01*
G01*
X812976Y273192D02*
G03*
X812977Y273193I-41J193D01*
G01*
X812964Y273190D02*
G03*
X812976Y273192I-29J195D01*
G01*
X812962Y273190D02*
G03*
X812977Y273193I-28J195D01*
G01*
X807944Y272436D02*
G03*
X807958Y272438I-17J196D01*
G01*
X754544Y316952D02*
G03*
X754537Y316938I174J-93D01*
G01*
X754537Y316939D02*
G03*
X754537Y316938I180J-79D01*
G01*
X754544Y316952D02*
G03*
X754537Y316939I174J-93D01*
G01*
X752887Y313158D02*
G03*
X752882Y313143I181J-78D01*
G01*
X752888Y313160D02*
G03*
X752887Y313158I180J-79D01*
G01*
X752888Y313159D02*
G03*
X752881Y313142I181J-79D01*
G01*
X797527Y300628D02*
G03*
X797527Y300630I-196J15D01*
G01*
X797526Y300621D02*
G03*
X797527Y300628I-196J23D01*
G01*
X797526Y300622D02*
G03*
X797527Y300629I-196J22D01*
G01*
X797526Y300621D02*
G03*
X797526Y300622I-196J23D01*
G01*
X797252Y298263D02*
G03*
X797257Y298292I-190J52D01*
G01*
X797252Y298263D02*
G03*
X797257Y298292I-190J52D01*
G01*
X751692Y309622D02*
G03*
X751686Y309603I186J-64D01*
G01*
X751691Y309621D02*
G03*
X751686Y309603I187J-63D01*
G01*
X750910Y306312D02*
G03*
X750906Y306293I192J-45D01*
G01*
X750906Y306293D02*
G03*
X750906Y306292I195J-26D01*
G01*
X750910Y306312D02*
G03*
X750906Y306293I192J-45D01*
G01*
X750506Y303210D02*
G03*
X750504Y303189I195J-25D01*
G01*
X750506Y303211D02*
G03*
X750506Y303210I195J-26D01*
G01*
X750719Y297537D02*
G03*
X750723Y297514I196J19D01*
G01*
X750506Y303210D02*
G03*
X750504Y303187I195J-25D01*
G01*
X750450Y300292D02*
G03*
X750451Y300269I197J-4D01*
G01*
X750450Y300294D02*
G03*
X750451Y300269I197J-5D01*
G01*
X796606Y295887D02*
G03*
X796616Y295915I-180J80D01*
G01*
X796606Y295887D02*
G03*
X796616Y295915I-180J80D01*
G01*
X795550Y293504D02*
G03*
X795562Y293526I-169J102D01*
G01*
X795549Y293503D02*
G03*
X795562Y293526I-168J103D01*
G01*
X793960Y290868D02*
G03*
X793969Y290882I-160J116D01*
G01*
X793959Y290866D02*
G03*
X793969Y290881I-159J117D01*
G01*
X757608Y284700D02*
G03*
X757624Y284684I144J134D01*
G01*
X757607Y284701D02*
G03*
X757608Y284700I146J132D01*
G01*
X757624Y284685D02*
G03*
X757624Y284684I129J149D01*
G01*
X757607Y284700D02*
G03*
X757624Y284685I145J133D01*
G01*
X752307Y292149D02*
G03*
X752308Y292148I175J91D01*
G01*
X752297Y292173D02*
G03*
X752307Y292149I185J67D01*
G01*
X752296Y292174D02*
G03*
X752308Y292149I186J66D01*
G01*
X750719Y297537D02*
G03*
X750723Y297514I196J19D01*
G01*
X751298Y294925D02*
G03*
X751305Y294900I192J43D01*
G01*
X751298Y294925D02*
G03*
X751305Y294901I192J43D01*
G01*
X755436Y287069D02*
G03*
X755451Y287050I161J114D01*
G01*
X755451Y287051D02*
G03*
X755452Y287049I146J132D01*
G01*
X755436Y287069D02*
G03*
X755451Y287051I161J114D01*
G01*
X753673Y289557D02*
G03*
X753686Y289536I174J93D01*
G01*
X753672Y289559D02*
G03*
X753673Y289557I175J91D01*
G01*
X753672Y289558D02*
G03*
X753686Y289536I174J92D01*
G01*
X807944Y272436D02*
G03*
X807957Y272438I-17J196D01*
G01*
X802760Y271995D02*
G03*
X802772Y271996I-4J197D01*
G01*
X802760Y271995D02*
G03*
X802772Y271996I-4J197D01*
G01*
X797481Y271877D02*
G03*
X797494Y271877I8J197D01*
G01*
X791619Y272126D02*
G03*
X791632Y272125I22J196D01*
G01*
X797480Y271877D02*
G03*
X797494Y271877I10J197D01*
G01*
X791619Y272126D02*
G03*
X791633Y272125I22J196D01*
G01*
X785900Y272761D02*
G03*
X785914Y272759I35J194D01*
G01*
X785900Y272761D02*
G03*
X785914Y272759I35J194D01*
G01*
X780471Y273750D02*
G03*
X780485Y273747I49J191D01*
G01*
X780471Y273750D02*
G03*
X780485Y273747I49J191D01*
G01*
X763297Y280332D02*
G03*
X763298Y280331I96J172D01*
G01*
X763280Y280342D02*
G03*
X763297Y280332I112J162D01*
G01*
X760213Y282454D02*
G03*
X760230Y282441I128J149D01*
G01*
X760213Y282455D02*
G03*
X760213Y282454I129J149D01*
G01*
X763280Y280342D02*
G03*
X763297Y280331I112J162D01*
G01*
X760213Y282454D02*
G03*
X760230Y282441I129J149D01*
G01*
X775444Y275047D02*
G03*
X775460Y275042I65J186D01*
G01*
X775446Y275046D02*
G03*
X775460Y275042I64J186D01*
G01*
X766850Y278375D02*
G03*
X766852Y278374I80J180D01*
G01*
X766835Y278382D02*
G03*
X766850Y278375I95J172D01*
G01*
X766835Y278382D02*
G03*
X766851Y278375I94J173D01*
G01*
X766834Y278383D02*
G03*
X766835Y278382I96J172D01*
G01*
X770891Y276605D02*
G03*
X770906Y276599I78J181D01*
G01*
X770889Y276606D02*
G03*
X770891Y276605I80J180D01*
G01*
X770890Y276605D02*
G03*
X770907Y276599I79J180D01*
G01*
X1118769Y618497D02*
X1118769Y618496D01*
X1119907Y614168D01*
X1119908Y614167D01*
X1117372Y622554D02*
X1118765Y618511D01*
X1115749Y626282D02*
X1117366Y622569D01*
X1120848Y609057D02*
X1120848Y609056D01*
X1121410Y603780D01*
X1121410Y603779D01*
X1119911Y614152D02*
X1120846Y609071D01*
X1109830Y635267D02*
X1111939Y632663D01*
X1111950Y632648D02*
X1113923Y629667D01*
X1107595Y637516D02*
X1109817Y635282D01*
X1113932Y629651D02*
X1115742Y626297D01*
X1121411Y603764D02*
X1121585Y598361D01*
X1110056Y598825D02*
X1110273Y598382D01*
X1110510Y597697D01*
X1110703Y596813D01*
X1108410Y600122D02*
X1108848Y599979D01*
X1107865Y600189D02*
X1108410Y600122D01*
X1109805Y599208D02*
X1110056Y598825D01*
X1108848Y599979D02*
X1109201Y599785D01*
X1109520Y599528D02*
X1109805Y599208D01*
X1109201Y599785D02*
X1109520Y599528D01*
X1100297Y642173D02*
X1100299Y642172D01*
X1097721Y643054D02*
X1100297Y642173D01*
X1097720Y643055D02*
X1097721Y643054D01*
X1095026Y643631D02*
X1097697Y643061D01*
X1102833Y640951D02*
X1105241Y639419D01*
X1105259Y639406D02*
X1107579Y637531D01*
X1100320Y642164D02*
X1102813Y640962D01*
X1091914Y643901D02*
X1095002Y643634D01*
X1088657Y643775D02*
X1091889Y643902D01*
X1085237Y643232D02*
X1088634Y643772D01*
X1081631Y642246D02*
X1085216Y643228D01*
X1107258Y600154D02*
X1107865Y600189D01*
X1106491Y599987D02*
X1107258Y600154D01*
X1105656Y599683D02*
X1106491Y599987D01*
X1103789Y598670D02*
X1105656Y599683D01*
X1080435Y600376D02*
X1081708Y598893D01*
X1078772Y601778D02*
X1080435Y600376D01*
X1101518Y596978D02*
X1103789Y598670D01*
X1081708Y598893D02*
X1082539Y597484D01*
X1110815Y593137D02*
X1110842Y595463D01*
X1121363Y592874D02*
X1121585Y598347D01*
X1120741Y587365D02*
X1121362Y592860D01*
X1119720Y581868D02*
X1120739Y587351D01*
X1110703Y596813D02*
X1110842Y595463D01*
X1098950Y594589D02*
X1101518Y596978D01*
X1096292Y591637D02*
X1098950Y594589D01*
X1110410Y589732D02*
X1110815Y593137D01*
X1093534Y588007D02*
X1096292Y591637D01*
X1109531Y585586D02*
X1110410Y589732D01*
X1091230Y584370D02*
X1093534Y588007D01*
X1108356Y581631D02*
X1109531Y585586D01*
X1106982Y578138D02*
X1108356Y581631D01*
X1119716Y581853D02*
X1119717Y581854D01*
X1118301Y576413D02*
X1119716Y581853D01*
X1118301Y576411D02*
X1118301Y576413D01*
X1118297Y576398D02*
X1118297Y576399D01*
X1118296Y576397D02*
X1118297Y576398D01*
X1116485Y571017D02*
X1118296Y576397D01*
X1116484Y571016D02*
X1116485Y571017D01*
X1116484Y571015D02*
X1116484Y571016D01*
X1089505Y580999D02*
X1091230Y584370D01*
X1088366Y578040D02*
X1089505Y580999D01*
X1105551Y575393D02*
X1106982Y578138D01*
X1087818Y575896D02*
X1088366Y578040D01*
X1104073Y573258D02*
X1105551Y575393D01*
X1087602Y574163D02*
X1087818Y575896D01*
X1082539Y597484D02*
X1083012Y596181D01*
X1083202Y594133D02*
X1083204Y594994D01*
X1083012Y596181D02*
X1083204Y594994D01*
X1083078Y593276D02*
X1083202Y594133D01*
X1082679Y592035D02*
X1083078Y593276D01*
X1082028Y590820D02*
X1082679Y592035D01*
X1081131Y589637D02*
X1082028Y590820D01*
X1080005Y588496D02*
X1081131Y589637D01*
X1081386Y580127D02*
X1081547Y579740D01*
X1081708Y579111D01*
X1081839Y577973D01*
X1081523Y572648D02*
X1081839Y577973D01*
X1079749Y580979D02*
X1080207Y580978D01*
X1080502Y580920D01*
X1081189Y580443D02*
X1081386Y580127D01*
X1081056Y580593D02*
X1081189Y580443D01*
X1079029Y580847D02*
X1079749Y580979D01*
X1080694Y580847D02*
X1080911Y580718D01*
X1081056Y580593D01*
X1080502Y580920D02*
X1080694Y580847D01*
X1077815Y640778D02*
X1081612Y642240D01*
X1077797Y640770D02*
X1077798Y640771D01*
X1073765Y638781D02*
X1077797Y640770D01*
X1073764Y638781D02*
X1073765Y638781D01*
X1069450Y636198D02*
X1073750Y638773D01*
X1069437Y636190D02*
X1069438Y636191D01*
X1064844Y632965D02*
X1069437Y636190D01*
X1064843Y632965D02*
X1064844Y632965D01*
X1064832Y632956D02*
X1064833Y632957D01*
X1059907Y629003D02*
X1064832Y632956D01*
X1059906Y629002D02*
X1059907Y629003D01*
X1063349Y617323D02*
X1063612Y617161D01*
X1063803Y616984D01*
X1063956Y616778D02*
X1064071Y616546D01*
X1064149Y616290D01*
X1063803Y616984D02*
X1063956Y616778D01*
X1069116Y605157D02*
X1071703Y604828D01*
X1066631Y605097D02*
X1069116Y605157D01*
X1064299Y604667D02*
X1066631Y605097D01*
X1064190Y616011D02*
X1064192Y615715D01*
X1064158Y615407D02*
X1064192Y615715D01*
X1064149Y616290D02*
X1064190Y616011D01*
X1064055Y614979D02*
X1064158Y615407D01*
X1063864Y614492D02*
X1064055Y614979D01*
X1063599Y614012D02*
X1063864Y614492D01*
X1062720Y617510D02*
X1062989Y617456D01*
X1063349Y617323D01*
X1062422Y617538D02*
X1062720Y617510D01*
X1061647Y617494D02*
X1062422Y617538D01*
X1060259Y617142D02*
X1061647Y617494D01*
X1059898Y628995D02*
X1059898Y628995D01*
X1059897Y628994D02*
X1059898Y628995D01*
X1054596Y624219D02*
X1059897Y628994D01*
X1054595Y624218D02*
X1054596Y624219D01*
X1054595Y624218D02*
X1054595Y624218D01*
X1048852Y618502D02*
X1054588Y624212D01*
X1058275Y616247D02*
X1060259Y617142D01*
X1055897Y614753D02*
X1058275Y616247D01*
X1048846Y618495D02*
X1048847Y618496D01*
X1048846Y618495D02*
X1048846Y618495D01*
X1042597Y611707D02*
X1048846Y618495D01*
X1042597Y611707D02*
X1042597Y611707D01*
X1042597Y611706D02*
X1042597Y611707D01*
X1063266Y613551D02*
X1063599Y614012D01*
X1062723Y612973D02*
X1063266Y613551D01*
X1061995Y612391D02*
X1062723Y612973D01*
X1060850Y611713D02*
X1061995Y612391D01*
X1056752Y609697D02*
X1060850Y611713D01*
X1056752Y609697D02*
X1056752Y609697D01*
X1056751Y609696D02*
X1056752Y609697D01*
X1053271Y612674D02*
X1055897Y614753D01*
X1056726Y609682D02*
X1056727Y609682D01*
X1056725Y609681D02*
X1056726Y609682D01*
X1054612Y608212D02*
X1056725Y609681D01*
X1054611Y608211D02*
X1054612Y608212D01*
X1054611Y608211D02*
X1054611Y608211D01*
X1050602Y610123D02*
X1053271Y612674D01*
X1052361Y606146D02*
X1054591Y608194D01*
X1048113Y607293D02*
X1050602Y610123D01*
X1071703Y604828D02*
X1074303Y604106D01*
X1062130Y603878D02*
X1064299Y604667D01*
X1078178Y587051D02*
X1080005Y588496D01*
X1076781Y603016D02*
X1078772Y601778D01*
X1075517Y585419D02*
X1078178Y587051D01*
X1074303Y604106D02*
X1076781Y603016D01*
X1060314Y602857D02*
X1062130Y603878D01*
X1058607Y601511D02*
X1060314Y602857D01*
X1056994Y599789D02*
X1058607Y601511D01*
X1055463Y597607D02*
X1056994Y599789D01*
X1054000Y594825D02*
X1055463Y597607D01*
X1052750Y591674D02*
X1054000Y594825D01*
X1051627Y587926D02*
X1052750Y591674D01*
X1072117Y583783D02*
X1075517Y585419D01*
X1067942Y582189D02*
X1072117Y583783D01*
X1077470Y580278D02*
X1079029Y580847D01*
X1067282Y575057D02*
X1077470Y580278D01*
X1067100Y574902D02*
X1067282Y575057D01*
X1063109Y580727D02*
X1067942Y582189D01*
X1058181Y579603D02*
X1063109Y580727D01*
X1054749Y579137D02*
X1058181Y579603D01*
X1052928Y579150D02*
X1054749Y579137D01*
X1052289Y579265D02*
X1052928Y579150D01*
X1052347Y606132D02*
X1052348Y606133D01*
X1052347Y606131D02*
X1052347Y606132D01*
X1049804Y603287D02*
X1052347Y606131D01*
X1049803Y603286D02*
X1049804Y603287D01*
X1049803Y603285D02*
X1049803Y603286D01*
X1045790Y604110D02*
X1048113Y607293D01*
X1044105Y601198D02*
X1045790Y604110D01*
X1045566Y598218D02*
X1049799Y603281D01*
X1044287Y596974D02*
X1045566Y598218D01*
X1043198Y599078D02*
X1044105Y601198D01*
X1043712Y596566D02*
X1044287Y596974D01*
X1043399Y596420D02*
X1043712Y596566D01*
X1043231Y596378D02*
X1043399Y596420D01*
X1043133Y596374D02*
X1043231Y596378D01*
X1043067Y596384D02*
X1043133Y596374D01*
X1042877Y597941D02*
X1043198Y599078D01*
X1051258Y579806D02*
X1051529Y579587D01*
X1050901Y580316D02*
X1051060Y580040D01*
X1051258Y579806D01*
X1051529Y579587D02*
X1051891Y579396D01*
X1052289Y579265D01*
X1050640Y582580D02*
X1051627Y587926D01*
X1050627Y581572D02*
X1050691Y581004D01*
X1050627Y581572D02*
X1050640Y582580D01*
X1050778Y580637D02*
X1050901Y580316D01*
X1050691Y581004D02*
X1050778Y580637D01*
X1102511Y571566D02*
X1104073Y573258D01*
X1100830Y570214D02*
X1102511Y571566D01*
X1116480Y571003D02*
X1116480Y571004D01*
X1116479Y571003D02*
X1116480Y571003D01*
X1114271Y565699D02*
X1116479Y571003D01*
X1114271Y565698D02*
X1114271Y565699D01*
X1114271Y565698D02*
X1114271Y565698D01*
X1098792Y569052D02*
X1100830Y570214D01*
X1089000Y569513D02*
X1089646Y568950D01*
X1096832Y568318D02*
X1098792Y569052D01*
X1087610Y572992D02*
X1087761Y571937D01*
X1087602Y574163D02*
X1087610Y572992D01*
X1087761Y571937D02*
X1088048Y571005D01*
X1088465Y570197D02*
X1089000Y569513D01*
X1088048Y571005D02*
X1088465Y570197D01*
X1094848Y567913D02*
X1096832Y568318D01*
X1091591Y568071D02*
X1092991Y567857D01*
X1094848Y567913D01*
X1114265Y565686D02*
X1114266Y565687D01*
X1114265Y565685D02*
X1114265Y565686D01*
X1111659Y560470D02*
X1114265Y565685D01*
X1111658Y560470D02*
X1111659Y560470D01*
X1111658Y560469D02*
X1111658Y560470D01*
X1090454Y568474D02*
X1091591Y568071D01*
X1089646Y568950D02*
X1090454Y568474D01*
X1081141Y570641D02*
X1081523Y572648D01*
X1080898Y569962D02*
X1081141Y570641D01*
X1080730Y569675D02*
X1080898Y569962D01*
X1080592Y569521D02*
X1080730Y569675D01*
X1080466Y569427D02*
X1080592Y569521D01*
X1080354Y569371D02*
X1080466Y569427D01*
X1080192Y569323D02*
X1080354Y569371D01*
X1080020Y569301D02*
X1080192Y569323D01*
X1068334Y573461D02*
X1079845Y569301D01*
X1080020Y569301D01*
X1082467Y561406D02*
X1082542Y561206D01*
X1082571Y561027D01*
X1082568Y560864D02*
X1082571Y561027D01*
X1082534Y560699D02*
X1082568Y560864D01*
X1082469Y560530D02*
X1082534Y560699D01*
X1082374Y560357D02*
X1082469Y560530D01*
X1076957Y564475D02*
X1079914Y563311D01*
X1072424Y565776D02*
X1076957Y564475D01*
X1082345Y561617D02*
X1082467Y561406D01*
X1082191Y560116D02*
X1082374Y560357D01*
X1079914Y563311D02*
X1081616Y562330D01*
X1082096Y561915D02*
X1082345Y561617D01*
X1081616Y562330D02*
X1082096Y561915D01*
X1108963Y555848D02*
X1111652Y560459D01*
X1108956Y555838D02*
X1108957Y555838D01*
X1108956Y555837D02*
X1108956Y555838D01*
X1105938Y551314D02*
X1108956Y555837D01*
X1105937Y551313D02*
X1105938Y551314D01*
X1105937Y551313D02*
X1105937Y551313D01*
X1094218Y555043D02*
X1094224Y554857D01*
X1094203Y554655D02*
X1094224Y554857D01*
X1094188Y555210D02*
X1094218Y555043D01*
X1093019Y556081D02*
X1093428Y555954D01*
X1093750Y555787D02*
X1093939Y555635D01*
X1093428Y555954D02*
X1093750Y555787D01*
X1094054Y555499D02*
X1094133Y555361D01*
X1094188Y555210D01*
X1093939Y555635D02*
X1094054Y555499D01*
X1105931Y551304D02*
X1105931Y551304D01*
X1105930Y551303D02*
X1105931Y551304D01*
X1102576Y546869D02*
X1105930Y551303D01*
X1102576Y546869D02*
X1102576Y546869D01*
X1102576Y546869D02*
X1102576Y546869D01*
X1102569Y546860D02*
X1102569Y546861D01*
X1102568Y546859D02*
X1102569Y546860D01*
X1098871Y542520D02*
X1102568Y546859D01*
X1098871Y542519D02*
X1098871Y542520D01*
X1098870Y542519D02*
X1098871Y542519D01*
X1098863Y542511D02*
X1098864Y542512D01*
X1098862Y542510D02*
X1098863Y542511D01*
X1094813Y538269D02*
X1098862Y542510D01*
X1094812Y538268D02*
X1094813Y538269D01*
X1094811Y538267D02*
X1094812Y538268D01*
X1094132Y554353D02*
X1094203Y554655D01*
X1093992Y553978D02*
X1094132Y554353D01*
X1093708Y553422D02*
X1093992Y553978D01*
X1090388Y534118D02*
X1094804Y538260D01*
X1093081Y552485D02*
X1093708Y553422D01*
X1090332Y556141D02*
X1092315Y556189D01*
X1093019Y556081D01*
X1087477Y555644D02*
X1090332Y556141D01*
X1088877Y548023D02*
X1093081Y552485D01*
X1083938Y554645D02*
X1087477Y555644D01*
X1081917Y559837D02*
X1082191Y560116D01*
X1081443Y559459D02*
X1081917Y559837D01*
X1077679Y557497D02*
X1081443Y559459D01*
X1072192Y555264D02*
X1077679Y557497D01*
X1072190Y555263D02*
X1072192Y555264D01*
X1079643Y553024D02*
X1083938Y554645D01*
X1075420Y551022D02*
X1079643Y553024D01*
X1084044Y543706D02*
X1088877Y548023D01*
X1084042Y543705D02*
X1084044Y543706D01*
X1085586Y530072D02*
X1090380Y534111D01*
X1080387Y526134D02*
X1085578Y530066D01*
X1080379Y526128D02*
X1080379Y526129D01*
X1080378Y526128D02*
X1080379Y526128D01*
X1074772Y522306D02*
X1080378Y526128D01*
X1074771Y522306D02*
X1074772Y522306D01*
X1074771Y522305D02*
X1074771Y522306D01*
X1084044Y543706D02*
X1084046Y543708D01*
X1072368Y533821D02*
X1084044Y543706D01*
X1071574Y548797D02*
X1075420Y551022D01*
X1068928Y531178D02*
X1072368Y533821D01*
X1068261Y546470D02*
X1071574Y548797D01*
X1068713Y518588D02*
X1074763Y522300D01*
X1067011Y574804D02*
X1067100Y574902D01*
X1066963Y574738D02*
X1067011Y574804D01*
X1066931Y574677D02*
X1066963Y574738D01*
X1066912Y574623D02*
X1066931Y574677D01*
X1066904Y574574D02*
X1066912Y574623D01*
X1066904Y574574D02*
X1066905Y574535D01*
X1066916Y574479D01*
X1067450Y573945D02*
X1068334Y573461D01*
X1067110Y574207D02*
X1067450Y573945D01*
X1066943Y574415D02*
X1067014Y574309D01*
X1066916Y574479D02*
X1066943Y574415D01*
X1067014Y574309D02*
X1067110Y574207D01*
X1067409Y566814D02*
X1072424Y565776D01*
X1062550Y567465D02*
X1067409Y566814D01*
X1072192Y555264D02*
X1072194Y555265D01*
X1063393Y551951D02*
X1072192Y555264D01*
X1065533Y544124D02*
X1068261Y546470D01*
X1058148Y567716D02*
X1062550Y567465D01*
X1058952Y550515D02*
X1063393Y551951D01*
X1054305Y567600D02*
X1058148Y567716D01*
X1051029Y567163D02*
X1054305Y567600D01*
X1055261Y549605D02*
X1058952Y550515D01*
X1052121Y549162D02*
X1055261Y549605D01*
X1048274Y566448D02*
X1051029Y567163D01*
X1046463Y565723D02*
X1048274Y566448D01*
X1049602Y549137D02*
X1052121Y549162D01*
X1047512Y549436D02*
X1049602Y549137D01*
X1044889Y564845D02*
X1046463Y565723D01*
X1043564Y563832D02*
X1044889Y564845D01*
X1042493Y562705D02*
X1043564Y563832D01*
X1042130Y552936D02*
X1043132Y551748D01*
X1044346Y550767D02*
X1045750Y550009D01*
X1047512Y549436D01*
X1043132Y551748D02*
X1044346Y550767D01*
X1050278Y542843D02*
X1050396Y542777D01*
X1050506Y542687D01*
X1050608Y542568D02*
X1050702Y542423D01*
X1050506Y542687D02*
X1050608Y542568D01*
X1049747Y542885D02*
X1049982Y542904D01*
X1050147Y542885D01*
X1050278Y542843D01*
X1049403Y542789D02*
X1049747Y542885D01*
X1048866Y542533D02*
X1049403Y542789D01*
X1063384Y541807D02*
X1065533Y544124D01*
X1061857Y539678D02*
X1063384Y541807D01*
X1061004Y538116D02*
X1061857Y539678D01*
X1066639Y529746D02*
X1068928Y531178D01*
X1060395Y536605D02*
X1061004Y538116D01*
X1060458Y530730D02*
X1060773Y530205D01*
X1060203Y531333D02*
X1060458Y530730D01*
X1060021Y535171D02*
X1060395Y536605D01*
X1059866Y533836D02*
X1060021Y535171D01*
X1059866Y533836D02*
X1059896Y532749D01*
X1060013Y532008D02*
X1060203Y531333D01*
X1059896Y532749D02*
X1060013Y532008D01*
X1064885Y529008D02*
X1066639Y529746D01*
X1063866Y528804D02*
X1064885Y529008D01*
X1062498Y528922D02*
X1063091Y528804D01*
X1063866Y528804D01*
X1068705Y518583D02*
X1068706Y518584D01*
X1062182Y514983D02*
X1068705Y518583D01*
X1062180Y514983D02*
X1062182Y514983D01*
X1061139Y529759D02*
X1061552Y529396D01*
X1062006Y529116D01*
X1060773Y530205D02*
X1061139Y529759D01*
X1062006Y529116D02*
X1062498Y528922D01*
X1055128Y511486D02*
X1062173Y514979D01*
X1052946Y530398D02*
X1052946Y530397D01*
X1053683Y527692D01*
X1052094Y533389D02*
X1052094Y533388D01*
X1052094Y533387D01*
X1052946Y530397D01*
X1052946Y530396D01*
X1053731Y525873D02*
X1053779Y526817D01*
X1053683Y527692D02*
X1053779Y526817D01*
X1053515Y525005D02*
X1053731Y525873D01*
X1050702Y542423D02*
X1050818Y542182D01*
X1050962Y541735D01*
X1048246Y542130D02*
X1048866Y542533D01*
X1050962Y541735D02*
X1052088Y533416D01*
X1046341Y540480D02*
X1048246Y542130D01*
X1043875Y537788D02*
X1046341Y540480D01*
X1041026Y534093D02*
X1043875Y537788D01*
X1053159Y524219D02*
X1053515Y525005D01*
X1052634Y523422D02*
X1053159Y524219D01*
X1051934Y522616D02*
X1052634Y523422D01*
X1050730Y521536D02*
X1051934Y522616D01*
X1049048Y520352D02*
X1050730Y521536D01*
X1046352Y518893D02*
X1049048Y520352D01*
X1043674Y517830D02*
X1046352Y518893D01*
X1055120Y511483D02*
X1055121Y511483D01*
X1055120Y511482D02*
X1055120Y511483D01*
X1047491Y508092D02*
X1055120Y511482D01*
X1047491Y508091D02*
X1047491Y508092D01*
X1047491Y508091D02*
X1047491Y508091D01*
X1047484Y508088D02*
X1047485Y508089D01*
X1047483Y508088D02*
X1047484Y508088D01*
X1039168Y504782D02*
X1047483Y508088D01*
X1039167Y504782D02*
X1039168Y504782D01*
X1041179Y517182D02*
X1043674Y517830D01*
X1042787Y597334D02*
X1042877Y597941D01*
X1042863Y596578D02*
X1042899Y596511D01*
X1042938Y596460D01*
X1042980Y596424D01*
X1042799Y596808D02*
X1042831Y596663D01*
X1042779Y597008D02*
X1042787Y597334D01*
X1042779Y597008D02*
X1042799Y596808D01*
X1042831Y596663D02*
X1042863Y596578D01*
X1043023Y596399D02*
X1043067Y596384D01*
X1042980Y596424D02*
X1043023Y596399D01*
X1042592Y611701D02*
X1042592Y611702D01*
X1042592Y611701D02*
X1042592Y611701D01*
X1035710Y603637D02*
X1042592Y611701D01*
X1035710Y603636D02*
X1035710Y603637D01*
X1035710Y603636D02*
X1035710Y603636D01*
X1042022Y587713D02*
X1042023Y585937D01*
X1041627Y589434D02*
X1041754Y589126D01*
X1041892Y588632D02*
X1042022Y587713D01*
X1041718Y583396D02*
X1042023Y585937D01*
X1041675Y561486D02*
X1042493Y562705D01*
X1041754Y589126D02*
X1041892Y588632D01*
X1040849Y579446D02*
X1041718Y583396D01*
X1041105Y560204D02*
X1041675Y561486D01*
X1040531Y590320D02*
X1040764Y590269D01*
X1040225Y590327D02*
X1040531Y590320D01*
X1041323Y589901D02*
X1041483Y589692D01*
X1041627Y589434D01*
X1040963Y590186D02*
X1041150Y590064D01*
X1041323Y589901D01*
X1040764Y590269D02*
X1040963Y590186D01*
X1039772Y590247D02*
X1040225Y590327D01*
X1039082Y589978D02*
X1039772Y590247D01*
X1038343Y589545D02*
X1039082Y589978D01*
X1036681Y588200D02*
X1038343Y589545D01*
X1039355Y574597D02*
X1040849Y579446D01*
X1037561Y569958D02*
X1039355Y574597D01*
X1040775Y558885D02*
X1041105Y560204D01*
X1034970Y586452D02*
X1036681Y588200D01*
X1032004Y582913D02*
X1034970Y586452D01*
X1035577Y565727D02*
X1037561Y569958D01*
X1033643Y562355D02*
X1035577Y565727D01*
X1031908Y559957D02*
X1033643Y562355D01*
X1030424Y558423D02*
X1031908Y559957D01*
X1040872Y555811D02*
X1041367Y554303D01*
X1040674Y557411D02*
X1040872Y555811D01*
X1040674Y557411D02*
X1040775Y558885D01*
X1041367Y554303D02*
X1042130Y552936D01*
X1033573Y548617D02*
X1036526Y546743D01*
X1037969Y545617D01*
X1038471Y545077D02*
X1038653Y544789D01*
X1037969Y545617D02*
X1038471Y545077D01*
X1038729Y544596D02*
X1038756Y544449D01*
X1038754Y544335D02*
X1038756Y544449D01*
X1038653Y544789D02*
X1038729Y544596D01*
X1038733Y544226D02*
X1038754Y544335D01*
X1038681Y544098D02*
X1038733Y544226D01*
X1038597Y543965D02*
X1038681Y544098D01*
X1038596Y530371D02*
X1041026Y534093D01*
X1038479Y543829D02*
X1038597Y543965D01*
X1038258Y543637D02*
X1038479Y543829D01*
X1037943Y543426D02*
X1038258Y543637D01*
X1036813Y527055D02*
X1038596Y530371D01*
X1035849Y524777D02*
X1036813Y527055D01*
X1029414Y557694D02*
X1030424Y558423D01*
X1029331Y529169D02*
X1029395Y529123D01*
X1029173Y529243D02*
X1029331Y529169D01*
X1029420Y529097D02*
X1029429Y529081D01*
X1029432Y529073D01*
X1029433Y529066D01*
X1029395Y529123D02*
X1029420Y529097D01*
X1029433Y529051D02*
X1029433Y529066D01*
X1029427Y529025D02*
X1029433Y529051D01*
X1029411Y528986D02*
X1029427Y529025D01*
X1035275Y522904D02*
X1035849Y524777D01*
X1035042Y521630D02*
X1035275Y522904D01*
X1034984Y520609D02*
X1035042Y521630D01*
X1034984Y520609D02*
X1035037Y519923D01*
X1035384Y518763D02*
X1035677Y518293D01*
X1035170Y519306D02*
X1035384Y518763D01*
X1035037Y519923D02*
X1035170Y519306D01*
X1029382Y528937D02*
X1029411Y528986D01*
X1029319Y528855D02*
X1029382Y528937D01*
X1029183Y528719D02*
X1029319Y528855D01*
X1035706Y603631D02*
X1035707Y603632D01*
X1035705Y603630D02*
X1035706Y603631D01*
X1027999Y593991D02*
X1035705Y603630D01*
X1027998Y593990D02*
X1027999Y593991D01*
X1027997Y593989D02*
X1027998Y593990D01*
X1028152Y577798D02*
X1032004Y582913D01*
X1026437Y575132D02*
X1028152Y577798D01*
X1025585Y558402D02*
X1025962Y557967D01*
X1025241Y572725D02*
X1026437Y575132D01*
X1025962Y557967D02*
X1026263Y557701D01*
X1025200Y558986D02*
X1025585Y558402D01*
X1019103Y582243D02*
X1027995Y593986D01*
X1024409Y570262D02*
X1025241Y572725D01*
X1023995Y562843D02*
X1024358Y561091D01*
X1023926Y567635D02*
X1024409Y570262D01*
X1024756Y559906D02*
X1025200Y558986D01*
X1024358Y561091D02*
X1024756Y559906D01*
X1028706Y557358D02*
X1029414Y557694D01*
X1028154Y557211D02*
X1028706Y557358D01*
X1027264Y557224D02*
X1027672Y557176D01*
X1028154Y557211D01*
X1028262Y551576D02*
X1033573Y548617D01*
X1026581Y557487D02*
X1026915Y557327D01*
X1026263Y557701D02*
X1026581Y557487D01*
X1026915Y557327D02*
X1027264Y557224D01*
X1024541Y539259D02*
X1037943Y543426D01*
X1024012Y553640D02*
X1028262Y551576D01*
X1023815Y564923D02*
X1023926Y567635D01*
X1023815Y564923D02*
X1023995Y562843D01*
X1018599Y555510D02*
X1020804Y554902D01*
X1008208Y567239D02*
X1019101Y582240D01*
X1016635Y555756D02*
X1018599Y555510D01*
X1015633Y555718D02*
X1016635Y555756D01*
X1014710Y555548D02*
X1015633Y555718D01*
X1013777Y555207D02*
X1014710Y555548D01*
X1012854Y554661D02*
X1013777Y555207D01*
X1020804Y554902D02*
X1024012Y553640D01*
X1011720Y553649D02*
X1012854Y554661D01*
X1010316Y551848D02*
X1011720Y553649D01*
X1007665Y547387D02*
X1010316Y551848D01*
X1007664Y547385D02*
X1007665Y547387D01*
X1001527Y537116D02*
X1007664Y547385D01*
X1001179Y536320D02*
X1001527Y537116D01*
X946040Y539435D02*
X946041Y539434D01*
X943771Y541181D02*
X946040Y539435D01*
X943769Y541182D02*
X943771Y541181D01*
X943744Y541199D02*
X943746Y541198D01*
X941245Y542597D02*
X943744Y541199D01*
X941244Y542598D02*
X941245Y542597D01*
X938540Y543631D02*
X941218Y542610D01*
X946063Y539415D02*
X948057Y537355D01*
X1011979Y536035D02*
X1024541Y539259D01*
X1006966Y534961D02*
X1011979Y536035D01*
X1001474Y534747D02*
X1001770Y534633D01*
X1003770Y534524D02*
X1006966Y534961D01*
X1002298Y534532D02*
X1003770Y534524D01*
X1001770Y534633D02*
X1002298Y534532D01*
X1001071Y535154D02*
X1001132Y535037D01*
X1001214Y534934D01*
X1001049Y535868D02*
X1001179Y536320D01*
X1001214Y534934D02*
X1001308Y534851D01*
X1001030Y535287D02*
X1001071Y535154D01*
X1001308Y534851D02*
X1001474Y534747D01*
X975265Y521132D02*
X1008208Y567238D01*
X975263Y521130D02*
X975265Y521132D01*
X1021118Y530008D02*
X1025733Y529702D01*
X1015533Y530182D02*
X1021118Y530008D01*
X1028592Y529394D02*
X1029173Y529243D01*
X1020138Y523937D02*
X1029183Y528719D01*
X1025733Y529702D02*
X1028592Y529394D01*
X1011327Y530025D02*
X1015533Y530182D01*
X1007555Y529561D02*
X1011327Y530025D01*
X1012803Y520603D02*
X1020138Y523937D01*
X1004078Y528781D02*
X1007555Y529561D01*
X1005548Y517616D02*
X1012803Y520603D01*
X1000838Y527676D02*
X1004078Y528781D01*
X1001012Y535609D02*
X1001049Y535868D01*
X1001010Y535439D02*
X1001030Y535287D01*
X1001010Y535439D02*
X1001012Y535609D01*
X997831Y526251D02*
X1000838Y527676D01*
X952568Y526826D02*
X952684Y523962D01*
X949763Y534981D02*
X951081Y532436D01*
X951092Y532409D02*
X952026Y529699D01*
X948074Y537334D02*
X948075Y537333D01*
X948075Y537332D01*
X949748Y535007D01*
X949748Y535006D01*
X949749Y535005D01*
X952034Y529672D02*
X952564Y526855D01*
X995107Y524539D02*
X997831Y526251D01*
X992776Y522633D02*
X995107Y524539D01*
X991266Y521059D02*
X992776Y522633D01*
X990206Y519655D02*
X991266Y521059D01*
X989617Y518637D02*
X990206Y519655D01*
X952381Y521082D02*
X952683Y523933D01*
X989256Y517780D02*
X989617Y518637D01*
X975265Y521132D02*
X975266Y521134D01*
X965466Y508073D02*
X975265Y521132D01*
X965464Y508072D02*
X965466Y508073D01*
X951664Y518278D02*
X952376Y521054D01*
X1037072Y517297D02*
X1037880Y517080D01*
X1036498Y517570D02*
X1037072Y517297D01*
X1039138Y516978D02*
X1041179Y517182D01*
X1037880Y517080D02*
X1039138Y516978D01*
X1036048Y517896D02*
X1036498Y517570D01*
X1035677Y518293D02*
X1036048Y517896D01*
X1021436Y516738D02*
X1022840Y516524D01*
X1024992Y515567D02*
X1025669Y514984D01*
X1022840Y516524D02*
X1024106Y516080D01*
X1024992Y515567D01*
X1026517Y513411D02*
X1026560Y512939D01*
X1026370Y513918D02*
X1026517Y513411D01*
X1026512Y512452D02*
X1026560Y512939D01*
X1026367Y511951D02*
X1026512Y512452D01*
X1026091Y514452D02*
X1026370Y513918D01*
X1025669Y514984D02*
X1026091Y514452D01*
X1026118Y511440D02*
X1026367Y511951D01*
X1025758Y510922D02*
X1026118Y511440D01*
X1025284Y510405D02*
X1025758Y510922D01*
X1024466Y509720D02*
X1025284Y510405D01*
X1023297Y508974D02*
X1024466Y509720D01*
X1019938Y516713D02*
X1021436Y516738D01*
X1017867Y516331D02*
X1019938Y516713D01*
X1015531Y515527D02*
X1017867Y516331D01*
X1000472Y515836D02*
X1005548Y517616D01*
X996399Y514738D02*
X1000472Y515836D01*
X989093Y517181D02*
X989256Y517780D01*
X989028Y516686D02*
X989093Y517181D01*
X989028Y516686D02*
X989030Y516344D01*
X989074Y516025D02*
X989161Y515732D01*
X989030Y516344D02*
X989074Y516025D01*
X989161Y515732D02*
X989290Y515464D01*
X993562Y514297D02*
X996399Y514738D01*
X991633Y514302D02*
X993562Y514297D01*
X990660Y514496D02*
X991633Y514302D01*
X1012718Y514213D02*
X1015531Y515527D01*
X989463Y515222D02*
X989710Y514981D01*
X989290Y515464D02*
X989463Y515222D01*
X990088Y514731D02*
X990660Y514496D01*
X989710Y514981D02*
X990088Y514731D01*
X1021339Y508044D02*
X1023297Y508974D01*
X1018297Y507019D02*
X1021339Y508044D01*
X1014387Y506118D02*
X1018297Y507019D01*
X999036Y506231D02*
X1012718Y514213D01*
X998971Y506140D02*
X999036Y506231D01*
X1009726Y505430D02*
X1014387Y506118D01*
X998919Y506047D02*
X998971Y506140D01*
X998896Y505988D02*
X998919Y506047D01*
X998883Y505936D02*
X998896Y505988D01*
X998891Y505816D02*
X998911Y505775D01*
X998883Y505846D02*
X998891Y505816D01*
X998911Y505775D02*
X998951Y505721D01*
X998879Y505891D02*
X998883Y505936D01*
X998879Y505891D02*
X998883Y505846D01*
X1004893Y505079D02*
X1009726Y505430D01*
X1001419Y505122D02*
X1004893Y505079D01*
X1039161Y504779D02*
X1039161Y504779D01*
X1039160Y504779D02*
X1039161Y504779D01*
X1029966Y501518D02*
X1039160Y504779D01*
X1029965Y501518D02*
X1029966Y501518D01*
X1029964Y501518D02*
X1029965Y501518D01*
X1029959Y501516D02*
X1029959Y501516D01*
X1029958Y501516D02*
X1029959Y501516D01*
X1019424Y498194D02*
X1029958Y501516D01*
X1019423Y498194D02*
X1019424Y498194D01*
X1019422Y498193D02*
X1019423Y498194D01*
X999029Y505650D02*
X999191Y505552D01*
X998951Y505721D02*
X999029Y505650D01*
X999191Y505552D02*
X999665Y505380D01*
X1001419Y505122D01*
X985575Y489223D02*
X1019414Y498191D01*
X985574Y489223D02*
X985575Y489223D01*
X988182Y505904D02*
X988487Y505032D01*
X988609Y504209D01*
X984442Y508799D02*
X985433Y508481D01*
X983238Y508961D02*
X984442Y508799D01*
X987084Y507416D02*
X987710Y506705D01*
X988182Y505904D01*
X985433Y508481D02*
X986319Y508015D01*
X987084Y507416D01*
X988590Y503451D02*
X988609Y504209D01*
X988445Y502685D02*
X988590Y503451D01*
X988172Y501924D02*
X988445Y502685D01*
X987769Y501176D02*
X988172Y501924D01*
X987238Y500452D02*
X987769Y501176D01*
X986581Y499760D02*
X987238Y500452D01*
X985515Y498896D02*
X986581Y499760D01*
X984087Y498019D02*
X985515Y498896D01*
X981871Y497013D02*
X984087Y498019D01*
X981800Y508892D02*
X983238Y508961D01*
X980838Y508706D02*
X981800Y508892D01*
X979855Y508410D02*
X980838Y508706D01*
X978786Y496005D02*
X981871Y497013D01*
X977881Y507518D02*
X979855Y508410D01*
X975701Y506111D02*
X977881Y507518D01*
X973298Y504081D02*
X975701Y506111D01*
X974769Y495048D02*
X978786Y496005D01*
X970721Y501366D02*
X973298Y504081D01*
X969573Y494099D02*
X974769Y495048D01*
X966380Y494959D02*
X970721Y501366D01*
X967247Y493863D02*
X969573Y494099D01*
X966744Y493909D02*
X967247Y493863D01*
X966532Y493972D02*
X966744Y493909D01*
X966344Y494106D02*
X966391Y494058D01*
X966458Y494009D02*
X966532Y493972D01*
X966391Y494058D02*
X966458Y494009D01*
X966300Y494686D02*
X966380Y494959D01*
X966269Y494503D02*
X966300Y494686D01*
X966317Y494148D02*
X966344Y494106D01*
X966288Y494213D02*
X966317Y494148D01*
X966263Y494366D02*
X966271Y494283D01*
X966288Y494213D01*
X951654Y518249D02*
X951655Y518250D01*
X950547Y515608D02*
X951654Y518249D01*
X950547Y515606D02*
X950547Y515608D01*
X950534Y515581D02*
X950534Y515581D01*
X950533Y515581D02*
X950534Y515581D01*
X949054Y513127D02*
X950533Y515581D01*
X949054Y513126D02*
X949054Y513127D01*
X949053Y513126D02*
X949054Y513126D01*
X965466Y508073D02*
X965467Y508074D01*
X959527Y500452D02*
X965466Y508073D01*
X959526Y500451D02*
X959527Y500452D01*
X946752Y502783D02*
X946753Y502782D01*
X953615Y493126D01*
X947216Y510889D02*
X949037Y513103D01*
X945116Y508981D02*
X947196Y510868D01*
X943506Y502866D02*
X946592Y502866D01*
X943506Y502866D02*
X945116Y508981D01*
X966263Y494366D02*
X966269Y494503D01*
X959527Y500452D02*
X959528Y500453D01*
X953615Y493126D02*
X959527Y500452D01*
X985575Y489223D02*
X985575Y489223D01*
X976915Y486873D02*
X985575Y489223D01*
X971082Y485031D02*
X976915Y486873D01*
X966955Y483434D02*
X971082Y485031D01*
X964309Y482146D02*
X966955Y483434D01*
X962314Y480883D02*
X964309Y482146D01*
X962314Y480883D02*
X966982Y474314D01*
X966983Y474313D01*
X964633Y443985D02*
X964635Y443983D01*
X960470Y447641D02*
X964633Y443985D01*
X960469Y447642D02*
X960470Y447641D01*
X967002Y474118D02*
X967002Y474119D01*
X967002Y474118D02*
X967002Y474118D01*
X956672Y451147D02*
X967002Y474118D01*
X960470Y447641D02*
X960472Y447639D01*
X956672Y451147D02*
X960470Y447641D01*
X958078Y440501D02*
X958280Y440451D01*
X957784Y439367D02*
X958565Y437592D01*
X957943Y440519D02*
X958078Y440501D01*
X957845Y440519D02*
X957943Y440519D01*
X957789Y440512D02*
X957845Y440519D01*
X957744Y440499D02*
X957789Y440512D01*
X957710Y440483D02*
X957744Y440499D01*
X957685Y440465D02*
X957710Y440483D01*
X957668Y440448D02*
X957685Y440465D01*
X957647Y440416D02*
X957668Y440448D01*
X957627Y440368D02*
X957647Y440416D01*
X957614Y440312D02*
X957627Y440368D01*
X957615Y440040D02*
X957784Y439367D01*
X957605Y440211D02*
X957615Y440040D01*
X957605Y440211D02*
X957614Y440312D01*
X1073402Y360298D02*
X1073403Y360298D01*
X1073402Y360299D02*
X1073402Y360298D01*
X1063679Y368493D02*
X1073402Y360299D01*
X1063679Y368493D02*
X1063679Y368493D01*
X1063679Y368493D02*
X1063679Y368493D01*
X1081676Y352874D02*
X1081677Y352873D01*
X1081675Y352874D02*
X1081676Y352874D01*
X1073408Y360294D02*
X1081675Y352874D01*
X1073407Y360294D02*
X1073408Y360294D01*
X1073406Y360295D02*
X1073407Y360294D01*
X1055837Y360110D02*
X1056938Y359838D01*
X1058517Y359218D01*
X1052164Y377689D02*
X1063675Y368496D01*
X1053823Y360148D02*
X1054799Y360214D01*
X1055837Y360110D01*
X1052904Y359912D02*
X1053823Y360148D01*
X1052041Y359506D02*
X1052904Y359912D01*
X1051169Y358878D02*
X1052041Y359506D01*
X1088711Y346091D02*
X1088711Y346090D01*
X1088710Y346091D02*
X1088711Y346091D01*
X1081682Y352868D02*
X1088710Y346091D01*
X1081681Y352869D02*
X1081682Y352868D01*
X1081681Y352870D02*
X1081681Y352869D01*
X1088716Y346085D02*
X1094662Y339860D01*
X1078625Y342836D02*
X1082627Y338534D01*
X1060439Y358186D02*
X1063440Y356171D01*
X1058517Y359218D02*
X1060439Y358186D01*
X1050189Y357833D02*
X1051169Y358878D01*
X1073223Y348005D02*
X1078625Y342836D01*
X1067550Y352946D02*
X1073223Y348005D01*
X1063440Y356171D02*
X1067550Y352946D01*
X1050917Y340108D02*
X1052559Y337823D01*
X1047115Y371237D02*
X1047163Y370965D01*
X1047178Y370679D01*
X1047126Y370162D02*
X1047178Y370679D01*
X1045160Y373048D02*
X1046015Y372629D01*
X1043663Y373457D02*
X1045160Y373048D01*
X1046796Y371921D02*
X1046989Y371593D01*
X1047115Y371237D01*
X1046985Y369608D02*
X1047126Y370162D01*
X1046015Y372629D02*
X1046496Y372260D01*
X1046796Y371921D01*
X1049339Y356511D02*
X1050189Y357833D01*
X1048584Y354742D02*
X1049339Y356511D01*
X1049647Y342411D02*
X1050917Y340108D01*
X1048645Y344982D02*
X1049647Y342411D01*
X1046666Y368809D02*
X1046985Y369608D01*
X1042221Y361642D02*
X1046666Y368809D01*
X1042221Y361642D02*
X1042221Y361642D01*
X1042221Y361642D02*
X1042221Y361642D01*
X1048041Y352497D02*
X1048584Y354742D01*
X1048053Y347546D02*
X1048645Y344982D01*
X1047856Y350069D02*
X1048053Y347546D01*
X1047856Y350069D02*
X1048041Y352497D01*
X1099662Y334108D02*
X1103792Y328810D01*
X1094668Y339853D02*
X1094668Y339853D01*
X1094669Y339852D01*
X1099654Y334117D01*
X1099655Y334116D01*
X1099655Y334116D01*
X1103799Y328801D02*
X1103800Y328800D01*
X1107164Y323901D01*
X1107165Y323900D01*
X1082627Y338534D02*
X1085267Y335204D01*
X1086908Y332616D01*
X1088107Y327493D02*
X1088214Y328214D01*
X1087816Y330597D02*
X1088169Y329171D01*
X1086908Y332616D02*
X1087816Y330597D01*
X1088169Y329171D02*
X1088214Y328214D01*
X1087898Y326903D02*
X1088107Y327493D01*
X1087671Y326498D02*
X1087898Y326903D01*
X1087383Y326124D02*
X1087671Y326498D01*
X1086870Y325647D02*
X1087383Y326124D01*
X1109860Y319335D02*
X1111926Y315121D01*
X1107172Y323889D02*
X1107172Y323888D01*
X1107173Y323888D01*
X1109852Y319349D01*
X1109852Y319348D01*
X1109853Y319347D01*
X1086236Y325235D02*
X1086870Y325647D01*
X1085479Y324890D02*
X1086236Y325235D01*
X1084606Y324613D02*
X1085479Y324890D01*
X1083268Y324357D02*
X1084606Y324613D01*
X1080922Y324222D02*
X1083268Y324357D01*
X1077829Y324441D02*
X1080922Y324222D01*
X1059894Y331292D02*
X1063108Y329361D01*
X1066602Y327657D01*
X1057044Y333380D02*
X1059894Y331292D01*
X1070233Y326250D02*
X1074199Y325107D01*
X1066602Y327657D02*
X1070233Y326250D01*
X1074199Y325107D02*
X1077829Y324441D01*
X1054597Y335571D02*
X1057044Y333380D01*
X1052559Y337823D02*
X1054597Y335571D01*
X1047786Y327507D02*
X1051972Y325401D01*
X1058642Y322534D02*
X1058644Y322533D01*
X1051983Y325396D02*
X1058642Y322534D01*
X1044107Y329748D02*
X1047772Y327515D01*
X1064714Y318815D02*
X1064772Y318596D01*
X1064785Y318395D01*
X1064775Y318285D02*
X1064785Y318395D01*
X1061905Y321057D02*
X1063453Y320157D01*
X1058642Y322534D02*
X1061905Y321057D01*
X1058641Y322535D02*
X1058642Y322534D01*
X1064596Y319060D02*
X1064714Y318815D01*
X1064415Y319316D02*
X1064596Y319060D01*
X1063453Y320157D02*
X1064075Y319671D01*
X1064415Y319316D01*
X1038235Y388329D02*
X1052160Y377692D01*
X1038584Y373607D02*
X1041384Y373689D01*
X1043663Y373457D01*
X1041090Y359273D02*
X1042211Y361623D01*
X1035158Y373115D02*
X1038584Y373607D01*
X1040382Y357022D02*
X1041080Y359247D01*
X1038233Y388331D02*
X1038234Y388330D01*
X1038232Y388332D02*
X1038233Y388331D01*
X1020257Y401623D02*
X1038232Y388332D01*
X1020256Y401624D02*
X1020257Y401623D01*
X1031754Y372243D02*
X1035158Y373115D01*
X1028638Y371075D02*
X1031754Y372243D01*
X1041581Y345190D02*
X1041596Y345671D01*
X1041517Y344925D02*
X1041581Y345190D01*
X1041442Y344761D02*
X1041517Y344925D01*
X1041351Y344630D02*
X1041442Y344761D01*
X1041238Y344521D02*
X1041351Y344630D01*
X1041072Y344413D02*
X1041238Y344521D01*
X1040069Y354922D02*
X1040375Y356992D01*
X1040067Y354891D02*
X1040067Y354890D01*
X1040067Y354889D01*
X1040105Y352630D01*
X1040105Y352629D01*
X1040105Y352628D01*
X1040108Y352599D02*
X1040509Y350227D01*
X1040511Y350215D02*
X1040512Y350214D01*
X1040512Y350214D01*
X1041596Y345671D01*
X1031388Y347331D02*
X1034582Y345770D01*
X1037461Y344705D01*
X1031097Y382321D02*
X1031186Y381805D01*
X1031211Y381165D01*
X1030947Y382844D02*
X1031097Y382321D01*
X1031139Y380546D02*
X1031211Y381165D01*
X1030972Y379948D02*
X1031139Y380546D01*
X1030711Y379373D02*
X1030972Y379948D01*
X1022017Y391189D02*
X1025190Y389197D01*
X1027640Y387272D01*
X1030446Y383956D02*
X1030947Y382844D01*
X1030361Y378821D02*
X1030711Y379373D01*
X1029358Y385516D02*
X1030446Y383956D01*
X1027640Y387272D02*
X1029358Y385516D01*
X1029924Y378296D02*
X1030361Y378821D01*
X1029213Y377639D02*
X1029924Y378296D01*
X1028260Y376971D02*
X1029213Y377639D01*
X1026774Y376209D02*
X1028260Y376971D01*
X1028193Y349269D02*
X1031388Y347331D01*
X1024891Y375549D02*
X1026774Y376209D01*
X1025962Y369702D02*
X1028638Y371075D01*
X1022365Y375042D02*
X1024891Y375549D01*
X1023926Y368313D02*
X1025962Y369702D01*
X1025430Y351336D02*
X1028193Y349269D01*
X1023262Y353370D02*
X1025430Y351336D01*
X1022610Y367158D02*
X1023926Y368313D01*
X1040867Y344328D02*
X1041072Y344413D01*
X1040617Y344267D02*
X1040867Y344328D01*
X1040323Y344232D02*
X1040617Y344267D01*
X1039859Y344231D02*
X1040323Y344232D01*
X1037461Y344705D02*
X1039018Y344329D01*
X1039859Y344231D01*
X1040976Y332076D02*
X1044092Y329758D01*
X1035149Y326603D02*
X1036437Y324128D01*
X1037991Y321931D01*
X1039817Y320007D02*
X1041704Y318509D01*
X1043836Y317238D01*
X1037991Y321931D02*
X1039817Y320007D01*
X1034297Y338042D02*
X1034472Y337959D01*
X1034181Y338082D02*
X1034297Y338042D01*
X1033987Y338108D02*
X1034077Y338103D01*
X1034181Y338082D01*
X1033907Y338099D02*
X1033987Y338108D01*
X1034768Y337773D02*
X1040961Y332089D01*
X1034148Y329327D02*
X1035149Y326603D01*
X1034472Y337959D02*
X1034768Y337773D01*
X1033474Y332190D02*
X1034148Y329327D01*
X1033834Y338075D02*
X1033907Y338099D01*
X1033767Y338038D02*
X1033834Y338075D01*
X1033709Y337991D02*
X1033767Y338038D01*
X1033627Y337900D02*
X1033709Y337991D01*
X1033522Y337727D02*
X1033627Y337900D01*
X1033396Y337403D02*
X1033522Y337727D01*
X1033267Y336815D02*
X1033396Y337403D01*
X1033183Y334915D02*
X1033474Y332190D01*
X1033183Y334915D02*
X1033267Y336815D01*
X1026033Y324448D02*
X1027812Y322535D01*
X1023678Y326418D02*
X1026033Y324448D01*
X1029096Y320687D02*
X1029979Y318868D01*
X1030572Y316820D01*
X1027812Y322535D02*
X1029096Y320687D01*
X1115042Y304056D02*
X1115042Y304055D01*
X1115042Y304054D01*
X1115189Y300845D01*
X1115189Y300844D01*
X1115189Y300843D01*
X1114474Y307496D02*
X1114474Y307495D01*
X1115039Y304080D01*
X1115039Y304078D01*
X1114943Y297786D02*
X1115189Y300819D01*
X1114393Y295163D02*
X1114940Y297761D01*
X1113531Y292650D02*
X1114386Y295139D01*
X1113453Y311170D02*
X1113453Y311168D01*
X1114469Y307518D01*
X1114470Y307517D01*
X1111932Y315106D02*
X1111933Y315105D01*
X1113446Y311189D01*
X1113447Y311188D01*
X1068961Y296048D02*
X1068962Y296047D01*
X1068962Y296046D01*
X1070005Y293637D01*
X1070005Y293637D01*
X1070005Y293636D01*
X1068361Y298323D02*
X1068952Y296076D01*
X1112351Y290235D02*
X1113522Y292627D01*
X1112339Y290213D02*
X1112339Y290214D01*
X1110839Y287911D02*
X1112339Y290213D01*
X1110839Y287910D02*
X1110839Y287911D01*
X1110824Y287890D02*
X1110825Y287891D01*
X1108974Y285674D02*
X1110824Y287890D01*
X1108973Y285673D02*
X1108974Y285674D01*
X1071557Y291027D02*
X1071558Y291027D01*
X1071558Y291026D01*
X1073682Y288103D01*
X1073682Y288103D01*
X1073683Y288102D01*
X1070016Y293614D02*
X1071548Y291042D01*
X1063034Y288785D02*
X1068927Y286014D01*
X1076192Y284570D02*
X1076274Y284364D01*
X1073683Y288101D02*
X1075914Y285083D01*
X1076192Y284570D01*
X1064753Y318176D02*
X1064775Y318285D01*
X1064671Y317952D02*
X1064753Y318176D01*
X1064539Y317727D02*
X1064671Y317952D01*
X1064354Y317497D02*
X1064539Y317727D01*
X1064116Y317267D02*
X1064354Y317497D01*
X1063714Y316959D02*
X1064116Y317267D01*
X1062937Y316508D02*
X1063714Y316959D01*
X1061836Y316036D02*
X1062937Y316508D01*
X1060031Y315494D02*
X1061836Y316036D01*
X1057621Y315055D02*
X1060031Y315494D01*
X1067253Y305348D02*
X1067581Y304700D01*
X1066788Y305946D02*
X1067253Y305348D01*
X1067961Y302974D02*
X1068355Y298358D01*
X1068355Y298357D01*
X1067581Y304700D02*
X1067798Y304001D01*
X1067961Y302974D01*
X1059955Y308575D02*
X1062814Y307987D01*
X1066107Y306542D02*
X1066788Y305946D01*
X1064872Y307254D02*
X1066107Y306542D01*
X1062814Y307987D02*
X1064872Y307254D01*
X1076318Y284191D02*
X1076327Y284079D01*
X1076319Y284011D02*
X1076327Y284079D01*
X1106732Y283528D02*
X1108958Y285657D01*
X1076274Y284364D02*
X1076318Y284191D01*
X1076305Y283969D02*
X1076319Y284011D01*
X1076289Y283939D02*
X1076305Y283969D01*
X1076266Y283911D02*
X1076289Y283939D01*
X1076235Y283885D02*
X1076266Y283911D01*
X1076192Y283859D02*
X1076235Y283885D01*
X1076137Y283836D02*
X1076192Y283859D01*
X1076037Y283809D02*
X1076137Y283836D01*
X1106716Y283515D02*
X1106717Y283515D01*
X1106715Y283514D02*
X1106716Y283515D01*
X1104090Y281487D02*
X1106715Y283514D01*
X1104089Y281486D02*
X1104090Y281487D01*
X1104089Y281485D02*
X1104089Y281486D01*
X1104072Y281474D02*
X1104074Y281475D01*
X1101026Y279563D02*
X1104072Y281474D01*
X1101025Y279563D02*
X1101026Y279563D01*
X1101008Y279553D02*
X1101009Y279554D01*
X1097524Y277782D02*
X1101008Y279553D01*
X1097523Y277782D02*
X1097524Y277782D01*
X1097508Y277775D02*
X1097509Y277775D01*
X1097508Y277775D02*
X1097508Y277775D01*
X1093582Y276172D02*
X1097508Y277775D01*
X1093582Y276172D02*
X1093582Y276172D01*
X1093582Y276172D02*
X1093582Y276172D01*
X1093567Y276166D02*
X1093568Y276167D01*
X1089221Y274768D02*
X1093567Y276166D01*
X1089220Y274768D02*
X1089221Y274768D01*
X1084482Y273606D02*
X1089207Y274764D01*
X1079455Y272722D02*
X1084470Y273603D01*
X1079442Y272720D02*
X1079443Y272720D01*
X1079442Y272720D02*
X1079442Y272720D01*
X1074248Y272145D02*
X1079442Y272720D01*
X1074247Y272145D02*
X1074248Y272145D01*
X1074246Y272144D02*
X1074247Y272145D01*
X1075895Y283790D02*
X1076037Y283809D01*
X1075655Y283787D02*
X1075895Y283790D01*
X1075206Y283834D02*
X1075655Y283787D01*
X1068927Y286014D02*
X1075206Y283834D01*
X1058616Y282753D02*
X1058660Y282619D01*
X1058498Y282968D02*
X1058616Y282753D01*
X1058144Y283400D02*
X1058498Y282968D01*
X1058660Y282619D02*
X1058670Y282539D01*
X1058665Y282474D02*
X1058670Y282539D01*
X1058655Y282434D02*
X1058665Y282474D01*
X1058639Y282397D02*
X1058655Y282434D01*
X1058603Y282344D02*
X1058639Y282397D01*
X1068385Y271879D02*
X1074234Y272144D01*
X1062574Y272011D02*
X1068372Y271879D01*
X1058552Y282293D02*
X1058603Y282344D01*
X1058481Y282241D02*
X1058552Y282293D01*
X1058390Y282191D02*
X1058481Y282241D01*
X1058234Y282130D02*
X1058390Y282191D01*
X1057929Y282056D02*
X1058234Y282130D01*
X1057327Y281995D02*
X1057929Y282056D01*
X1054691Y314854D02*
X1057621Y315055D01*
X1051710Y314987D02*
X1054691Y314854D01*
X1056520Y308911D02*
X1059955Y308575D01*
X1052666Y308923D02*
X1056520Y308911D01*
X1049357Y308602D02*
X1052666Y308923D01*
X1046222Y316209D02*
X1048857Y315448D01*
X1043836Y317238D02*
X1046222Y316209D01*
X1048857Y315448D02*
X1051710Y314987D01*
X1046955Y308087D02*
X1049357Y308602D01*
X1045611Y307620D02*
X1046955Y308087D01*
X1044767Y307207D02*
X1045611Y307620D01*
X1044144Y306797D02*
X1044767Y307207D01*
X1043764Y306466D02*
X1044144Y306797D01*
X1043456Y306116D02*
X1043764Y306466D01*
X1043335Y303072D02*
X1044104Y301801D01*
X1043221Y305747D02*
X1043456Y306116D01*
X1043059Y305360D02*
X1043221Y305747D01*
X1042968Y304954D02*
X1043059Y305360D01*
X1043047Y303862D02*
X1043335Y303072D01*
X1042951Y304476D02*
X1043047Y303862D01*
X1042951Y304476D02*
X1042968Y304954D01*
X1030686Y312341D02*
X1030804Y314673D01*
X1030572Y316820D02*
X1030804Y314673D01*
X1030199Y309751D02*
X1030686Y312341D01*
X1029332Y307018D02*
X1030199Y309751D01*
X1028371Y304976D02*
X1029332Y307018D01*
X1027909Y304287D02*
X1028371Y304976D01*
X1027572Y303915D02*
X1027909Y304287D01*
X1020753Y315850D02*
X1020753Y315850D01*
X1020753Y315849D01*
X1026072Y304019D01*
X1027332Y303724D02*
X1027572Y303915D01*
X1026237Y303852D02*
X1026411Y303714D01*
X1026072Y304019D02*
X1026237Y303852D01*
X1027162Y303630D02*
X1027332Y303724D01*
X1027044Y303588D02*
X1027162Y303630D01*
X1026684Y303585D02*
X1026787Y303566D01*
X1026917Y303565D02*
X1027044Y303588D01*
X1026579Y303622D02*
X1026684Y303585D01*
X1026787Y303566D02*
X1026917Y303565D01*
X1026411Y303714D02*
X1026579Y303622D01*
X1051990Y295102D02*
X1057108Y291968D01*
X1048203Y297812D02*
X1051990Y295102D01*
X1057108Y291968D02*
X1063034Y288785D01*
X1051783Y287972D02*
X1056910Y284470D01*
X1051782Y287973D02*
X1051782Y287972D01*
X1051782Y287973D02*
X1051782Y287973D01*
X1046883Y291348D02*
X1051782Y287973D01*
X1046883Y291348D02*
X1046883Y291348D01*
X1046883Y291348D02*
X1046883Y291348D01*
X1045661Y300027D02*
X1048203Y297812D01*
X1044104Y301801D02*
X1045661Y300027D01*
X1042917Y294430D02*
X1046874Y291354D01*
X1036744Y299810D02*
X1042908Y294437D01*
X1045213Y285945D02*
X1047977Y284455D01*
X1042789Y287624D02*
X1045213Y285945D01*
X1040738Y289434D02*
X1042789Y287624D01*
X1056910Y284470D02*
X1058144Y283400D01*
X1056137Y282036D02*
X1057327Y281995D01*
X1053819Y282418D02*
X1056137Y282036D01*
X1056918Y272530D02*
X1062561Y272012D01*
X1051491Y273415D02*
X1056905Y272531D01*
X1050950Y283243D02*
X1053819Y282418D01*
X1047977Y284455D02*
X1050950Y283243D01*
X1051477Y273418D02*
X1051478Y273418D01*
X1051476Y273418D02*
X1051477Y273418D01*
X1046336Y274645D02*
X1051476Y273418D01*
X1046336Y274646D02*
X1046336Y274645D01*
X1046334Y274646D02*
X1046336Y274646D01*
X1041458Y276207D02*
X1041459Y276207D01*
X1041457Y276208D02*
X1041458Y276207D01*
X1036906Y278069D02*
X1041457Y276208D01*
X1036905Y278070D02*
X1036906Y278069D01*
X1036905Y278070D02*
X1036905Y278070D01*
X1041473Y276202D02*
X1046321Y274650D01*
X1036163Y300006D02*
X1036224Y300008D01*
X1036298Y299999D01*
X1036112Y299995D02*
X1036163Y300006D01*
X1036517Y299928D02*
X1036744Y299810D01*
X1036067Y299977D02*
X1036112Y299995D01*
X1036298Y299999D02*
X1036384Y299978D01*
X1036517Y299928D01*
X1036028Y299950D02*
X1036067Y299977D01*
X1035994Y299919D02*
X1036028Y299950D01*
X1035947Y299856D02*
X1035994Y299919D01*
X1035888Y299735D02*
X1035947Y299856D01*
X1035826Y299506D02*
X1035888Y299735D01*
X1036445Y295949D02*
X1037456Y293750D01*
X1035887Y297960D02*
X1036445Y295949D01*
X1035786Y299092D02*
X1035887Y297960D01*
X1035786Y299092D02*
X1035826Y299506D01*
X1038886Y291553D02*
X1040738Y289434D01*
X1037456Y293750D02*
X1038886Y291553D01*
X1021659Y288300D02*
X1024839Y285513D01*
X1036891Y278076D02*
X1036892Y278076D01*
X1036890Y278077D02*
X1036891Y278076D01*
X1032625Y280240D02*
X1036890Y278077D01*
X1032625Y280240D02*
X1032625Y280240D01*
X1032624Y280241D02*
X1032625Y280240D01*
X1028600Y282724D02*
X1028601Y282724D01*
X1028599Y282724D02*
X1028600Y282724D01*
X1024852Y285503D02*
X1028599Y282724D01*
X1024852Y285503D02*
X1024852Y285503D01*
X1024851Y285504D02*
X1024852Y285503D01*
X1032609Y280249D02*
X1032610Y280248D01*
X1028615Y282714D02*
X1032609Y280249D01*
X1028614Y282715D02*
X1028615Y282714D01*
X998819Y407704D02*
X1000553Y407594D01*
X997011Y407493D02*
X998819Y407704D01*
X1000553Y407594D02*
X1001976Y407219D01*
X995237Y406995D02*
X997011Y407493D01*
X990951Y413618D02*
X991014Y412986D01*
X990977Y412370D02*
X991014Y412986D01*
X990840Y411772D02*
X990977Y412370D01*
X1001976Y407219D02*
X1003105Y406670D01*
X993620Y406281D02*
X995237Y406995D01*
X1004627Y405325D02*
X1005151Y404538D01*
X1003105Y406670D02*
X1003974Y406020D01*
X1004627Y405325D01*
X992421Y405540D02*
X993620Y406281D01*
X991793Y405030D02*
X992421Y405540D01*
X991426Y404654D02*
X991793Y405030D01*
X991180Y404332D02*
X991426Y404654D01*
X991049Y404105D02*
X991180Y404332D01*
X990961Y403889D02*
X991049Y404105D01*
X986902Y418704D02*
X988080Y417865D01*
X985699Y419354D02*
X986902Y418704D01*
X990614Y414718D02*
X990817Y414169D01*
X990035Y415768D02*
X990614Y414718D01*
X988080Y417865D02*
X989151Y416872D01*
X990035Y415768D01*
X984671Y419750D02*
X985699Y419354D01*
X983959Y419928D02*
X984671Y419750D01*
X982681Y419974D02*
X983313Y420005D01*
X983959Y419928D01*
X990817Y414169D02*
X990951Y413618D01*
X990603Y411199D02*
X990840Y411772D01*
X990270Y410655D02*
X990603Y411199D01*
X989843Y410145D02*
X990270Y410655D01*
X989329Y409676D02*
X989843Y410145D01*
X988735Y409254D02*
X989329Y409676D01*
X987831Y408770D02*
X988735Y409254D01*
X986691Y408347D02*
X987831Y408770D01*
X985459Y408063D02*
X986691Y408347D01*
X984176Y407924D02*
X985459Y408063D01*
X982882Y407929D02*
X984176Y407924D01*
X1020255Y401624D02*
X1020256Y401624D01*
X984301Y428195D02*
X1020255Y401624D01*
X984299Y428197D02*
X984301Y428195D01*
X1005873Y402352D02*
X1005948Y400789D01*
X1005754Y399166D02*
X1005948Y400789D01*
X1010157Y395466D02*
X1010858Y395451D01*
X1012192Y395239D01*
X1009780Y395422D02*
X1010157Y395466D01*
X1009546Y395363D02*
X1009780Y395422D01*
X1009349Y395283D02*
X1009546Y395363D01*
X1009190Y395185D02*
X1009349Y395283D01*
X1009065Y395072D02*
X1009190Y395185D01*
X1018426Y393019D02*
X1022017Y391189D01*
X1012192Y395239D02*
X1014749Y394502D01*
X1018426Y393019D01*
X1008975Y394954D02*
X1009065Y395072D01*
X1008891Y394786D02*
X1008975Y394954D01*
X1008824Y394547D02*
X1008891Y394786D01*
X1008792Y394116D02*
X1010074Y388489D01*
X1008792Y394116D02*
X1008824Y394547D01*
X1005151Y404538D02*
X1005544Y403672D01*
X1005741Y403024D01*
X990999Y403147D02*
X991138Y402912D01*
X991462Y402552D01*
X990915Y403687D02*
X990961Y403889D01*
X990908Y403501D02*
X990915Y403687D01*
X990931Y403341D02*
X990999Y403147D01*
X990908Y403501D02*
X990931Y403341D01*
X1005741Y403024D02*
X1005873Y402352D01*
X995252Y399616D02*
X995253Y399616D01*
X995252Y399616D02*
X995252Y399616D01*
X993574Y400997D02*
X995252Y399616D01*
X993574Y400998D02*
X993574Y400997D01*
X993574Y400998D02*
X993574Y400998D01*
X995275Y399594D02*
X996773Y397891D01*
X993564Y401005D02*
X993565Y401004D01*
X991462Y402552D02*
X993564Y401005D01*
X982433Y403637D02*
X987988Y400327D01*
X989860Y398693D01*
X1005160Y396962D02*
X1005754Y399166D01*
X996793Y397865D02*
X996793Y397864D01*
X996793Y397864D01*
X998091Y395765D01*
X998092Y395764D01*
X998092Y395764D01*
X1004079Y394271D02*
X1005160Y396962D01*
X1002474Y391139D02*
X1004079Y394271D01*
X998105Y395738D02*
X998106Y395737D01*
X1000680Y389734D01*
X1001807Y390108D02*
X1002474Y391139D01*
X991433Y396876D02*
X992650Y394955D01*
X989860Y398693D02*
X991433Y396876D01*
X992650Y394955D02*
X993669Y392633D01*
X994334Y390148D01*
X984338Y392822D02*
X986383Y389093D01*
X982399Y397107D02*
X984338Y392822D01*
X977578Y424534D02*
X977580Y423994D01*
X977454Y425132D02*
X977578Y424534D01*
X977479Y423463D02*
X977580Y423994D01*
X977276Y422942D02*
X977479Y423463D01*
X984301Y428195D02*
X984303Y428193D01*
X973531Y436612D02*
X984301Y428195D01*
X973528Y436614D02*
X973531Y436612D01*
X971803Y431092D02*
X974926Y428474D01*
X977130Y425882D02*
X977454Y425132D01*
X976394Y426949D02*
X977130Y425882D01*
X974926Y428474D02*
X976394Y426949D01*
X976976Y422434D02*
X977276Y422942D01*
X976587Y421948D02*
X976976Y422434D01*
X982282Y419880D02*
X982681Y419974D01*
X981902Y419715D02*
X982282Y419880D01*
X981545Y419470D02*
X981902Y419715D01*
X981229Y419162D02*
X981545Y419470D01*
X976118Y421496D02*
X976587Y421948D01*
X975580Y421093D02*
X976118Y421496D01*
X974985Y420753D02*
X975580Y421093D01*
X974344Y420490D02*
X974985Y420753D01*
X973669Y420318D02*
X974344Y420490D01*
X972969Y420248D02*
X973669Y420318D01*
X973531Y436612D02*
X973533Y436610D01*
X964633Y443985D02*
X973531Y436612D01*
X964630Y443987D02*
X964633Y443985D01*
X964074Y436890D02*
X971803Y431092D01*
X967860Y423062D02*
X969012Y421933D01*
X966302Y424958D02*
X967860Y423062D01*
X964050Y428239D02*
X966302Y424958D01*
X958565Y437592D02*
X960833Y433502D01*
X958280Y440451D02*
X964074Y436890D01*
X960833Y433502D02*
X964050Y428239D01*
X942877Y420473D02*
X950502Y437427D01*
X956066Y429685D02*
X961243Y421858D01*
X950502Y437427D02*
X956066Y429685D01*
X970776Y420745D02*
X971518Y420454D01*
X970026Y421166D02*
X970776Y420745D01*
X971518Y420454D02*
X972250Y420290D01*
X969012Y421933D02*
X970026Y421166D01*
X972250Y420290D02*
X972969Y420248D01*
X942877Y420473D02*
X943762Y418477D01*
X981619Y408076D02*
X982882Y407929D01*
X980290Y417768D02*
X981229Y419162D01*
X979436Y416500D02*
X980290Y417768D01*
X977368Y414303D02*
X979416Y416475D01*
X978377Y409231D02*
X979334Y408746D01*
X980424Y408354D02*
X981619Y408076D01*
X979334Y408746D02*
X980424Y408354D01*
X981247Y403893D02*
X981362Y403900D01*
X981543Y403889D01*
X981865Y403827D01*
X981147Y403873D02*
X981247Y403893D01*
X981063Y403841D02*
X981147Y403873D01*
X980991Y403799D02*
X981063Y403841D01*
X980930Y403745D02*
X980991Y403799D01*
X981865Y403827D02*
X982433Y403637D01*
X981190Y400510D02*
X982399Y397107D01*
X980882Y403686D02*
X980930Y403745D01*
X980824Y403579D02*
X980882Y403686D01*
X980769Y403411D02*
X980824Y403579D01*
X980727Y403067D02*
X980758Y402450D01*
X981190Y400510D01*
X980727Y403067D02*
X980769Y403411D01*
X975066Y396860D02*
X979059Y388069D01*
X976795Y413649D02*
X977368Y414303D01*
X976500Y413209D02*
X976795Y413649D01*
X976338Y412875D02*
X976500Y413209D01*
X966199Y413684D02*
X970794Y405370D01*
X945966Y417502D02*
X956434Y417499D01*
X943762Y418477D02*
X945966Y417502D01*
X961243Y421858D02*
X966199Y413684D01*
X976320Y411401D02*
X976553Y410920D01*
X976233Y412533D02*
X976338Y412875D01*
X976553Y410920D02*
X976954Y410376D01*
X976189Y412182D02*
X976211Y411820D01*
X976189Y412182D02*
X976233Y412533D01*
X976211Y411820D02*
X976320Y411401D01*
X977578Y409784D02*
X978377Y409231D01*
X976954Y410376D02*
X977578Y409784D01*
X970794Y405370D02*
X975066Y396860D01*
X1016062Y375568D02*
X1017875Y375098D01*
X1014684Y376222D02*
X1016062Y375568D01*
X1020028Y374908D02*
X1022365Y375042D01*
X1013667Y376985D02*
X1014684Y376222D01*
X1017875Y375098D02*
X1020028Y374908D01*
X1012340Y378735D02*
X1012929Y377801D01*
X1011882Y379772D02*
X1012340Y378735D01*
X1011427Y381296D02*
X1011882Y379772D01*
X1012929Y377801D02*
X1013667Y376985D01*
X1021507Y365914D02*
X1022610Y367158D01*
X1020646Y364594D02*
X1021507Y365914D01*
X1020603Y357103D02*
X1021676Y355298D01*
X1020048Y363211D02*
X1020646Y364594D01*
X1019963Y358795D02*
X1020603Y357103D01*
X1019728Y361776D02*
X1020048Y363211D01*
X1019698Y360300D02*
X1019728Y361776D01*
X1019698Y360300D02*
X1019963Y358795D01*
X1010882Y357762D02*
X1012233Y356339D01*
X1011637Y369901D02*
X1011659Y369349D01*
X1011614Y368831D02*
X1011659Y369349D01*
X1011394Y371115D02*
X1011637Y369901D01*
X1011480Y368285D02*
X1011614Y368831D01*
X1011260Y367790D02*
X1011480Y368285D01*
X1010954Y367345D02*
X1011260Y367790D01*
X1010076Y388481D02*
X1011427Y381296D01*
X1006933Y378485D02*
X1009092Y375617D01*
X1010610Y373063D02*
X1011394Y371115D01*
X1010562Y366949D02*
X1010954Y367345D01*
X1010087Y366602D02*
X1010562Y366949D01*
X1009092Y375617D02*
X1010610Y373063D01*
X1009533Y366304D02*
X1010087Y366602D01*
X1008675Y365985D02*
X1009533Y366304D01*
X1009861Y358615D02*
X1010882Y357762D01*
X1008949Y359199D02*
X1009861Y358615D01*
X1007573Y365735D02*
X1008675Y365985D01*
X1008271Y359519D02*
X1008949Y359199D01*
X1007595Y359736D02*
X1008271Y359519D01*
X1006926Y359847D02*
X1007595Y359736D01*
X1006266Y359851D02*
X1006926Y359847D01*
X1023612Y338806D02*
X1023656Y338636D01*
X1023666Y338535D01*
X1023663Y338477D02*
X1023666Y338535D01*
X1023651Y338423D02*
X1023663Y338477D01*
X1023500Y339082D02*
X1023612Y338806D01*
X1023633Y338383D02*
X1023651Y338423D01*
X1023615Y338356D02*
X1023633Y338383D01*
X1023581Y338321D02*
X1023615Y338356D01*
X1023520Y338279D02*
X1023581Y338321D01*
X1023418Y338232D02*
X1023520Y338279D01*
X1023283Y338193D02*
X1023418Y338232D01*
X1021676Y355298D02*
X1023262Y353370D01*
X1014218Y353735D02*
X1017675Y348308D01*
X1017676Y348308D01*
X1017675Y348309D02*
X1017675Y348308D01*
X1020777Y343336D01*
X1020777Y343334D01*
X1020778Y343333D02*
X1020779Y343332D01*
X1020779Y343332D01*
X1023500Y339082D01*
X1015832Y339188D02*
X1023064Y338157D01*
X1023283Y338193D01*
X1012020Y340242D02*
X1015832Y339188D01*
X1020819Y328322D02*
X1023678Y326418D01*
X1018629Y291393D02*
X1018630Y291393D01*
X1018631Y291392D01*
X1021647Y288311D01*
X1021648Y288310D01*
X1021649Y288309D01*
X1018267Y320881D02*
X1020750Y315856D01*
X1014656Y331063D02*
X1017915Y329864D01*
X1020819Y328322D01*
X1015531Y325671D02*
X1015531Y325670D01*
X1018261Y320893D01*
X1018261Y320892D01*
X1018262Y320891D01*
X1013556Y329116D02*
X1015530Y325672D01*
X1015530Y325671D01*
X1015743Y294821D02*
X1018620Y291404D01*
X1012976Y298640D02*
X1012976Y298640D01*
X1012976Y298639D01*
X1015734Y294833D01*
X1015735Y294832D01*
X1015735Y294832D01*
X1013533Y331164D02*
X1013732Y331179D01*
X1012233Y356339D02*
X1014218Y353735D01*
X1008761Y341504D02*
X1012020Y340242D01*
X1006291Y342828D02*
X1008761Y341504D01*
X1013732Y331179D02*
X1014058Y331163D01*
X1014656Y331063D01*
X1013386Y331134D02*
X1013533Y331164D01*
X1013300Y331103D02*
X1013386Y331134D01*
X1013230Y331067D02*
X1013300Y331103D01*
X1013168Y331019D02*
X1013230Y331067D01*
X1013123Y330968D02*
X1013168Y331019D01*
X1013087Y330906D02*
X1013123Y330968D01*
X1013059Y330824D02*
X1013087Y330906D01*
X1013169Y330020D02*
X1013556Y329116D01*
X1013042Y330699D02*
X1013053Y330485D01*
X1013169Y330020D01*
X1013042Y330699D02*
X1013059Y330824D01*
X1010298Y302931D02*
X1012968Y298651D01*
X1007670Y307821D02*
X1007670Y307821D01*
X1007670Y307820D01*
X1010292Y302942D01*
X1010292Y302942D01*
X1010292Y302941D01*
X1001416Y389666D02*
X1001807Y390108D01*
X1001282Y389561D02*
X1001416Y389666D01*
X1001190Y389509D02*
X1001282Y389561D01*
X1001133Y389487D02*
X1001190Y389509D01*
X1001075Y389475D02*
X1001133Y389487D01*
X1001027Y389473D02*
X1001075Y389475D01*
X1000842Y389557D02*
X1000894Y389520D01*
X1000764Y389632D02*
X1000842Y389557D01*
X1000942Y389495D02*
X1000992Y389478D01*
X1001027Y389473D01*
X1000894Y389520D02*
X1000942Y389495D01*
X1000680Y389734D02*
X1000764Y389632D01*
X999885Y385396D02*
X1000167Y385241D01*
X999703Y385469D02*
X999885Y385396D01*
X999438Y385510D02*
X999533Y385508D01*
X999369Y385499D02*
X999438Y385510D01*
X999533Y385508D02*
X999703Y385469D01*
X999305Y385474D02*
X999369Y385499D01*
X999247Y385439D02*
X999305Y385474D01*
X999174Y385372D02*
X999247Y385439D01*
X999100Y385278D02*
X999174Y385372D01*
X999003Y385112D02*
X999100Y385278D01*
X998412Y383475D02*
X999003Y385112D01*
X998412Y383475D02*
X998412Y383475D01*
X998412Y383474D02*
X998412Y383475D01*
X994334Y390148D02*
X994591Y387929D01*
X986383Y389093D02*
X988235Y386332D01*
X994512Y385972D02*
X994591Y387929D01*
X994215Y384664D02*
X994512Y385972D01*
X993917Y383990D02*
X994215Y384664D01*
X989670Y384645D02*
X990575Y383829D01*
X988235Y386332D02*
X989670Y384645D01*
X993647Y383595D02*
X993917Y383990D01*
X993395Y383343D02*
X993647Y383595D01*
X993142Y383171D02*
X993395Y383343D01*
X991208Y383397D02*
X991802Y383121D01*
X990575Y383829D02*
X991208Y383397D01*
X991802Y383121D02*
X991977Y383068D01*
X992899Y383067D02*
X993142Y383171D01*
X992666Y383015D02*
X992899Y383067D01*
X991977Y383068D02*
X992148Y383030D01*
X992417Y383002D01*
X992666Y383015D01*
X1005921Y365575D02*
X1007573Y365735D01*
X1003906Y365616D02*
X1005921Y365575D01*
X1005544Y359728D02*
X1006266Y359851D01*
X1004760Y359435D02*
X1005544Y359728D01*
X1003922Y358918D02*
X1004760Y359435D01*
X1003051Y358118D02*
X1003922Y358918D01*
X1001021Y366015D02*
X1003906Y365616D01*
X1000167Y385241D02*
X1006933Y378485D01*
X998151Y366790D02*
X1001021Y366015D01*
X1002276Y357104D02*
X1003051Y358118D01*
X1001626Y355906D02*
X1002276Y357104D01*
X1001134Y354564D02*
X1001626Y355906D01*
X1002988Y345652D02*
X1004407Y344211D01*
X1001951Y347154D02*
X1002988Y345652D01*
X1004407Y344211D02*
X1006291Y342828D01*
X1005026Y313531D02*
X1007665Y307831D01*
X1002226Y320529D02*
X1002227Y320527D01*
X1005021Y313542D01*
X1005021Y313540D01*
X1000830Y353120D02*
X1001134Y354564D01*
X1000742Y351616D02*
X1000830Y353120D01*
X1000742Y351616D02*
X1000890Y350095D01*
X1001291Y348596D02*
X1001951Y347154D01*
X999243Y329050D02*
X1002223Y320537D01*
X1000890Y350095D02*
X1001291Y348596D01*
X998410Y383470D02*
X998410Y383471D01*
X998410Y383469D02*
X998410Y383470D01*
X997268Y380552D02*
X998410Y383469D01*
X997267Y380551D02*
X997268Y380552D01*
X997267Y380550D02*
X997267Y380551D01*
X997260Y380535D02*
X997260Y380536D01*
X997260Y380534D02*
X997260Y380535D01*
X993388Y372756D02*
X997260Y380534D01*
X993228Y372120D02*
X993388Y372756D01*
X993155Y371502D02*
X993228Y372120D01*
X993180Y370913D02*
X993313Y370348D01*
X993155Y371502D02*
X993180Y370913D01*
X982831Y378868D02*
X986471Y369028D01*
X986472Y369025D01*
X979059Y388069D02*
X982831Y378868D01*
X994708Y368539D02*
X996039Y367691D01*
X993985Y369217D02*
X994708Y368539D01*
X995704Y340208D02*
X999241Y329055D01*
X996039Y367691D02*
X998151Y366790D01*
X993313Y370348D02*
X993561Y369804D01*
X993985Y369217D01*
X990152Y358069D02*
X990153Y358067D01*
X995704Y340209D01*
X995704Y340209D01*
X995704Y340208D01*
X986470Y369031D02*
X986471Y369028D01*
X990153Y358067D01*
X990153Y358064D01*
X854751Y552631D02*
X856133Y550553D01*
X853800Y553758D02*
X854751Y552631D01*
X932826Y544474D02*
X935685Y544266D01*
X929939D02*
X932798Y544474D01*
X856133Y550553D02*
X862968Y539083D01*
X862969Y539082D01*
X842434Y587711D02*
X852602Y573932D01*
X850382Y555664D02*
X851395Y555396D01*
X852604Y573929D02*
X871226Y547773D01*
X853051Y554447D02*
X853800Y553758D01*
X851395Y555396D02*
X852253Y554995D01*
X853051Y554447D01*
X938512Y543640D02*
X938513Y543640D01*
X938511Y543640D02*
X938512Y543640D01*
X935714Y544261D02*
X938511Y543640D01*
X935714Y544261D02*
X935714Y544261D01*
X935713Y544262D02*
X935714Y544261D01*
X929909Y544261D02*
X929910Y544261D01*
X927113Y543640D02*
X929909Y544261D01*
X927112Y543640D02*
X927113Y543640D01*
X924406Y542610D02*
X927085Y543631D01*
X924379Y542597D02*
X924380Y542598D01*
X921880Y541199D02*
X924379Y542597D01*
X921879Y541198D02*
X921880Y541199D01*
X919583Y539434D02*
X921855Y541182D01*
X919561Y539415D02*
X919562Y539416D01*
X919561Y539414D02*
X919561Y539415D01*
X917568Y537356D02*
X919561Y539414D01*
X917568Y537355D02*
X917568Y537356D01*
X917567Y537355D02*
X917568Y537355D01*
X841298Y569929D02*
X841716Y567470D01*
X841810Y564944D01*
X841575Y562499D02*
X841810Y564944D01*
X841053Y560401D02*
X841575Y562499D01*
X839311Y574914D02*
X840542Y572333D01*
X837767Y577372D02*
X839311Y574914D01*
X840542Y572333D02*
X841298Y569929D01*
X840424Y558987D02*
X841053Y560401D01*
X839837Y558154D02*
X840424Y558987D01*
X839341Y557686D02*
X839837Y558154D01*
X848985Y555755D02*
X850382Y555664D01*
X847207Y555547D02*
X848985Y555755D01*
X845223Y555032D02*
X847207Y555547D01*
X842126Y553863D02*
X845223Y555032D01*
X838893Y557408D02*
X839341Y557686D01*
X838463Y557248D02*
X838893Y557408D01*
X838055Y557181D02*
X838463Y557248D01*
X837668Y557186D02*
X838055Y557181D01*
X837679Y551740D02*
X842126Y553863D01*
X917549Y537333D02*
X917550Y537334D01*
X917549Y537332D02*
X917549Y537333D01*
X915876Y535007D02*
X917549Y537332D01*
X915876Y535006D02*
X915876Y535007D01*
X915875Y535005D02*
X915876Y535006D01*
X914543Y532436D02*
X915861Y534981D01*
X913598Y529699D02*
X914532Y532409D01*
X913060Y526855D02*
X913590Y529672D01*
X884582Y529058D02*
X884583Y529056D01*
X895219Y514588D01*
X895220Y514587D01*
X871226Y547773D02*
X884583Y529056D01*
X884583Y529055D01*
X912941Y523962D02*
X913056Y526826D01*
X912941Y523933D02*
X913243Y521082D01*
X913248Y521054D02*
X913248Y521053D01*
X913960Y518279D01*
X913960Y518278D01*
X863713Y528087D02*
X866590Y526873D01*
X869214Y525416D01*
X873541Y521955D02*
X875073Y520153D01*
X876068Y518511D01*
X869214Y525416D02*
X871554Y523752D01*
X873541Y521955D01*
X864605Y535681D02*
X864613Y535428D01*
X864584Y535248D02*
X864613Y535428D01*
X864488Y536192D02*
X864605Y535681D01*
X864538Y535119D02*
X864584Y535248D01*
X864471Y535007D02*
X864538Y535119D01*
X864145Y537020D02*
X864488Y536192D01*
X864377Y534901D02*
X864471Y535007D01*
X864268Y534816D02*
X864377Y534901D01*
X864132Y534738D02*
X864268Y534816D01*
X862967Y539085D02*
X862968Y539083D01*
X864145Y537020D01*
X863968Y534669D02*
X864132Y534738D01*
X863702Y534594D02*
X863968Y534669D01*
X863203Y534520D02*
X863702Y534594D01*
X862240Y534503D02*
X863203Y534520D01*
X849635Y537020D02*
X856487Y535393D01*
X849632Y537021D02*
X849635Y537020D01*
X856487Y535393D02*
X862240Y534503D01*
X852911Y530114D02*
X857047Y529723D01*
X860561Y529041D02*
X863713Y528087D01*
X854539Y519862D02*
X860871Y517316D01*
X857047Y529723D02*
X860561Y529041D01*
X848032Y530156D02*
X852911Y530114D01*
X839889Y529702D02*
X848032Y530156D01*
X846763Y523339D02*
X854539Y519862D01*
X839486Y526877D02*
X846763Y523339D01*
X837536Y529474D02*
X839889Y529702D01*
X833861Y598771D02*
X833861Y598771D01*
X833862Y598771D01*
X842431Y587715D01*
X842431Y587715D01*
X842432Y587714D01*
X827280Y589546D02*
X828868Y588270D01*
X833901Y582557D02*
X837767Y577372D01*
X828868Y588270D02*
X831050Y586010D01*
X833901Y582557D01*
X826634Y607551D02*
X833858Y598775D01*
X820244Y614798D02*
X820244Y614798D01*
X820245Y614797D01*
X826629Y607557D01*
X826630Y607556D01*
X826630Y607556D01*
X826805Y589839D02*
X827280Y589546D01*
X826344Y590071D02*
X826805Y589839D01*
X825945Y590221D02*
X826344Y590071D01*
X825611Y590302D02*
X825945Y590221D01*
X835761Y557984D02*
X836386Y557596D01*
X835027Y558575D02*
X835761Y557984D01*
X836386Y557596D02*
X836832Y557390D01*
X837260Y557254D02*
X837668Y557186D01*
X836832Y557390D02*
X837260Y557254D01*
X828539Y568866D02*
X830546Y564788D01*
X826591Y573694D02*
X828539Y568866D01*
X824986Y578671D02*
X826591Y573694D01*
X832422Y561687D02*
X834007Y559616D01*
X835027Y558575D01*
X830546Y564788D02*
X832422Y561687D01*
X825158Y590327D02*
X825378Y590329D01*
X825611Y590302D01*
X824953Y590295D02*
X825158Y590327D01*
X824762Y590234D02*
X824953Y590295D01*
X824584Y590142D02*
X824762Y590234D01*
X824400Y590000D02*
X824584Y590142D01*
X824195Y589769D02*
X824400Y590000D01*
X823978Y589393D02*
X824195Y589769D01*
X823817Y588959D02*
X823978Y589393D01*
X823612Y587825D02*
X823817Y588959D01*
X823612Y587825D02*
X823619Y585682D01*
X824628Y559861D02*
X824900Y558518D01*
X824941Y557176D01*
X824765Y555865D02*
X824941Y557176D01*
X824387Y554615D02*
X824765Y555865D01*
X824046Y582616D02*
X824986Y578671D01*
X823619Y585682D02*
X824046Y582616D01*
X823345Y562427D02*
X824113Y561174D01*
X824628Y559861D01*
X820870Y564755D02*
X822319Y563592D01*
X823345Y562427D01*
X836262Y529149D02*
X837536Y529474D01*
X836236Y529130D02*
X836262Y529149D01*
X836215Y529110D02*
X836236Y529130D01*
X836202Y529094D02*
X836215Y529110D01*
X836196Y529029D02*
X836212Y528989D01*
X836193Y529077D02*
X836202Y529094D01*
X836191Y529064D02*
X836192Y529074D01*
X836193Y529077D01*
X836191Y529064D02*
X836192Y529047D01*
X836196Y529029D01*
X849635Y537020D02*
X849637Y537019D01*
X834517Y541055D02*
X849635Y537020D01*
X827238Y545183D02*
X837679Y551740D01*
X829505Y542607D02*
X834517Y541055D01*
X836257Y528917D02*
X836436Y528723D01*
X836212Y528989D02*
X836257Y528917D01*
X837072Y528246D02*
X839486Y526877D01*
X836436Y528723D02*
X837072Y528246D01*
X830465Y522369D02*
X830640Y520786D01*
X829812Y524674D02*
X830465Y522369D01*
X830562Y519766D02*
X830640Y520786D01*
X830361Y519035D02*
X830562Y519766D01*
X830109Y518528D02*
X830361Y519035D01*
X829815Y518133D02*
X830109Y518528D01*
X827077Y544971D02*
X827238Y545183D01*
X826965Y544778D02*
X827077Y544971D01*
X826910Y544646D02*
X826965Y544778D01*
X826878Y544522D02*
X826910Y544646D01*
X826867Y544407D02*
X826877Y544285D01*
X826867Y544407D02*
X826878Y544522D01*
X823824Y553454D02*
X824387Y554615D01*
X823093Y552403D02*
X823824Y553454D01*
X822209Y551483D02*
X823093Y552403D01*
X821185Y550706D02*
X822209Y551483D01*
X827340Y543658D02*
X827912Y543295D01*
X827087Y543892D02*
X827340Y543658D01*
X826902Y544192D02*
X826965Y544058D01*
X827087Y543892D01*
X827912Y543295D02*
X829505Y542607D01*
X828548Y527596D02*
X829812Y524674D01*
X826877Y544285D02*
X826902Y544192D01*
X824102Y534782D02*
X826602Y531073D01*
X828548Y527596D01*
X821208Y538420D02*
X824102Y534782D01*
X819327Y518868D02*
X822124Y517773D01*
X918428Y510868D02*
X920508Y508981D01*
X922118Y502866D01*
X919033Y502866D02*
X922118Y502866D01*
X915090Y515581D02*
X915090Y515581D01*
X915090Y515581D01*
X916570Y513127D01*
X916570Y513126D01*
X916571Y513126D01*
X913969Y518250D02*
X915077Y515606D01*
X916587Y513103D02*
X918408Y510889D01*
X895218Y514590D02*
X895219Y514588D01*
X903560Y503678D01*
X903561Y503676D01*
X892068Y504322D02*
X894471Y501861D01*
X887598Y507597D02*
X889762Y506229D01*
X892068Y504322D01*
X881995Y508933D02*
X882889Y508967D01*
X883816Y508893D01*
X880999Y508754D02*
X881995Y508933D01*
X885686Y508438D02*
X887598Y507597D01*
X883816Y508893D02*
X885686Y508438D01*
X880084Y508435D02*
X880999Y508754D01*
X899348Y494556D02*
X899360Y494355D01*
X899346Y494252D02*
X899360Y494355D01*
X899229Y495001D02*
X899348Y494556D01*
X899320Y494175D02*
X899346Y494252D01*
X899287Y494116D02*
X899320Y494175D01*
X899243Y494066D02*
X899287Y494116D01*
X899180Y494018D02*
X899243Y494066D01*
X899109Y493979D02*
X899180Y494018D01*
X899020Y493945D02*
X899109Y493979D01*
X898872Y493906D02*
X899020Y493945D01*
X898588Y493871D02*
X898872Y493906D01*
X894471Y501861D02*
X896826Y498957D01*
X880941Y498356D02*
X883256Y497212D01*
X898546Y496386D02*
X899229Y495001D01*
X896826Y498957D02*
X898546Y496386D01*
X898042Y493870D02*
X898588Y493871D01*
X886217Y496183D02*
X898042Y493870D01*
X883256Y497212D02*
X886217Y496183D01*
X918871Y502782D02*
X918872Y502783D01*
X912010Y493127D02*
X918871Y502782D01*
X903559Y503680D02*
X903560Y503678D01*
X912010Y493127D01*
X898622Y474119D02*
X898622Y474118D01*
X898622Y474118D01*
X908952Y451148D01*
X902691Y445458D02*
X908952Y451148D01*
X907948Y440457D02*
X907968Y440432D01*
X907987Y440397D02*
X908002Y440351D01*
X907968Y440432D02*
X907987Y440397D01*
X908013Y440293D02*
X908020Y440189D01*
X908013Y440080D02*
X908020Y440189D01*
X908002Y440351D02*
X908013Y440293D01*
X901429Y482084D02*
X903310Y480884D01*
X898940Y483315D02*
X901429Y482084D01*
X898641Y474313D02*
X903310Y480884D01*
X888270Y487000D02*
X894493Y485048D01*
X898940Y483315D01*
X907775Y440519D02*
X907852Y440508D01*
X907632Y440514D02*
X907775Y440519D01*
X907852Y440508D02*
X907898Y440492D01*
X907307Y440440D02*
X907632Y440514D01*
X907898Y440492D02*
X907930Y440473D01*
X907948Y440457D01*
X906573Y440137D02*
X907307Y440440D01*
X904637Y439010D02*
X906573Y440137D01*
X895700Y439541D02*
X902691Y445458D01*
X895698Y439539D02*
X895700Y439541D01*
X876068Y518511D02*
X876478Y517410D01*
X876584Y516235D02*
X876592Y516740D01*
X876478Y517410D02*
X876592Y516740D01*
X876507Y515857D02*
X876584Y516235D01*
X876382Y515550D02*
X876507Y515857D01*
X876203Y515273D02*
X876382Y515550D01*
X865786Y515640D02*
X869475Y514685D01*
X844342Y516747D02*
X846013Y516678D01*
X860871Y517316D02*
X865786Y515640D01*
X842779Y516523D02*
X844342Y516747D01*
X847770Y516328D02*
X850238Y515467D01*
X846013Y516678D02*
X847770Y516328D01*
X875968Y515026D02*
X876203Y515273D01*
X875673Y514809D02*
X875968Y515026D01*
X875316Y514624D02*
X875673Y514809D01*
X874896Y514475D02*
X875316Y514624D01*
X874233Y514333D02*
X874896Y514475D01*
X869475Y514685D02*
X871971Y514305D01*
X873355Y514258D02*
X874233Y514333D01*
X871971Y514305D02*
X873355Y514258D01*
X850238Y515467D02*
X853343Y513987D01*
X829457Y517796D02*
X829815Y518133D01*
X829035Y517517D02*
X829457Y517796D01*
X828548Y517295D02*
X829035Y517517D01*
X828000Y517132D02*
X828548Y517295D01*
X824613Y517152D02*
X826140Y516985D01*
X827176Y517005D02*
X828000Y517132D01*
X826140Y516985D02*
X827176Y517005D01*
X822124Y517773D02*
X824613Y517152D01*
X841951Y516264D02*
X842779Y516523D01*
X841188Y515914D02*
X841951Y516264D01*
X840539Y515500D02*
X841188Y515914D01*
X840118Y515147D02*
X840539Y515500D01*
X839757Y514760D02*
X840118Y515147D01*
X839465Y514343D02*
X839757Y514760D01*
X839248Y513903D02*
X839465Y514343D01*
X839113Y513442D02*
X839248Y513903D01*
X839108Y512471D02*
X839251Y511966D01*
X839064Y512964D02*
X839113Y513442D01*
X839064Y512964D02*
X839108Y512471D01*
X879262Y507987D02*
X880084Y508435D01*
X878549Y507424D02*
X879262Y507987D01*
X877956Y506763D02*
X878549Y507424D01*
X877498Y506020D02*
X877956Y506763D01*
X877185Y505214D02*
X877498Y506020D01*
X877202Y502604D02*
X877594Y501629D01*
X877031Y503488D02*
X877202Y502604D01*
X877027Y504364D02*
X877185Y505214D01*
X877027Y504364D02*
X877031Y503488D01*
X879312Y499519D02*
X880941Y498356D01*
X878281Y500581D02*
X879312Y499519D01*
X877594Y501629D02*
X878281Y500581D01*
X865349Y492952D02*
X888270Y487000D01*
X853343Y513987D02*
X866247Y506582D01*
X845325Y507650D02*
X848714Y506657D01*
X842836Y508703D02*
X845325Y507650D01*
X866589Y506231D02*
X866688Y506079D01*
X866730Y505983D01*
X866247Y506582D02*
X866589Y506231D01*
X866743Y505923D02*
X866745Y505888D01*
X866741Y505844D02*
X866745Y505888D01*
X866730Y505983D02*
X866743Y505923D01*
X848714Y506657D02*
X853022Y505812D01*
X840062Y510693D02*
X841097Y509766D01*
X839536Y511392D02*
X840062Y510693D01*
X839251Y511966D02*
X839536Y511392D01*
X841097Y509766D02*
X842836Y508703D01*
X822858Y506167D02*
X831913Y502802D01*
X814477Y509670D02*
X822851Y506170D01*
X866730Y505808D02*
X866741Y505844D01*
X866708Y505766D02*
X866730Y505808D01*
X866672Y505719D02*
X866708Y505766D01*
X866619Y505668D02*
X866672Y505719D01*
X866548Y505616D02*
X866619Y505668D01*
X866421Y505545D02*
X866548Y505616D01*
X866164Y505441D02*
X866421Y505545D01*
X865646Y505306D02*
X866164Y505441D01*
X853022Y505812D02*
X857777Y505250D01*
X865646Y505306D01*
X865346Y492952D02*
X865348Y492952D01*
X852709Y496318D02*
X865346Y492952D01*
X852708Y496319D02*
X852709Y496318D01*
X841779Y499541D02*
X841780Y499540D01*
X841778Y499541D02*
X841779Y499541D01*
X831920Y502799D02*
X841778Y499541D01*
X831919Y502799D02*
X831920Y502799D01*
X831918Y502800D02*
X831919Y502799D01*
X852703Y496320D02*
X852704Y496320D01*
X852702Y496320D02*
X852703Y496320D01*
X841786Y499538D02*
X852702Y496320D01*
X841786Y499539D02*
X841786Y499538D01*
X841785Y499539D02*
X841786Y499539D01*
X814465Y620862D02*
X820239Y614803D01*
X809165Y625955D02*
X814458Y620868D01*
X809104Y611896D02*
X811979Y609371D01*
X806456Y613764D02*
X809104Y611896D01*
X804265Y630219D02*
X809158Y625962D01*
X799706Y633761D02*
X804256Y630226D01*
X803393Y615267D02*
X804627Y614763D01*
X806456Y613764D01*
X802416Y615536D02*
X803393Y615267D01*
X801773Y615628D02*
X802416Y615536D01*
X811979Y609371D02*
X814810Y606359D01*
X810069Y605494D02*
X810070Y605494D01*
X810069Y605495D02*
X810069Y605494D01*
X808023Y607125D02*
X810069Y605495D01*
X808022Y607126D02*
X808023Y607125D01*
X808021Y607127D02*
X808022Y607126D01*
X814810Y606359D02*
X817303Y603143D01*
X810086Y605479D02*
X810087Y605479D01*
X810088Y605478D01*
X812455Y603079D01*
X812455Y603079D01*
X812456Y603078D01*
X808000Y607141D02*
X808000Y607141D01*
X807999Y607142D02*
X808000Y607141D01*
X805888Y608390D02*
X807999Y607142D01*
X805888Y608390D02*
X805888Y608390D01*
X805887Y608391D02*
X805888Y608390D01*
X805879Y608395D02*
X805879Y608395D01*
X805879Y608395D02*
X805879Y608395D01*
X801341Y610782D02*
X805879Y608395D01*
X805684Y602597D02*
X807469Y601078D01*
X801781Y604536D02*
X803719Y603771D01*
X805684Y602597D01*
X801210Y615632D02*
X801773Y615628D01*
X800726Y615554D02*
X801210Y615632D01*
X800552Y615499D02*
X800726Y615554D01*
X800391Y615431D02*
X800552Y615499D01*
X800173Y615305D02*
X800391Y615431D01*
X799991Y615157D02*
X800173Y615305D01*
X799696Y633768D02*
X799697Y633768D01*
X799696Y633768D02*
X799696Y633768D01*
X795448Y636664D02*
X799696Y633768D01*
X795448Y636664D02*
X795448Y636664D01*
X795447Y636665D02*
X795448Y636664D01*
X799825Y614964D02*
X799991Y615157D01*
X799684Y614720D02*
X799825Y614964D01*
X799581Y614413D02*
X799684Y614720D01*
X800023Y612282D02*
X800570Y611517D01*
X799695Y613002D02*
X800023Y612282D01*
X799531Y614034D02*
X799555Y613578D01*
X799531Y614034D02*
X799581Y614413D01*
X799555Y613578D02*
X799695Y613002D01*
X800570Y611517D02*
X801341Y610782D01*
X799675Y605012D02*
X801781Y604536D01*
X797415Y605179D02*
X799675Y605012D01*
X795044Y605018D02*
X797415Y605179D01*
X792639Y604522D02*
X795044Y605018D01*
X820937Y595430D02*
X820942Y595054D01*
X820842Y596060D02*
X820937Y595430D01*
X820911Y594834D02*
X820942Y595054D01*
X820873Y594707D02*
X820911Y594834D01*
X820840Y594636D02*
X820873Y594707D01*
X819057Y600359D02*
X820243Y597928D01*
X820842Y596060D01*
X817303Y603143D02*
X819057Y600359D01*
X812465Y603069D02*
X818960Y595498D01*
X819662Y594898D02*
X820058Y594640D01*
X820798Y594574D02*
X820840Y594636D01*
X820058Y594640D02*
X820282Y594535D01*
X818960Y595498D02*
X819662Y594898D01*
X820757Y594533D02*
X820798Y594574D01*
X820719Y594508D02*
X820757Y594533D01*
X820676Y594489D02*
X820719Y594508D01*
X820625Y594477D02*
X820676Y594489D01*
X820409Y594494D02*
X820491Y594478D01*
X820282Y594535D02*
X820409Y594494D01*
X820564Y594473D02*
X820625Y594477D01*
X820491Y594478D02*
X820564Y594473D01*
X814264Y586839D02*
X814906Y583401D01*
X813194Y590714D02*
X814264Y586839D01*
X814906Y583401D02*
X814993Y581512D01*
X814900Y580843D02*
X814993Y581512D01*
X814771Y580424D02*
X814900Y580843D01*
X807469Y601078D02*
X809100Y599183D01*
X810594Y596865D01*
X811959Y594063D02*
X813194Y590714D01*
X810594Y596865D02*
X811959Y594063D01*
X800334Y581343D02*
X805186Y580069D01*
X795544Y582960D02*
X800334Y581343D01*
X814640Y580159D02*
X814771Y580424D01*
X814436Y579878D02*
X814640Y580159D01*
X814203Y579663D02*
X814436Y579878D01*
X813919Y579483D02*
X814203Y579663D01*
X813579Y579338D02*
X813919Y579483D01*
X813182Y579228D02*
X813579Y579338D01*
X809212Y579314D02*
X811400Y579110D01*
X812553Y579135D02*
X813182Y579228D01*
X811400Y579110D02*
X812553Y579135D01*
X805186Y580069D02*
X809212Y579314D01*
X777662Y643697D02*
X780808Y643138D01*
X777640Y643700D02*
X777641Y643700D01*
X774655Y643906D02*
X777640Y643700D01*
X774654Y643906D02*
X774655Y643906D01*
X787689Y640831D02*
X787690Y640830D01*
X787689Y640831D02*
X787689Y640831D01*
X784169Y642188D02*
X787689Y640831D01*
X784169Y642188D02*
X784169Y642188D01*
X784168Y642188D02*
X784169Y642188D01*
X787704Y640824D02*
X791443Y639006D01*
X784150Y642194D02*
X784151Y642194D01*
X780829Y643134D02*
X784150Y642194D01*
X780828Y643134D02*
X780829Y643134D01*
X774632Y643906D02*
X774633Y643906D01*
X774631Y643906D02*
X774632Y643906D01*
X771788Y643782D02*
X774631Y643906D01*
X771787Y643782D02*
X771788Y643782D01*
X771786Y643782D02*
X771787Y643782D01*
X771763Y643779D02*
X771764Y643779D01*
X769046Y643340D02*
X771763Y643779D01*
X769044Y643340D02*
X769046Y643340D01*
X766131Y642485D02*
X769021Y643334D01*
X766105Y642476D02*
X766107Y642476D01*
X763344Y641250D02*
X766105Y642476D01*
X763343Y641249D02*
X763344Y641250D01*
X760674Y639626D02*
X763321Y641237D01*
X791456Y638999D02*
X795436Y636672D01*
X790307Y603711D02*
X792639Y604522D01*
X787945Y602504D02*
X790307Y603711D01*
X786103Y601200D02*
X787945Y602504D01*
X784729Y599897D02*
X786103Y601200D01*
X760653Y639610D02*
X760654Y639611D01*
X758125Y637602D02*
X760653Y639610D01*
X758124Y637601D02*
X758125Y637602D01*
X783888Y598854D02*
X784729Y599897D01*
X759363Y599914D02*
X760475Y599450D01*
X762116Y598486D01*
X758105Y637585D02*
X758106Y637586D01*
X755699Y635161D02*
X758105Y637585D01*
X755698Y635160D02*
X755699Y635161D01*
X753413Y632285D02*
X755683Y635144D01*
X753401Y632269D02*
X753401Y632269D01*
X753400Y632268D02*
X753401Y632269D01*
X751292Y628967D02*
X753400Y632268D01*
X751292Y628966D02*
X751292Y628967D01*
X751291Y628966D02*
X751292Y628966D01*
X751282Y628950D02*
X751283Y628951D01*
X751282Y628949D02*
X751282Y628950D01*
X749368Y625202D02*
X751282Y628949D01*
X749367Y625201D02*
X749368Y625202D01*
X749367Y625200D02*
X749367Y625201D01*
X747677Y621003D02*
X749360Y625185D01*
X747671Y620987D02*
X747671Y620988D01*
X747671Y620986D02*
X747671Y620987D01*
X746263Y616403D02*
X747671Y620986D01*
X746262Y616402D02*
X746263Y616403D01*
X746262Y616402D02*
X746262Y616402D01*
X746258Y616386D02*
X746258Y616387D01*
X745166Y611454D02*
X746258Y616386D01*
X745166Y611453D02*
X745166Y611454D01*
X744482Y606759D02*
X745163Y611439D01*
X744481Y606746D02*
X744481Y606746D01*
X744481Y606745D02*
X744481Y606746D01*
X744109Y601908D02*
X744481Y606745D01*
X744109Y601908D02*
X744109Y601908D01*
X744109Y601908D02*
X744109Y601908D01*
X757526Y600174D02*
X757930Y600190D01*
X758362Y600155D01*
X759363Y599914D01*
X757074Y600087D02*
X757526Y600174D01*
X756669Y599929D02*
X757074Y600087D01*
X756306Y599700D02*
X756669Y599929D01*
X755947Y599364D02*
X756306Y599700D01*
X755614Y598903D02*
X755947Y599364D01*
X755253Y598132D02*
X755614Y598903D01*
X788532Y586334D02*
X791592Y584656D01*
X786243Y587960D02*
X788532Y586334D01*
X791592Y584656D02*
X795544Y582960D01*
X783225Y597770D02*
X783888Y598854D01*
X782752Y596658D02*
X783225Y597770D01*
X782547Y593273D02*
X782901Y592138D01*
X782479Y595531D02*
X782752Y596658D01*
X784594Y589524D02*
X786243Y587960D01*
X783468Y591025D02*
X784594Y589524D01*
X782901Y592138D02*
X783468Y591025D01*
X785618Y580990D02*
X785952Y580972D01*
X785318Y580965D02*
X785618Y580990D01*
X785054Y580898D02*
X785318Y580965D01*
X787309Y580620D02*
X798300Y575089D01*
X786454Y580883D02*
X787309Y580620D01*
X785952Y580972D02*
X786454Y580883D01*
X784821Y580790D02*
X785054Y580898D01*
X784616Y580638D02*
X784821Y580790D01*
X784432Y580440D02*
X784616Y580638D01*
X784292Y580228D02*
X784432Y580440D01*
X784169Y579980D02*
X784292Y580228D01*
X783997Y579471D02*
X784169Y579980D01*
X783845Y578648D02*
X783997Y579471D01*
X764122Y596965D02*
X766801Y594459D01*
X782409Y594400D02*
X782479Y595531D01*
X782409Y594400D02*
X782547Y593273D01*
X766801Y594459D02*
X769675Y591219D01*
X762116Y598486D02*
X764122Y596965D01*
X754902Y596687D02*
X755253Y598132D01*
X754762Y594343D02*
X754902Y596687D01*
X744058Y596962D02*
X744108Y601895D01*
X754762Y594343D02*
X755008Y591124D01*
X744058Y596949D02*
X744059Y596948D01*
X744336Y591968D01*
X744337Y591966D01*
X744338Y591954D02*
X744338Y591954D01*
X744338Y591953D01*
X744945Y586958D01*
X744945Y586958D01*
X744945Y586958D01*
X772177Y587883D02*
X774349Y584449D01*
X769675Y591219D02*
X772177Y587883D01*
X774349Y584449D02*
X776035Y581186D01*
X777183Y578276D01*
X758221Y579107D02*
X759630Y576162D01*
X755708Y587201D02*
X756883Y582806D01*
X755008Y591124D02*
X755708Y587201D01*
X756883Y582806D02*
X758221Y579107D01*
X745885Y581953D02*
X747147Y577012D01*
X744947Y586945D02*
X744947Y586944D01*
X745882Y581966D01*
X745883Y581965D01*
X816814Y566618D02*
X819053Y565773D01*
X814085Y567256D02*
X816814Y566618D01*
X820034Y550079D02*
X821185Y550706D01*
X819053Y565773D02*
X820870Y564755D01*
X818766Y549608D02*
X820034Y550079D01*
X806913Y567705D02*
X810802Y567637D01*
X802427Y567399D02*
X806913Y567705D01*
X810802Y567637D02*
X814085Y567256D01*
X805691Y550808D02*
X809590Y549766D01*
X812758Y549231D01*
X797516Y566691D02*
X802427Y567399D01*
X799484Y552945D02*
X805691Y550808D01*
X817393Y549293D02*
X818766Y549608D01*
X815572Y542900D02*
X815721Y542903D01*
X815890Y542883D01*
X815409Y549109D02*
X817393Y549293D01*
X812758Y549231D02*
X815409Y549109D01*
X815425Y542871D02*
X815572Y542900D01*
X798716Y574608D02*
X798721Y574568D01*
X798718Y574521D02*
X798721Y574568D01*
X798699Y574663D02*
X798716Y574608D01*
X798555Y574870D02*
X798660Y574738D01*
X798699Y574663D01*
X798300Y575089D02*
X798555Y574870D01*
X798705Y574472D02*
X798718Y574521D01*
X798672Y574399D02*
X798705Y574472D01*
X798623Y574325D02*
X798672Y574399D01*
X798552Y574244D02*
X798623Y574325D01*
X798422Y574125D02*
X798552Y574244D01*
X798164Y573939D02*
X798422Y574125D01*
X796843Y546868D02*
X799545Y544636D01*
X793595Y549084D02*
X796843Y546868D01*
X792705Y565652D02*
X797516Y566691D01*
X788417Y564390D02*
X792705Y565652D01*
X793433Y555264D02*
X799484Y552945D01*
X793431Y555265D02*
X793433Y555264D01*
X789879Y551192D02*
X793595Y549084D01*
X793433Y555264D02*
X793435Y555263D01*
X787778Y557570D02*
X793433Y555264D01*
X816049Y542846D02*
X816215Y542791D01*
X815890Y542883D02*
X816049Y542846D01*
X815300Y542820D02*
X815425Y542871D01*
X815183Y542744D02*
X815300Y542820D01*
X816903Y542447D02*
X817714Y541878D01*
X821208Y538420D01*
X816215Y542791D02*
X816903Y542447D01*
X815067Y542632D02*
X815183Y542744D01*
X814925Y542427D02*
X815067Y542632D01*
X814748Y542020D02*
X814925Y542427D01*
X814076Y536572D02*
X814748Y542020D01*
X814074Y536561D02*
X814074Y536562D01*
X813514Y533320D02*
X814074Y536561D01*
X813513Y533319D02*
X813514Y533320D01*
X811910Y527498D02*
X813509Y533300D01*
X813192Y523169D02*
X814577Y521796D01*
X812440Y524266D02*
X813192Y523169D01*
X816583Y520348D02*
X819327Y518868D01*
X814577Y521796D02*
X816583Y520348D01*
X811886Y525920D02*
X812064Y525140D01*
X811842Y526706D02*
X811910Y527498D01*
X811842Y526706D02*
X811886Y525920D01*
X812064Y525140D02*
X812440Y524266D01*
X806701Y513321D02*
X814469Y509674D01*
X806693Y513325D02*
X806693Y513324D01*
X806692Y513325D02*
X806693Y513325D01*
X799482Y517123D02*
X806692Y513325D01*
X799481Y517124D02*
X799482Y517123D01*
X799480Y517124D02*
X799481Y517124D01*
X805714Y534428D02*
X805735Y532832D01*
X805295Y536401D02*
X805714Y534428D01*
X805502Y531585D02*
X805735Y532832D01*
X805164Y530728D02*
X805502Y531585D01*
X799545Y544636D02*
X801700Y542446D01*
X803343Y540333D01*
X804749Y530066D02*
X805164Y530728D01*
X803343Y540333D02*
X804525Y538313D01*
X805295Y536401D01*
X804303Y529584D02*
X804749Y530066D01*
X794104Y533139D02*
X798847Y529820D01*
X803852Y529247D02*
X804303Y529584D01*
X803357Y529001D02*
X803852Y529247D01*
X802819Y528847D02*
X803357Y529001D01*
X801619Y528819D02*
X802240Y528785D01*
X802819Y528847D01*
X800956Y528947D02*
X801619Y528819D01*
X800003Y529267D02*
X800956Y528947D01*
X798847Y529820D02*
X800003Y529267D01*
X799472Y517129D02*
X799473Y517128D01*
X799472Y517129D02*
X799472Y517129D01*
X792781Y521079D02*
X799472Y517129D01*
X792781Y521079D02*
X792781Y521079D01*
X792780Y521080D02*
X792781Y521079D01*
X784754Y569904D02*
X784854Y569731D01*
X784636Y570173D02*
X784754Y569904D01*
X783762Y576874D02*
X783845Y578648D01*
X783762Y576874D02*
X784636Y570173D01*
X786649Y569456D02*
X798164Y573939D01*
X784961Y569593D02*
X785087Y569476D01*
X785195Y569406D01*
X784854Y569731D02*
X784961Y569593D01*
X777824Y575798D02*
X778035Y573756D01*
X777927Y572265D02*
X778035Y573756D01*
X777646Y571189D02*
X777927Y572265D01*
X785533Y569308D02*
X785883Y569308D01*
X786649Y569456D01*
X785345Y569345D02*
X785533Y569308D01*
X785195Y569406D02*
X785345Y569345D01*
X784579Y562711D02*
X788417Y564390D01*
X783955Y562290D02*
X784579Y562711D01*
X783594Y561982D02*
X783955Y562290D01*
X783353Y561717D02*
X783594Y561982D01*
X783222Y561527D02*
X783353Y561717D01*
X777255Y570353D02*
X777646Y571189D01*
X777183Y578276D02*
X777824Y575798D01*
X763901Y570880D02*
X765260Y569907D01*
X776741Y569641D02*
X777255Y570353D01*
X776113Y569051D02*
X776741Y569641D01*
X765260Y569907D02*
X766710Y569109D01*
X759630Y576162D02*
X761129Y573807D01*
X762646Y572021D01*
X763901Y570880D01*
X747151Y577000D02*
X748736Y572115D01*
X748740Y572104D02*
X748740Y572102D01*
X750645Y567290D01*
X750646Y567289D01*
X775384Y568581D02*
X776113Y569051D01*
X774563Y568227D02*
X775384Y568581D01*
X773665Y567989D02*
X774563Y568227D01*
X772708Y567862D02*
X773665Y567989D01*
X771361Y567859D02*
X772708Y567862D01*
X768234Y568493D02*
X769798Y568071D01*
X771361Y567859D01*
X766710Y569109D02*
X768234Y568493D01*
X750651Y567277D02*
X752876Y562542D01*
X783129Y561344D02*
X783222Y561527D01*
X783073Y561168D02*
X783129Y561344D01*
X783096Y560682D02*
X783184Y560472D01*
X783380Y560180D01*
X783051Y560997D02*
X783061Y560831D01*
X783051Y560997D02*
X783073Y561168D01*
X783061Y560831D02*
X783096Y560682D01*
X784993Y558939D02*
X787778Y557570D01*
X783780Y559774D02*
X784993Y558939D01*
X783380Y560180D02*
X783780Y559774D01*
X773832Y556215D02*
X775235Y556147D01*
X785889Y553063D02*
X789879Y551192D01*
X781549Y554690D02*
X785889Y553063D01*
X787032Y539042D02*
X794104Y533139D01*
X787031Y539043D02*
X787032Y539042D01*
X786573Y525186D02*
X792772Y521085D01*
X780835Y529441D02*
X786564Y525192D01*
X777831Y555715D02*
X781549Y554690D01*
X774912Y549803D02*
X778242Y546650D01*
X775235Y556147D02*
X777831Y555715D01*
X772801Y552148D02*
X774912Y549803D01*
X787032Y539042D02*
X787034Y539041D01*
X778242Y546650D02*
X787032Y539042D01*
X775549Y533841D02*
X780827Y529448D01*
X770698Y538381D02*
X775540Y533848D01*
X773064Y556163D02*
X773832Y556215D01*
X772584Y556076D02*
X773064Y556163D01*
X772187Y555950D02*
X772584Y556076D01*
X771872Y555786D02*
X772187Y555950D01*
X771736Y555682D02*
X771872Y555786D01*
X771623Y555568D02*
X771736Y555682D01*
X752882Y562532D02*
X755427Y557885D01*
X771527Y555430D02*
X771623Y555568D01*
X771458Y555280D02*
X771527Y555430D01*
X755434Y557874D02*
X758637Y552821D01*
X771414Y555100D02*
X771458Y555280D01*
X771431Y554601D02*
X771537Y554218D01*
X771401Y554852D02*
X771414Y555100D01*
X771401Y554852D02*
X771431Y554601D01*
X771795Y553642D02*
X772801Y552148D01*
X771537Y554218D02*
X771795Y553642D01*
X758645Y552810D02*
X762247Y547880D01*
X766269Y543060D02*
X766270Y543059D01*
X766271Y543058D01*
X770689Y538390D01*
X770689Y538390D01*
X770690Y538389D01*
X762254Y547871D02*
X762255Y547870D01*
X762255Y547870D01*
X766261Y543069D01*
X766262Y543069D01*
X766262Y543068D01*
X915121Y437429D02*
X922746Y420441D01*
X911565Y432554D02*
X915121Y437429D01*
X911564Y432552D02*
X911565Y432554D01*
X899680Y435532D02*
X904637Y439010D01*
X895700Y439541D02*
X895702Y439543D01*
X885967Y431774D02*
X895700Y439541D01*
X885965Y431772D02*
X885967Y431774D01*
X901101Y427511D02*
X908013Y440080D01*
X911565Y432554D02*
X911567Y432556D01*
X908059Y427485D02*
X911565Y432554D01*
X893820Y431091D02*
X899680Y435532D01*
X891929Y429557D02*
X893820Y431091D01*
X903160Y419911D02*
X908059Y427485D01*
X899092Y424656D02*
X901101Y427511D01*
X897357Y422634D02*
X899092Y424656D01*
X895823Y421318D02*
X897357Y422634D01*
X894760Y420704D02*
X895823Y421318D01*
X893789Y420368D02*
X894760Y420704D01*
X890358Y428153D02*
X891929Y429557D01*
X889170Y426876D02*
X890358Y428153D01*
X888610Y426086D02*
X889170Y426876D01*
X888381Y422877D02*
X888759Y422281D01*
X888316Y425523D02*
X888610Y426086D01*
X888126Y424979D02*
X888316Y425523D01*
X888155Y423430D02*
X888381Y422877D01*
X888050Y423936D02*
X888155Y423430D01*
X888039Y424451D02*
X888126Y424979D01*
X888039Y424451D02*
X888050Y423936D01*
X890546Y420800D02*
X891299Y420484D01*
X889859Y421221D02*
X890546Y420800D01*
X891299Y420484D02*
X892100Y420295D01*
X889256Y421722D02*
X889859Y421221D01*
X892934Y420251D02*
X893789Y420368D01*
X892100Y420295D02*
X892934Y420251D01*
X888759Y422281D02*
X889256Y421722D01*
X883916Y419595D02*
X884223Y419342D01*
X883569Y419792D02*
X883916Y419595D01*
X921857Y418464D02*
X922746Y420441D01*
X919651Y417499D02*
X921857Y418464D01*
X956627Y417262D02*
X956627Y417262D01*
X956627Y417262D02*
X956627Y417262D01*
X932370Y301410D02*
X956627Y417262D01*
X932370Y301410D02*
X932370Y301410D01*
X932370Y301410D02*
X932370Y301410D01*
X909190Y417499D02*
X919651D01*
X898569Y412192D02*
X903160Y419911D01*
X908997Y417264D02*
X908997Y417263D01*
X931983Y301413D01*
X931984Y301412D01*
X888866Y413600D02*
X889204Y413058D01*
X889365Y412640D01*
X894254Y404269D02*
X898569Y412192D01*
X890178Y396060D02*
X894254Y404269D01*
X889365Y412640D02*
X889426Y412321D01*
X889429Y411958D01*
X889359Y411572D02*
X889429Y411958D01*
X889207Y411171D02*
X889359Y411572D01*
X886289Y387426D02*
X890178Y396060D01*
X888970Y410762D02*
X889207Y411171D01*
X888646Y410350D02*
X888970Y410762D01*
X887337Y415217D02*
X888866Y413600D01*
X888237Y409944D02*
X888646Y410350D01*
X886178Y416513D02*
X887333Y415221D01*
X887558Y409426D02*
X888237Y409944D01*
X886632Y408902D02*
X887558Y409426D01*
X885557Y408466D02*
X886632Y408902D01*
X884496Y419043D02*
X886160Y416536D01*
X886160Y416536D01*
X886161Y416535D01*
X884223Y419342D02*
X884496Y419043D01*
X884363Y408144D02*
X885557Y408466D01*
X884817Y403539D02*
X884856Y403409D01*
X884890Y403191D02*
X884898Y402911D01*
X884856Y403409D02*
X884890Y403191D01*
X884495Y403867D02*
X884588Y403828D01*
X884376Y403893D02*
X884495Y403867D01*
X884178Y403898D02*
X884376Y403893D01*
X883807Y403838D02*
X884178Y403898D01*
X884650Y403786D02*
X884712Y403725D01*
X884588Y403828D02*
X884650Y403786D01*
X884712Y403725D02*
X884769Y403644D01*
X884817Y403539D01*
X882663Y420003D02*
X883173Y419928D01*
X881951Y419973D02*
X882663Y420003D01*
X880817Y419706D02*
X881951Y419973D01*
X883173Y419928D02*
X883569Y419792D01*
X879421Y419105D02*
X880817Y419706D01*
X877995Y418212D02*
X879421Y419105D01*
X885967Y431774D02*
X885969Y431775D01*
X873427Y422235D02*
X885967Y431774D01*
X873425Y422234D02*
X873427Y422235D01*
X876811Y417215D02*
X877995Y418212D01*
X876038Y416375D02*
X876811Y417215D01*
X875404Y415478D02*
X876038Y416375D01*
X874941Y414550D02*
X875404Y415478D01*
X874744Y411907D02*
X874991Y411260D01*
X883085Y407955D02*
X884363Y408144D01*
X880444Y408020D02*
X881764Y407912D01*
X879169Y408280D02*
X880444Y408020D01*
X881764Y407912D02*
X883085Y407955D01*
X877982Y408688D02*
X879169Y408280D01*
X875407Y410584D02*
X876037Y409897D01*
X876926Y409232D01*
X874991Y411260D02*
X875407Y410584D01*
X876926Y409232D02*
X877982Y408688D01*
X874673Y413613D02*
X874941Y414550D01*
X874629Y412514D02*
X874744Y411907D01*
X874612Y413060D02*
X874673Y413613D01*
X874612Y413060D02*
X874629Y412514D01*
X873427Y422235D02*
X873428Y422236D01*
X855854Y409288D02*
X873427Y422235D01*
X870913Y406792D02*
X872606Y405937D01*
X867859Y407619D02*
X869196Y407361D01*
X866528Y407709D02*
X867859Y407619D01*
X869196Y407361D02*
X870913Y406792D01*
X874584Y404084D02*
X874683Y403820D01*
X872606Y405937D02*
X873775Y405081D01*
X874348Y404468D02*
X874584Y404084D01*
X873775Y405081D02*
X874348Y404468D01*
X865246Y407621D02*
X866528Y407709D01*
X864049Y407356D02*
X865246Y407621D01*
X862965Y406919D02*
X864049Y407356D01*
X862017Y406325D02*
X862965Y406919D01*
X861220Y405589D02*
X862017Y406325D01*
X860585Y404731D02*
X861220Y405589D01*
X883033Y403574D02*
X883807Y403838D01*
X881193Y402651D02*
X883033Y403574D01*
X882892Y396304D02*
X884898Y402911D01*
X878602Y401033D02*
X881193Y402651D01*
X876513Y399398D02*
X878602Y401033D01*
X860075Y403657D02*
X860585Y404731D01*
X874683Y403820D02*
X874716Y403616D01*
X874710Y403437D02*
X874716Y403616D01*
X874671Y403262D02*
X874710Y403437D01*
X874596Y403087D02*
X874671Y403262D01*
X874486Y402910D02*
X874596Y403087D01*
X874344Y402737D02*
X874486Y402910D01*
X859750Y402343D02*
X860075Y403657D01*
X869567Y398776D02*
X874344Y402737D01*
X869567Y398776D02*
X869567Y398776D01*
X869567Y398776D02*
X869567Y398776D01*
X874799Y397645D02*
X876513Y399398D01*
X880976Y392211D02*
X882892Y396304D01*
X878869Y388490D02*
X880976Y392211D01*
X873384Y395673D02*
X874799Y397645D01*
X872353Y393658D02*
X873384Y395673D01*
X869534Y398741D02*
X869534Y398741D01*
X869534Y398741D02*
X869534Y398741D01*
X868149Y396851D02*
X869534Y398741D01*
X868149Y396851D02*
X868149Y396851D01*
X868149Y396851D02*
X868149Y396851D01*
X860037Y398409D02*
X860853Y395899D01*
X866970Y394599D02*
X868133Y396826D01*
X871587Y391444D02*
X872353Y393658D01*
X860853Y395899D02*
X863726Y390233D01*
X865610Y391129D02*
X866961Y394579D01*
X859672Y401461D02*
X859750Y402343D01*
X859672Y401461D02*
X859689Y400552D01*
X860037Y398409D01*
X855267Y395472D02*
X855783Y395433D01*
X856093Y395358D02*
X856279Y395281D01*
X855783Y395433D02*
X856093Y395358D01*
X855853Y409287D02*
X855854Y409288D01*
X828398Y389085D02*
X855853Y409287D01*
X828397Y389084D02*
X828398Y389085D01*
X853923Y395337D02*
X855267Y395472D01*
X851335Y394656D02*
X853923Y395337D01*
X856728Y394801D02*
X856780Y394642D01*
X856815Y394462D02*
X856834Y394188D01*
X856807Y393710D02*
X856834Y394188D01*
X856780Y394642D02*
X856815Y394462D01*
X856570Y395059D02*
X856658Y394940D01*
X856728Y394801D01*
X856279Y395281D02*
X856447Y395175D01*
X856570Y395059D01*
X848040Y393394D02*
X851335Y394656D01*
X854747Y384187D02*
X856807Y393710D01*
X844299Y391572D02*
X848040Y393394D01*
X841035Y389609D02*
X844299Y391572D01*
X871150Y389274D02*
X871587Y391444D01*
X876976Y385803D02*
X878869Y388490D01*
X871022Y387426D02*
X871088Y386163D01*
X871261Y385169D01*
X871022Y387426D02*
X871150Y389274D01*
X875428Y384145D02*
X876976Y385803D01*
X866493Y385320D02*
X866586Y385179D01*
X866727Y384883D01*
X874593Y383505D02*
X875428Y384145D01*
X873824Y383122D02*
X874593Y383505D01*
X872076Y383485D02*
X872302Y383285D01*
X872545Y383139D01*
X873420Y383021D02*
X873824Y383122D01*
X872804Y383045D02*
X873083Y383004D01*
X873420Y383021D01*
X872545Y383139D02*
X872804Y383045D01*
X871457Y384528D02*
X871677Y384042D01*
X871261Y385169D02*
X871457Y384528D01*
X871866Y383738D02*
X872076Y383485D01*
X871677Y384042D02*
X871866Y383738D01*
X865053Y389898D02*
X865610Y391129D01*
X864872Y389646D02*
X865053Y389898D01*
X864762Y389542D02*
X864872Y389646D01*
X864698Y389503D02*
X864762Y389542D01*
X864643Y389481D02*
X864698Y389503D01*
X864609Y389475D02*
X864643Y389481D01*
X864559Y389474D02*
X864609Y389475D01*
X864247Y389632D02*
X864363Y389547D01*
X864050Y389823D02*
X864247Y389632D01*
X864363Y389547D02*
X864437Y389507D01*
X864515Y389480D01*
X863726Y390233D02*
X864050Y389823D01*
X864515Y389480D02*
X864559Y389474D01*
X866239Y385503D02*
X866302Y385483D01*
X866162Y385511D02*
X866239Y385503D01*
X866359Y385452D02*
X866426Y385396D01*
X866493Y385320D01*
X866302Y385483D02*
X866359Y385452D01*
X866047Y385501D02*
X866162Y385511D01*
X865850Y385443D02*
X866047Y385501D01*
X865418Y385217D02*
X865850Y385443D01*
X863744Y383870D02*
X865418Y385217D01*
X882498Y378105D02*
X886289Y387426D01*
X878592Y367421D02*
X882498Y378105D01*
X866727Y384883D02*
X869778Y377742D01*
X869778Y377741D01*
X869778Y377741D01*
X869782Y377732D02*
X869782Y377732D01*
X869782Y377731D01*
X872255Y372692D01*
X872435Y371876D02*
X872472Y371293D01*
X872255Y372692D02*
X872435Y371876D01*
X872403Y370681D02*
X872472Y371293D01*
X872230Y370137D02*
X872403Y370681D01*
X871977Y369664D02*
X872230Y370137D01*
X871626Y369201D02*
X871977Y369664D01*
X871173Y368752D02*
X871626Y369201D01*
X870406Y368173D02*
X871173Y368752D01*
X869335Y367562D02*
X870406Y368173D01*
X867597Y366834D02*
X869335Y367562D01*
X868474Y335557D02*
X878592Y367421D01*
X868474Y335555D02*
X868474Y335557D01*
X865206Y325573D02*
X868473Y335554D01*
X865326Y366173D02*
X867597Y366834D01*
X862572Y365695D02*
X865326Y366173D01*
X864034Y355827D02*
X864510Y354495D01*
X862732Y357937D02*
X863401Y357022D01*
X864034Y355827D01*
X860759Y380863D02*
X863744Y383870D01*
X859948Y365567D02*
X862572Y365695D01*
X861593Y358999D02*
X862180Y358516D01*
X862732Y357937D01*
X860347Y359648D02*
X860980Y359377D01*
X861593Y358999D01*
X864801Y353064D02*
X864882Y351577D01*
X864510Y354495D02*
X864801Y353064D01*
X864730Y350075D02*
X864882Y351577D01*
X864333Y348595D02*
X864730Y350075D01*
X863682Y347170D02*
X864333Y348595D01*
X862779Y345827D02*
X863682Y347170D01*
X861635Y344587D02*
X862779Y345827D01*
X865203Y325565D02*
X865204Y325566D01*
X862366Y317833D02*
X865203Y325565D01*
X862366Y317832D02*
X862366Y317833D01*
X860274Y343465D02*
X861635Y344587D01*
X858079Y377723D02*
X860759Y380863D01*
X856115Y374985D02*
X858079Y377723D01*
X854890Y372811D02*
X856115Y374985D01*
X854938Y367061D02*
X855470Y366645D01*
X854546Y367506D02*
X854938Y367061D01*
X854334Y371450D02*
X854890Y372811D01*
X854101Y380918D02*
X854746Y384184D01*
X854078Y370501D02*
X854334Y371450D01*
X853449Y379068D02*
X854101Y380918D01*
X853968Y369624D02*
X854078Y370501D01*
X854252Y368010D02*
X854546Y367506D01*
X854106Y368403D02*
X854252Y368010D01*
X854011Y368826D02*
X854106Y368403D01*
X857795Y365781D02*
X859948Y365567D01*
X858969Y359862D02*
X859701Y359810D01*
X860347Y359648D01*
X858142Y359762D02*
X858969Y359862D01*
X857239Y359472D02*
X858142Y359762D01*
X856352Y366193D02*
X857795Y365781D01*
X855470Y366645D02*
X856352Y366193D01*
X856145Y358880D02*
X857239Y359472D01*
X854581Y357609D02*
X856145Y358880D01*
X852901Y355747D02*
X854581Y357609D01*
X852742Y377865D02*
X853449Y379068D01*
X851975Y377001D02*
X852742Y377865D01*
X853968Y369624D02*
X854011Y368826D01*
X851128Y376340D02*
X851975Y377001D01*
X850127Y375796D02*
X851128Y376340D01*
X848977Y375377D02*
X850127Y375796D01*
X847695Y375088D02*
X848977Y375377D01*
X841224Y375419D02*
X843571Y375005D01*
X845819Y374913D02*
X847695Y375088D01*
X843571Y375005D02*
X845819Y374913D01*
X845869Y359787D02*
X845947Y361090D01*
X845801Y362365D02*
X845947Y361090D01*
X844615Y365208D02*
X845382Y363741D01*
X841765Y368260D02*
X843416Y366742D01*
X844615Y365208D01*
X845564Y358464D02*
X845869Y359787D01*
X845382Y363741D02*
X845801Y362365D01*
X845035Y357132D02*
X845564Y358464D01*
X844288Y355803D02*
X845035Y357132D01*
X858178Y342157D02*
X860274Y343465D01*
X855502Y340925D02*
X858178Y342157D01*
X852507Y330960D02*
X852541Y330897D01*
X852253Y339827D02*
X855502Y340925D01*
X844845Y343331D02*
X852901Y355747D01*
X848445Y338892D02*
X852253Y339827D01*
X852464Y331012D02*
X852507Y330960D01*
X851979Y331175D02*
X852221Y331138D01*
X852341Y331096D02*
X852417Y331052D01*
X852464Y331012D01*
X852221Y331138D02*
X852341Y331096D01*
X859651Y311388D02*
X862362Y317823D01*
X856934Y305836D02*
X859647Y311378D01*
X854142Y300955D02*
X856928Y305824D01*
X852566Y330821D02*
X852581Y330728D01*
X852583Y330619D01*
X852541Y330897D02*
X852566Y330821D01*
X852565Y330446D02*
X852583Y330619D01*
X852490Y330131D02*
X852565Y330446D01*
X851228Y296609D02*
X854135Y300943D01*
X852273Y329554D02*
X852490Y330131D01*
X847353Y320872D02*
X852273Y329554D01*
X842970Y340501D02*
X844844Y343330D01*
X842975Y354052D02*
X844288Y355803D01*
X844488Y338233D02*
X848445Y338892D01*
X840997Y352034D02*
X842975Y354052D01*
X842831Y338137D02*
X844488Y338233D01*
X841998Y338762D02*
X842970Y340501D01*
X842041Y338323D02*
X842104Y338279D01*
X842180Y338242D02*
X842318Y338198D01*
X842831Y338137D01*
X842104Y338279D02*
X842180Y338242D01*
X851493Y331155D02*
X851979Y331175D01*
X850154Y330840D02*
X851493Y331155D01*
X847683Y329852D02*
X850154Y330840D01*
X848156Y292711D02*
X851219Y296597D01*
X844597Y328197D02*
X847683Y329852D01*
X847348Y320863D02*
X847348Y320863D01*
X847347Y320862D02*
X847348Y320863D01*
X844969Y316062D02*
X847347Y320862D01*
X844969Y316062D02*
X844969Y316062D01*
X844968Y316062D02*
X844969Y316062D01*
X844964Y316052D02*
X844964Y316053D01*
X844964Y316052D02*
X844964Y316052D01*
X842682Y310708D02*
X844964Y316052D01*
X842681Y310708D02*
X842682Y310708D01*
X842681Y310707D02*
X842681Y310708D01*
X841778Y326292D02*
X844597Y328197D01*
X848145Y292699D02*
X848146Y292699D01*
X848145Y292698D02*
X848145Y292699D01*
X844893Y289198D02*
X848145Y292698D01*
X844893Y289197D02*
X844893Y289198D01*
X844892Y289197D02*
X844893Y289197D01*
X840584Y305705D02*
X842681Y310706D01*
X841410Y286027D02*
X844881Y289186D01*
X838470Y387694D02*
X841035Y389609D01*
X836838Y386160D02*
X838470Y387694D01*
X835702Y384785D02*
X836838Y386160D01*
X835267Y378817D02*
X836042Y377958D01*
X835075Y383766D02*
X835702Y384785D01*
X834815Y379565D02*
X835267Y378817D01*
X834652Y382769D02*
X835075Y383766D01*
X834438Y381798D02*
X834652Y382769D01*
X834411Y381405D02*
X834438Y381798D01*
X834549Y380274D02*
X834815Y379565D01*
X834421Y381020D02*
X834549Y380274D01*
X834411Y381405D02*
X834421Y381020D01*
X839049Y376125D02*
X841224Y375419D01*
X837252Y377040D02*
X839049Y376125D01*
X839631Y369720D02*
X841765Y368260D01*
X838430Y349966D02*
X840997Y352034D01*
X836042Y377958D02*
X837252Y377040D01*
X837027Y371057D02*
X839631Y369720D01*
X835322Y347945D02*
X838430Y349966D01*
X834033Y372192D02*
X837027Y371057D01*
X831897Y346152D02*
X835322Y347945D01*
X827666Y373547D02*
X830823Y373042D01*
X834033Y372192D01*
X825490Y355608D02*
X825490Y355607D01*
X825576Y353465D01*
X825576Y353464D01*
X824570Y373698D02*
X827666Y373547D01*
X822396Y373530D02*
X824570Y373698D01*
X825008Y357909D02*
X825008Y357908D01*
X825486Y355642D01*
X825486Y355641D01*
X824115Y360243D02*
X824999Y357939D01*
X822752Y362762D02*
X822753Y362762D01*
X822753Y362761D01*
X824104Y360267D01*
X824104Y360267D01*
X824105Y360266D01*
X828957Y344960D02*
X831897Y346152D01*
X825309Y351153D02*
X825574Y353433D01*
X824095Y344957D02*
X824152Y344815D01*
X826653Y344337D02*
X828957Y344960D01*
X824631Y344375D02*
X824924Y344283D01*
X824442Y344479D02*
X824631Y344375D01*
X824226Y344691D02*
X824317Y344583D01*
X824152Y344815D02*
X824226Y344691D01*
X824317Y344583D02*
X824442Y344479D01*
X825304Y351130D02*
X825305Y351131D01*
X824028Y345672D02*
X825304Y351130D01*
X824026Y345366D02*
X824055Y345117D01*
X824095Y344957D01*
X824026Y345366D02*
X824028Y345672D01*
X841968Y338638D02*
X841998Y338762D01*
X841986Y338392D02*
X842008Y338358D01*
X842041Y338323D01*
X841971Y338430D02*
X841986Y338392D01*
X841959Y338555D02*
X841960Y338486D01*
X841959Y338555D02*
X841968Y338638D01*
X841960Y338486D02*
X841971Y338430D01*
X839466Y324329D02*
X841778Y326292D01*
X837680Y322370D02*
X839466Y324329D01*
X836363Y320396D02*
X837680Y322370D01*
X835533Y318568D02*
X836363Y320396D01*
X832062Y337802D02*
X832141Y337645D01*
X832248Y337339D02*
X832370Y336733D01*
X832141Y337645D02*
X832248Y337339D01*
X832370Y336733D02*
X832449Y335525D01*
X832293Y333142D02*
X832449Y335525D01*
X831752Y330321D02*
X832293Y333142D01*
X825784Y344232D02*
X826653Y344337D01*
X824924Y344283D02*
X825251Y344236D01*
X825784Y344232D01*
X831749Y338090D02*
X831804Y338069D01*
X831874Y338025D01*
X831582Y338107D02*
X831673Y338106D01*
X831749Y338090D01*
X831937Y337970D02*
X832001Y337896D01*
X832062Y337802D01*
X831874Y338025D02*
X831937Y337970D01*
X831454Y338084D02*
X831582Y338107D01*
X831224Y337996D02*
X831454Y338084D01*
X830694Y337654D02*
X831224Y337996D01*
X830860Y327533D02*
X831752Y330321D01*
X829693Y325008D02*
X830860Y327533D01*
X827143Y334281D02*
X830694Y337654D01*
X827142Y334280D02*
X827143Y334281D01*
X828301Y322797D02*
X829693Y325008D01*
X824292Y331788D02*
X827136Y334275D01*
X826712Y320890D02*
X828301Y322797D01*
X824931Y319260D02*
X826712Y320890D01*
X822718Y317746D02*
X824931Y319260D01*
X821184Y373282D02*
X822396Y373530D01*
X820414Y373030D02*
X821184Y373282D01*
X819835Y372762D02*
X820414Y373030D01*
X819470Y372537D02*
X819835Y372762D01*
X819162Y372292D02*
X819470Y372537D01*
X818911Y372030D02*
X819162Y372292D01*
X814120Y378204D02*
X828394Y389082D01*
X818717Y371750D02*
X818911Y372030D01*
X818577Y371453D02*
X818717Y371750D01*
X818481Y371100D02*
X818577Y371453D01*
X818447Y370675D02*
X818492Y370193D01*
X818447Y370675D02*
X818481Y371100D01*
X818618Y369675D02*
X818929Y368872D01*
X818492Y370193D02*
X818618Y369675D01*
X818929Y368872D02*
X822746Y362773D01*
X822746Y362772D01*
X822747Y362771D01*
X817321Y353784D02*
X817666Y351890D01*
X817766Y349838D01*
X816120Y356808D02*
X816765Y355485D01*
X817321Y353784D01*
X817563Y347494D02*
X817766Y349838D01*
X817024Y345131D02*
X817563Y347494D01*
X816149Y342785D02*
X817024Y345131D01*
X810879Y360214D02*
X811926Y360126D01*
X813564Y359518D02*
X814276Y359028D01*
X812812Y359878D02*
X813564Y359518D01*
X811926Y360126D02*
X812812Y359878D01*
X802187Y368691D02*
X814117Y378201D01*
X792511Y360550D02*
X802183Y368688D01*
X809670Y360088D02*
X810879Y360214D01*
X807861Y359543D02*
X809670Y360088D01*
X805523Y358385D02*
X807861Y359543D01*
X784415Y353307D02*
X792507Y360546D01*
X814943Y358410D02*
X815561Y357668D01*
X814276Y359028D02*
X814943Y358410D01*
X815561Y357668D02*
X816120Y356808D01*
X802675Y356525D02*
X805523Y358385D01*
X798608Y353386D02*
X802675Y356525D01*
X792618Y348202D02*
X798608Y353386D01*
X777571Y346748D02*
X784410Y353303D01*
X787519Y343359D02*
X792618Y348202D01*
X771779Y340749D02*
X777566Y346743D01*
X814935Y340476D02*
X816149Y342785D01*
X813180Y337966D02*
X814935Y340476D01*
X810983Y335527D02*
X813180Y337966D01*
X820998Y329403D02*
X824278Y331777D01*
X817358Y327245D02*
X820983Y329393D01*
X808331Y333180D02*
X810983Y335527D01*
X805230Y330965D02*
X808331Y333180D01*
X783683Y339316D02*
X787519Y343359D01*
X801720Y328940D02*
X805230Y330965D01*
X797893Y327182D02*
X801720Y328940D01*
X817338Y327235D02*
X817340Y327235D01*
X803266Y320819D02*
X817338Y327235D01*
X793908Y325775D02*
X797893Y327182D01*
X802120Y320122D02*
X803266Y320819D01*
X801548Y319671D02*
X802120Y320122D01*
X801260Y319378D02*
X801548Y319671D01*
X801095Y319165D02*
X801260Y319378D01*
X800972Y318957D02*
X801095Y319165D01*
X800889Y318755D02*
X800972Y318957D01*
X800846Y318558D02*
X800889Y318755D01*
X790375Y324875D02*
X793908Y325775D01*
X787097Y324360D02*
X790375Y324875D01*
X784249Y324224D02*
X787097Y324360D01*
X780963Y336028D02*
X783683Y339316D01*
X778218Y331619D02*
X780963Y336028D01*
X777761Y330458D02*
X778218Y331619D01*
X777508Y329492D02*
X777761Y330458D01*
X777417Y328819D02*
X777508Y329492D01*
X777411Y328188D02*
X777417Y328819D01*
X777411Y328188D02*
X777491Y327604D01*
X766897Y335229D02*
X771773Y340743D01*
X766891Y335222D02*
X766891Y335223D01*
X766890Y335221D02*
X766891Y335222D01*
X762816Y330131D02*
X766890Y335221D01*
X762815Y330130D02*
X762816Y330131D01*
X762815Y330130D02*
X762815Y330130D01*
X759445Y325408D02*
X762809Y330122D01*
X778666Y325717D02*
X779175Y325359D01*
X778243Y326122D02*
X778666Y325717D01*
X781941Y324419D02*
X784249Y324224D01*
X780191Y324873D02*
X781941Y324419D01*
X779175Y325359D02*
X780191Y324873D01*
X777656Y327066D02*
X777906Y326572D01*
X778243Y326122D01*
X777491Y327604D02*
X777656Y327066D01*
X759438Y325398D02*
X759439Y325399D01*
X759438Y325397D02*
X759438Y325398D01*
X756711Y321027D02*
X759438Y325397D01*
X756710Y321026D02*
X756711Y321027D01*
X756709Y321025D02*
X756710Y321026D01*
X754544Y316952D02*
X756703Y321014D01*
X839820Y304357D02*
X840584Y305705D01*
X837181Y305100D02*
X837634Y304394D01*
X836504Y306494D02*
X837181Y305100D01*
X837634Y304394D02*
X837928Y304038D01*
X839423Y303885D02*
X839820Y304357D01*
X835016Y316627D02*
X835533Y318568D01*
X834816Y314476D02*
X835016Y316627D01*
X834816Y314476D02*
X834985Y311981D01*
X835581Y309164D01*
X836504Y306494D01*
X839232Y303727D02*
X839423Y303885D01*
X839044Y303622D02*
X839232Y303727D01*
X838928Y303582D02*
X839044Y303622D01*
X838811Y303563D02*
X838928Y303582D01*
X838695Y303566D02*
X838811Y303563D01*
X838324Y303703D02*
X838452Y303635D01*
X838141Y303836D02*
X838324Y303703D01*
X838576Y303589D02*
X838695Y303566D01*
X838452Y303635D02*
X838576Y303589D01*
X837928Y304038D02*
X838141Y303836D01*
X820257Y316537D02*
X822718Y317746D01*
X817548Y315638D02*
X820257Y316537D01*
X818227Y308207D02*
X820232Y307524D01*
X821310Y306921D01*
X814618Y315069D02*
X817548Y315638D01*
X811529Y314853D02*
X814618Y315069D01*
X808417Y315006D02*
X811529Y314853D01*
X815424Y308718D02*
X818227Y308207D01*
X811983Y308955D02*
X815424Y308718D01*
X808008Y308839D02*
X811983Y308955D01*
X822622Y305150D02*
X822675Y304743D01*
X822661Y304314D02*
X822675Y304743D01*
X822501Y305537D02*
X822622Y305150D01*
X822577Y303861D02*
X822661Y304314D01*
X821917Y306408D02*
X822287Y305945D01*
X822501Y305537D01*
X821310Y306921D02*
X821917Y306408D01*
X822425Y303388D02*
X822577Y303861D01*
X822112Y302721D02*
X822425Y303388D01*
X821616Y301933D02*
X822112Y302721D01*
X820726Y300827D02*
X821616Y301933D01*
X829587Y299957D02*
X829633Y299915D01*
X829678Y299855D02*
X829720Y299775D01*
X829758Y299674D01*
X829633Y299915D02*
X829678Y299855D01*
X829362Y300004D02*
X829448Y300007D01*
X829504Y299997D02*
X829548Y299981D01*
X829587Y299957D01*
X829448Y300007D02*
X829504Y299997D01*
X829230Y299974D02*
X829362Y300004D01*
X829074Y299913D02*
X829230Y299974D01*
X838064Y283446D02*
X841397Y286017D01*
X834500Y281112D02*
X838051Y283437D01*
X830700Y279019D02*
X834487Y281104D01*
X829799Y299504D02*
X829835Y299180D01*
X829758Y299674D02*
X829799Y299504D01*
X829818Y298555D02*
X829835Y299180D01*
X829684Y297681D02*
X829818Y298555D01*
X830687Y279013D02*
X830688Y279013D01*
X830686Y279012D02*
X830687Y279013D01*
X826652Y277172D02*
X830686Y279012D01*
X826651Y277171D02*
X826652Y277172D01*
X826651Y277171D02*
X826651Y277171D01*
X829297Y296281D02*
X829684Y297681D01*
X828546Y294475D02*
X829297Y296281D01*
X828517Y299568D02*
X829074Y299913D01*
X825044Y296465D02*
X828517Y299568D01*
X827433Y292536D02*
X828546Y294475D01*
X825895Y290514D02*
X827433Y292536D01*
X818941Y299075D02*
X820726Y300827D01*
X816068Y296788D02*
X818941Y299075D01*
X812043Y294079D02*
X816068Y296788D01*
X821279Y293270D02*
X825040Y296462D01*
X824055Y288647D02*
X825895Y290514D01*
X821661Y286760D02*
X824055Y288647D01*
X818919Y285092D02*
X821661Y286760D01*
X826637Y277166D02*
X826638Y277166D01*
X822346Y275576D02*
X826637Y277166D01*
X822345Y275576D02*
X822346Y275576D01*
X822332Y275571D02*
X822332Y275571D01*
X822331Y275571D02*
X822332Y275571D01*
X817783Y274244D02*
X822331Y275571D01*
X817782Y274244D02*
X817783Y274244D01*
X817782Y274244D02*
X817782Y274244D01*
X815902Y283699D02*
X818919Y285092D01*
X812798Y282665D02*
X815902Y283699D01*
X809973Y282089D02*
X812798Y282665D01*
X808117Y282005D02*
X809973Y282089D01*
X817769Y274241D02*
X817770Y274241D01*
X817768Y274241D02*
X817769Y274241D01*
X812977Y273193D02*
X817768Y274241D01*
X812977Y273193D02*
X812977Y273193D01*
X812976Y273192D02*
X812977Y273193D01*
X812962Y273190D02*
X812964Y273190D01*
X807958Y272438D02*
X812962Y273190D01*
X807957Y272438D02*
X807958Y272438D01*
X802015Y316890D02*
X803375Y316197D01*
X801381Y317384D02*
X802015Y316890D01*
X801155Y317633D02*
X801381Y317384D01*
X805520Y315512D02*
X808417Y315006D01*
X804582Y308393D02*
X808008Y308839D01*
X803375Y316197D02*
X805520Y315512D01*
X800873Y318168D02*
X800915Y318039D01*
X800841Y318365D02*
X800873Y318168D01*
X800841Y318365D02*
X800846Y318558D01*
X800974Y317910D02*
X801155Y317633D01*
X800915Y318039D02*
X800974Y317910D01*
X802057Y307761D02*
X804582Y308393D01*
X800700Y307230D02*
X802057Y307761D01*
X806823Y291017D02*
X812043Y294079D01*
X800786Y287893D02*
X806823Y291017D01*
X799868Y306779D02*
X800700Y307230D01*
X799193Y306287D02*
X799868Y306779D01*
X798667Y305756D02*
X799193Y306287D01*
X798247Y305137D02*
X798667Y305756D01*
X797939Y304411D02*
X798247Y305137D01*
X795594Y285546D02*
X800786Y287893D01*
X797748Y303611D02*
X797939Y304411D01*
X754537Y316938D02*
X754537Y316939D01*
X754537Y316938D02*
X754537Y316938D01*
X752888Y313160D02*
X754537Y316938D01*
X752888Y313159D02*
X752888Y313160D01*
X752887Y313158D02*
X752888Y313159D01*
X797527Y300630D02*
X797748Y303611D01*
X797527Y300629D02*
X797527Y300630D01*
X797527Y300628D02*
X797527Y300629D01*
X797526Y300621D02*
X797526Y300622D01*
X797526Y300621D02*
X797526Y300621D01*
X797257Y298292D02*
X797526Y300621D01*
X797257Y298292D02*
X797257Y298292D01*
X797257Y298292D02*
X797257Y298292D01*
X796616Y295915D02*
X797252Y298263D01*
X752881Y313142D02*
X752882Y313143D01*
X751692Y309622D02*
X752881Y313142D01*
X751691Y309621D02*
X751692Y309622D01*
X750910Y306312D02*
X751686Y309603D01*
X750906Y306293D02*
X750906Y306293D01*
X750906Y306292D02*
X750906Y306293D01*
X750506Y303211D02*
X750906Y306292D01*
X750506Y303210D02*
X750506Y303211D01*
X750506Y303210D02*
X750506Y303210D01*
X750504Y303187D02*
X750504Y303189D01*
X750450Y300294D02*
X750504Y303187D01*
X750450Y300292D02*
X750450Y300294D01*
X750451Y300269D02*
X750719Y297537D01*
X795562Y293526D02*
X796606Y295887D01*
X795549Y293503D02*
X795550Y293504D01*
X793969Y290882D02*
X795549Y293503D01*
X793969Y290881D02*
X793969Y290882D01*
X793959Y290866D02*
X793960Y290868D01*
X789510Y284730D02*
X793959Y290866D01*
X751305Y294901D02*
X751305Y294900D01*
X752296Y292174D01*
X752297Y292173D01*
X750723Y297514D02*
X751298Y294925D01*
X755451Y287051D02*
X755451Y287050D01*
X755452Y287049D01*
X757607Y284701D01*
X757607Y284700D01*
X757608Y284700D01*
X752307Y292149D02*
X752308Y292149D01*
X752308Y292148D01*
X753672Y289559D01*
X753672Y289558D01*
X753673Y289557D01*
X753686Y289536D02*
X755436Y287069D01*
X821267Y293261D02*
X821268Y293261D01*
X821266Y293260D02*
X821267Y293261D01*
X807289Y283185D02*
X821266Y293260D01*
X807126Y282968D02*
X807289Y283185D01*
X807036Y282815D02*
X807126Y282968D01*
X806985Y282694D02*
X807036Y282815D01*
X806964Y282617D02*
X806985Y282694D01*
X806967Y282441D02*
X806987Y282393D01*
X807009Y282359D01*
X806955Y282550D02*
X806956Y282492D01*
X806955Y282550D02*
X806964Y282617D01*
X806956Y282492D02*
X806967Y282441D01*
X791889Y284186D02*
X795594Y285546D01*
X790144Y283800D02*
X791889Y284186D01*
X807108Y282265D02*
X807248Y282186D01*
X807037Y282326D02*
X807108Y282265D01*
X807551Y282086D02*
X808117Y282005D01*
X807248Y282186D02*
X807551Y282086D01*
X807009Y282359D02*
X807037Y282326D01*
X802772Y271996D02*
X807944Y272436D01*
X797494Y271877D02*
X802760Y271995D01*
X785914Y272759D02*
X791619Y272126D01*
X797480Y271877D02*
X797481Y271877D01*
X791633Y272125D02*
X797480Y271877D01*
X791632Y272125D02*
X791633Y272125D01*
X789375Y284435D02*
X789510Y284730D01*
X789305Y284185D02*
X789375Y284435D01*
X789305Y284013D02*
X789317Y283972D01*
X789335Y283939D02*
X789354Y283915D01*
X789317Y283972D02*
X789335Y283939D01*
X789298Y284123D02*
X789305Y284185D01*
X789298Y284065D02*
X789298Y284123D01*
X789298Y284065D02*
X789305Y284013D01*
X789508Y283829D02*
X789696Y283794D01*
X789445Y283853D02*
X789508Y283829D01*
X789696Y283794D02*
X790144Y283800D01*
X789354Y283915D02*
X789390Y283884D01*
X789445Y283853D01*
X760213Y282454D02*
X760213Y282454D01*
X760213Y282455D02*
X760213Y282454D01*
X757624Y284684D02*
X760213Y282455D01*
X757624Y284684D02*
X757624Y284684D01*
X757624Y284685D02*
X757624Y284684D01*
X780485Y273747D02*
X785900Y272761D01*
X775460Y275042D02*
X780471Y273750D01*
X766835Y278382D02*
X766835Y278382D01*
X766834Y278383D02*
X766835Y278382D01*
X763298Y280331D02*
X766834Y278383D01*
X763297Y280331D02*
X763298Y280331D01*
X763297Y280332D02*
X763297Y280331D01*
X760230Y282441D02*
X763280Y280342D01*
X775444Y275047D02*
X775446Y275046D01*
X770907Y276599D02*
X775444Y275047D01*
X770906Y276599D02*
X770907Y276599D01*
X770890Y276605D02*
X770891Y276605D01*
X770889Y276606D02*
X770890Y276605D01*
X766852Y278374D02*
X770889Y276606D01*
X766851Y278375D02*
X766852Y278374D01*
X766850Y278375D02*
X766851Y278375D01*
D100*
X1102576Y546869D02*
D03*
X1007664Y547385D02*
D03*
X1063679Y368493D02*
D03*
X1042221Y361642D02*
D03*
X1093582Y276172D02*
D03*
X1046883Y291348D02*
D03*
X956627Y417262D02*
D03*
X995704Y340208D02*
D03*
X915090Y515581D02*
D03*
X805879Y608395D02*
D03*
X744109Y601908D02*
D03*
X744945Y586958D02*
D03*
X869567Y398776D02*
D03*
X869534Y398741D02*
D03*
X868149Y396851D02*
D03*
X932370Y301410D02*
D03*
X797257Y298292D02*
D03*
M02*
