G04 Layer_Color=16711935*
%FSLAX25Y25*%
%MOIN*%
G70*
G01*
G75*
%ADD60R,0.03556X0.02768*%
%ADD61R,0.04343X0.04737*%
%ADD66R,0.04737X0.04343*%
%ADD69R,0.03556X0.02375*%
%ADD70R,0.01784X0.02375*%
%ADD71R,0.02768X0.03556*%
%ADD83R,0.08595X0.08595*%
%ADD84O,0.01784X0.04343*%
%ADD85O,0.04343X0.01784*%
%ADD86R,0.01811X0.01378*%
%ADD87R,0.03359X0.08674*%
%ADD88R,0.03556X0.04737*%
%ADD89R,0.03162X0.04737*%
%ADD90R,0.08280X0.08280*%
%ADD91R,0.07887X0.08280*%
%ADD92R,0.09068X0.06115*%
%ADD93R,0.02375X0.07099*%
%ADD94R,0.03937X0.03248*%
%ADD95P,0.05127X8X22.5*%
%ADD96R,0.01457X0.01673*%
%ADD97R,0.02375X0.01784*%
%ADD98R,0.02375X0.03556*%
G36*
X927638Y349700D02*
X927267D01*
Y351397D01*
X926306Y349700D01*
X925887D01*
Y352022D01*
X926258D01*
Y350306D01*
X927223Y352022D01*
X927638D01*
Y349700D01*
D02*
G37*
G36*
X929065Y352044D02*
X929145Y352030D01*
X929221Y352015D01*
X929283Y351993D01*
X929338Y351975D01*
X929360Y351964D01*
X929378Y351957D01*
X929392Y351950D01*
X929403Y351942D01*
X929407Y351939D01*
X929410D01*
X929476Y351895D01*
X929534Y351848D01*
X929585Y351797D01*
X929625Y351749D01*
X929658Y351706D01*
X929683Y351669D01*
X929691Y351655D01*
X929698Y351644D01*
X929702Y351640D01*
Y351637D01*
X929735Y351560D01*
X929760Y351484D01*
X929778Y351403D01*
X929789Y351334D01*
X929796Y351273D01*
X929800Y351243D01*
X929804Y351221D01*
Y351203D01*
Y351189D01*
Y351182D01*
Y351178D01*
Y350494D01*
X929800Y350406D01*
X929785Y350322D01*
X929771Y350250D01*
X929749Y350188D01*
X929731Y350137D01*
X929713Y350097D01*
X929709Y350082D01*
X929702Y350071D01*
X929698Y350068D01*
Y350064D01*
X929654Y349998D01*
X929607Y349940D01*
X929560Y349893D01*
X929512Y349849D01*
X929469Y349820D01*
X929436Y349795D01*
X929410Y349780D01*
X929407Y349776D01*
X929403D01*
X929330Y349744D01*
X929254Y349718D01*
X929181Y349704D01*
X929112Y349689D01*
X929054Y349682D01*
X929028D01*
X929006Y349678D01*
X928963D01*
X928872Y349682D01*
X928792Y349696D01*
X928715Y349711D01*
X928650Y349733D01*
X928599Y349751D01*
X928577Y349758D01*
X928559Y349769D01*
X928544Y349773D01*
X928533Y349780D01*
X928530Y349784D01*
X928526D01*
X928461Y349827D01*
X928402Y349875D01*
X928351Y349926D01*
X928308Y349973D01*
X928279Y350017D01*
X928253Y350053D01*
X928246Y350068D01*
X928238Y350079D01*
X928235Y350082D01*
Y350086D01*
X928202Y350162D01*
X928177Y350242D01*
X928158Y350319D01*
X928144Y350392D01*
X928137Y350453D01*
Y350479D01*
X928133Y350501D01*
Y350519D01*
Y350534D01*
Y350541D01*
Y350545D01*
Y350974D01*
X928941D01*
Y350610D01*
X928526D01*
Y350537D01*
X928530Y350486D01*
X928533Y350435D01*
X928544Y350392D01*
X928551Y350355D01*
X928562Y350326D01*
X928573Y350301D01*
X928577Y350286D01*
X928581Y350282D01*
X928602Y350242D01*
X928628Y350210D01*
X928653Y350181D01*
X928679Y350159D01*
X928701Y350140D01*
X928719Y350126D01*
X928730Y350119D01*
X928734Y350115D01*
X928770Y350097D01*
X928810Y350082D01*
X928850Y350075D01*
X928886Y350068D01*
X928916Y350064D01*
X928941Y350060D01*
X928963D01*
X929010Y350064D01*
X929057Y350068D01*
X929097Y350079D01*
X929130Y350090D01*
X929159Y350097D01*
X929181Y350108D01*
X929196Y350111D01*
X929199Y350115D01*
X929236Y350137D01*
X929265Y350162D01*
X929290Y350188D01*
X929312Y350210D01*
X929330Y350231D01*
X929341Y350250D01*
X929349Y350261D01*
X929352Y350264D01*
X929370Y350301D01*
X929385Y350341D01*
X929392Y350381D01*
X929400Y350417D01*
X929403Y350446D01*
X929407Y350472D01*
Y350486D01*
Y350494D01*
Y351178D01*
X929403Y351232D01*
X929400Y351280D01*
X929392Y351323D01*
X929381Y351360D01*
X929370Y351389D01*
X929363Y351414D01*
X929360Y351429D01*
X929356Y351433D01*
X929334Y351473D01*
X929309Y351505D01*
X929283Y351535D01*
X929258Y351556D01*
X929236Y351575D01*
X929218Y351589D01*
X929207Y351596D01*
X929203Y351600D01*
X929163Y351622D01*
X929123Y351637D01*
X929087Y351647D01*
X929050Y351655D01*
X929021Y351658D01*
X928996Y351662D01*
X928974D01*
X928908Y351655D01*
X928879Y351651D01*
X928854Y351644D01*
X928832Y351637D01*
X928814Y351633D01*
X928803Y351626D01*
X928799D01*
X928741Y351593D01*
X928715Y351575D01*
X928693Y351560D01*
X928679Y351546D01*
X928664Y351531D01*
X928657Y351524D01*
X928653Y351520D01*
X928613Y351465D01*
X928588Y351414D01*
X928577Y351393D01*
X928570Y351374D01*
X928566Y351360D01*
Y351356D01*
X928151D01*
X928169Y351433D01*
X928191Y351502D01*
X928217Y351564D01*
X928246Y351615D01*
X928268Y351658D01*
X928289Y351691D01*
X928304Y351713D01*
X928308Y351720D01*
X928355Y351775D01*
X928402Y351822D01*
X928450Y351866D01*
X928497Y351899D01*
X928537Y351924D01*
X928570Y351946D01*
X928592Y351957D01*
X928595Y351960D01*
X928599D01*
X928664Y351990D01*
X928730Y352011D01*
X928792Y352026D01*
X928850Y352037D01*
X928901Y352044D01*
X928937Y352048D01*
X928974D01*
X929065Y352044D01*
D02*
G37*
G36*
X947865Y415244D02*
X947945Y415230D01*
X948021Y415215D01*
X948083Y415193D01*
X948138Y415175D01*
X948160Y415164D01*
X948178Y415157D01*
X948192Y415149D01*
X948203Y415142D01*
X948207Y415139D01*
X948211D01*
X948276Y415095D01*
X948334Y415048D01*
X948385Y414997D01*
X948425Y414949D01*
X948458Y414906D01*
X948483Y414869D01*
X948491Y414855D01*
X948498Y414844D01*
X948502Y414840D01*
Y414837D01*
X948534Y414760D01*
X948560Y414684D01*
X948578Y414604D01*
X948589Y414534D01*
X948596Y414472D01*
X948600Y414443D01*
X948604Y414422D01*
Y414403D01*
Y414389D01*
Y414382D01*
Y414378D01*
Y413694D01*
X948600Y413606D01*
X948585Y413522D01*
X948571Y413450D01*
X948549Y413388D01*
X948531Y413337D01*
X948513Y413297D01*
X948509Y413282D01*
X948502Y413271D01*
X948498Y413268D01*
Y413264D01*
X948454Y413199D01*
X948407Y413140D01*
X948360Y413093D01*
X948312Y413049D01*
X948269Y413020D01*
X948236Y412995D01*
X948211Y412980D01*
X948207Y412976D01*
X948203D01*
X948130Y412944D01*
X948054Y412918D01*
X947981Y412904D01*
X947912Y412889D01*
X947854Y412882D01*
X947828D01*
X947806Y412878D01*
X947763D01*
X947672Y412882D01*
X947592Y412896D01*
X947515Y412911D01*
X947450Y412933D01*
X947399Y412951D01*
X947377Y412958D01*
X947359Y412969D01*
X947344Y412973D01*
X947333Y412980D01*
X947330Y412984D01*
X947326D01*
X947260Y413027D01*
X947202Y413075D01*
X947151Y413126D01*
X947108Y413173D01*
X947079Y413217D01*
X947053Y413253D01*
X947046Y413268D01*
X947038Y413279D01*
X947035Y413282D01*
Y413286D01*
X947002Y413362D01*
X946977Y413442D01*
X946958Y413519D01*
X946944Y413592D01*
X946937Y413654D01*
Y413679D01*
X946933Y413701D01*
Y413719D01*
Y413734D01*
Y413741D01*
Y413744D01*
Y414174D01*
X947741D01*
Y413810D01*
X947326D01*
Y413737D01*
X947330Y413686D01*
X947333Y413635D01*
X947344Y413592D01*
X947351Y413555D01*
X947362Y413526D01*
X947373Y413501D01*
X947377Y413486D01*
X947381Y413482D01*
X947402Y413442D01*
X947428Y413410D01*
X947453Y413380D01*
X947479Y413359D01*
X947501Y413340D01*
X947519Y413326D01*
X947530Y413319D01*
X947534Y413315D01*
X947570Y413297D01*
X947610Y413282D01*
X947650Y413275D01*
X947686Y413268D01*
X947715Y413264D01*
X947741Y413260D01*
X947763D01*
X947810Y413264D01*
X947857Y413268D01*
X947898Y413279D01*
X947930Y413289D01*
X947959Y413297D01*
X947981Y413308D01*
X947996Y413311D01*
X947999Y413315D01*
X948036Y413337D01*
X948065Y413362D01*
X948090Y413388D01*
X948112Y413410D01*
X948130Y413431D01*
X948141Y413450D01*
X948149Y413461D01*
X948152Y413464D01*
X948170Y413501D01*
X948185Y413541D01*
X948192Y413581D01*
X948200Y413617D01*
X948203Y413646D01*
X948207Y413672D01*
Y413686D01*
Y413694D01*
Y414378D01*
X948203Y414432D01*
X948200Y414480D01*
X948192Y414523D01*
X948181Y414560D01*
X948170Y414589D01*
X948163Y414614D01*
X948160Y414629D01*
X948156Y414633D01*
X948134Y414673D01*
X948109Y414705D01*
X948083Y414735D01*
X948058Y414756D01*
X948036Y414775D01*
X948018Y414789D01*
X948007Y414796D01*
X948003Y414800D01*
X947963Y414822D01*
X947923Y414837D01*
X947887Y414847D01*
X947850Y414855D01*
X947821Y414858D01*
X947796Y414862D01*
X947774D01*
X947708Y414855D01*
X947679Y414851D01*
X947654Y414844D01*
X947632Y414837D01*
X947614Y414833D01*
X947603Y414826D01*
X947599D01*
X947541Y414793D01*
X947515Y414775D01*
X947493Y414760D01*
X947479Y414746D01*
X947464Y414731D01*
X947457Y414724D01*
X947453Y414720D01*
X947413Y414665D01*
X947388Y414614D01*
X947377Y414593D01*
X947370Y414574D01*
X947366Y414560D01*
Y414556D01*
X946951D01*
X946969Y414633D01*
X946991Y414702D01*
X947017Y414764D01*
X947046Y414815D01*
X947068Y414858D01*
X947089Y414891D01*
X947104Y414913D01*
X947108Y414920D01*
X947155Y414975D01*
X947202Y415022D01*
X947250Y415066D01*
X947297Y415099D01*
X947337Y415124D01*
X947370Y415146D01*
X947392Y415157D01*
X947395Y415160D01*
X947399D01*
X947464Y415190D01*
X947530Y415211D01*
X947592Y415226D01*
X947650Y415237D01*
X947701Y415244D01*
X947737Y415248D01*
X947774D01*
X947865Y415244D01*
D02*
G37*
G36*
X925345Y349700D02*
X925123D01*
Y350064D01*
X924962D01*
Y351658D01*
X924580D01*
X924496Y351655D01*
X924424Y351640D01*
X924358Y351622D01*
X924307Y351600D01*
X924267Y351575D01*
X924238Y351556D01*
X924220Y351542D01*
X924213Y351538D01*
X924169Y351491D01*
X924136Y351436D01*
X924114Y351382D01*
X924096Y351327D01*
X924089Y351280D01*
X924085Y351240D01*
X924082Y351225D01*
Y351214D01*
Y351207D01*
Y351203D01*
Y350519D01*
X924089Y350443D01*
X924103Y350377D01*
X924122Y350319D01*
X924147Y350272D01*
X924173Y350235D01*
X924191Y350206D01*
X924205Y350191D01*
X924213Y350184D01*
X924267Y350144D01*
X924325Y350115D01*
X924387Y350093D01*
X924446Y350079D01*
X924500Y350071D01*
X924540Y350068D01*
X924558Y350064D01*
X924962D01*
Y349700D01*
X924591D01*
X924486Y349704D01*
X924395Y349715D01*
X924311Y349733D01*
X924238Y349751D01*
X924205Y349758D01*
X924180Y349765D01*
X924154Y349776D01*
X924136Y349784D01*
X924122Y349791D01*
X924111Y349795D01*
X924103Y349798D01*
X924100D01*
X924027Y349838D01*
X923965Y349886D01*
X923914Y349933D01*
X923870Y349980D01*
X923838Y350020D01*
X923812Y350057D01*
X923798Y350079D01*
X923794Y350082D01*
Y350086D01*
X923758Y350159D01*
X923732Y350235D01*
X923714Y350308D01*
X923703Y350381D01*
X923692Y350439D01*
Y350464D01*
X923688Y350486D01*
Y350504D01*
Y350519D01*
Y350526D01*
Y350530D01*
Y351192D01*
X923692Y351287D01*
X923703Y351374D01*
X923721Y351451D01*
X923739Y351516D01*
X923761Y351567D01*
X923769Y351589D01*
X923776Y351607D01*
X923783Y351622D01*
X923790Y351633D01*
X923794Y351637D01*
Y351640D01*
X923838Y351706D01*
X923885Y351764D01*
X923940Y351815D01*
X923987Y351855D01*
X924034Y351884D01*
X924071Y351906D01*
X924085Y351913D01*
X924096Y351920D01*
X924100Y351924D01*
X924103D01*
X924183Y351957D01*
X924264Y351982D01*
X924347Y351997D01*
X924424Y352011D01*
X924489Y352019D01*
X924518D01*
X924544Y352022D01*
X924962D01*
Y351658D01*
X925123D01*
Y352022D01*
X925345D01*
Y349700D01*
D02*
G37*
G36*
X940936Y357900D02*
X940612D01*
X939844Y360222D01*
X940248D01*
X940772Y358537D01*
X941300Y360222D01*
X941704D01*
X940936Y357900D01*
D02*
G37*
G36*
X937649D02*
X937237D01*
X937084Y358340D01*
X937237D01*
Y358704D01*
X936958D01*
X937084Y358340D01*
X936189D01*
X936316Y358704D01*
X936014D01*
Y358340D01*
X936189D01*
X936036Y357900D01*
X935625D01*
X936498Y360222D01*
X936775D01*
X937649Y357900D01*
D02*
G37*
G36*
X939542D02*
X939349D01*
Y358260D01*
X939159D01*
Y358912D01*
X938581D01*
X938540Y358905D01*
X938508Y358901D01*
X938479Y358894D01*
X938457Y358886D01*
X938439Y358879D01*
X938428Y358875D01*
X938424Y358872D01*
X938395Y358857D01*
X938373Y358839D01*
X938351Y358821D01*
X938337Y358803D01*
X938322Y358785D01*
X938315Y358770D01*
X938307Y358763D01*
Y358759D01*
X938293Y358730D01*
X938286Y358701D01*
X938271Y358646D01*
Y358621D01*
X938268Y358602D01*
Y358588D01*
Y358584D01*
Y358581D01*
X938271Y358526D01*
X938282Y358479D01*
X938300Y358439D01*
X938315Y358406D01*
X938333Y358381D01*
X938351Y358359D01*
X938362Y358348D01*
X938366Y358344D01*
X938406Y358315D01*
X938453Y358297D01*
X938504Y358282D01*
X938551Y358271D01*
X938595Y358264D01*
X938632Y358260D01*
X939159D01*
Y357900D01*
X938581D01*
X938504Y357904D01*
X938431Y357911D01*
X938369Y357926D01*
X938315Y357940D01*
X938271Y357951D01*
X938238Y357965D01*
X938216Y357973D01*
X938209Y357976D01*
X938151Y358009D01*
X938104Y358042D01*
X938060Y358078D01*
X938027Y358115D01*
X938002Y358148D01*
X937980Y358173D01*
X937969Y358188D01*
X937965Y358195D01*
X937936Y358249D01*
X937918Y358308D01*
X937903Y358366D01*
X937893Y358417D01*
X937885Y358464D01*
X937882Y358501D01*
Y358515D01*
Y358526D01*
Y358530D01*
Y358533D01*
Y358537D01*
X937885Y358592D01*
X937889Y358639D01*
X937900Y358683D01*
X937907Y358723D01*
X937918Y358755D01*
X937929Y358777D01*
X937933Y358795D01*
X937936Y358799D01*
X937958Y358839D01*
X937984Y358879D01*
X938013Y358912D01*
X938038Y358941D01*
X938064Y358963D01*
X938082Y358977D01*
X938096Y358988D01*
X938100Y358992D01*
X938140Y359017D01*
X938184Y359039D01*
X938227Y359057D01*
X938264Y359068D01*
X938300Y359079D01*
X938326Y359087D01*
X938344Y359090D01*
X938351D01*
X938300Y359101D01*
X938253Y359116D01*
X938213Y359130D01*
X938177Y359149D01*
X938151Y359163D01*
X938129Y359174D01*
X938115Y359181D01*
X938111Y359185D01*
X938075Y359214D01*
X938045Y359243D01*
X938020Y359272D01*
X937998Y359301D01*
X937984Y359323D01*
X937973Y359341D01*
X937965Y359356D01*
X937962Y359360D01*
X937943Y359400D01*
X937933Y359440D01*
X937922Y359480D01*
X937918Y359516D01*
X937914Y359545D01*
X937911Y359571D01*
Y359585D01*
Y359593D01*
X937914Y359665D01*
X937922Y359727D01*
X937936Y359786D01*
X937951Y359837D01*
X937965Y359876D01*
X937980Y359906D01*
X937987Y359924D01*
X937991Y359931D01*
X938024Y359982D01*
X938060Y360026D01*
X938100Y360062D01*
X938140Y360091D01*
X938173Y360117D01*
X938202Y360131D01*
X938220Y360142D01*
X938224Y360146D01*
X938227D01*
X938289Y360171D01*
X938355Y360190D01*
X938417Y360204D01*
X938479Y360211D01*
X938530Y360219D01*
X938573Y360222D01*
X939159D01*
Y359862D01*
X939349D01*
Y360222D01*
X939542D01*
Y357900D01*
D02*
G37*
G36*
X935621Y359858D02*
X934977D01*
Y360033D01*
X934595D01*
Y359858D01*
X934977D01*
Y357900D01*
X934595D01*
Y359858D01*
X933950D01*
Y360222D01*
X935621D01*
Y359858D01*
D02*
G37*
G36*
X921965Y414944D02*
X922045Y414930D01*
X922121Y414915D01*
X922183Y414893D01*
X922238Y414875D01*
X922260Y414864D01*
X922278Y414857D01*
X922292Y414850D01*
X922303Y414842D01*
X922307Y414839D01*
X922311D01*
X922376Y414795D01*
X922434Y414748D01*
X922485Y414697D01*
X922525Y414649D01*
X922558Y414606D01*
X922583Y414569D01*
X922591Y414555D01*
X922598Y414544D01*
X922602Y414540D01*
Y414537D01*
X922635Y414460D01*
X922660Y414384D01*
X922678Y414303D01*
X922689Y414234D01*
X922696Y414173D01*
X922700Y414143D01*
X922704Y414121D01*
Y414103D01*
Y414089D01*
Y414081D01*
Y414078D01*
Y413393D01*
X922700Y413306D01*
X922685Y413222D01*
X922671Y413150D01*
X922649Y413088D01*
X922631Y413037D01*
X922613Y412997D01*
X922609Y412982D01*
X922602Y412971D01*
X922598Y412968D01*
Y412964D01*
X922554Y412898D01*
X922507Y412840D01*
X922460Y412793D01*
X922412Y412749D01*
X922369Y412720D01*
X922336Y412695D01*
X922311Y412680D01*
X922307Y412676D01*
X922303D01*
X922230Y412644D01*
X922154Y412618D01*
X922081Y412604D01*
X922012Y412589D01*
X921954Y412582D01*
X921928D01*
X921906Y412578D01*
X921863D01*
X921772Y412582D01*
X921692Y412596D01*
X921615Y412611D01*
X921550Y412633D01*
X921499Y412651D01*
X921477Y412658D01*
X921459Y412669D01*
X921444Y412673D01*
X921433Y412680D01*
X921430Y412684D01*
X921426D01*
X921360Y412727D01*
X921302Y412775D01*
X921251Y412826D01*
X921208Y412873D01*
X921179Y412917D01*
X921153Y412953D01*
X921146Y412968D01*
X921138Y412979D01*
X921135Y412982D01*
Y412986D01*
X921102Y413062D01*
X921077Y413142D01*
X921058Y413219D01*
X921044Y413292D01*
X921037Y413353D01*
Y413379D01*
X921033Y413401D01*
Y413419D01*
Y413434D01*
Y413441D01*
Y413445D01*
Y413874D01*
X921841D01*
Y413510D01*
X921426D01*
Y413437D01*
X921430Y413386D01*
X921433Y413335D01*
X921444Y413292D01*
X921451Y413255D01*
X921462Y413226D01*
X921473Y413201D01*
X921477Y413186D01*
X921481Y413182D01*
X921502Y413142D01*
X921528Y413110D01*
X921553Y413081D01*
X921579Y413059D01*
X921601Y413040D01*
X921619Y413026D01*
X921630Y413019D01*
X921634Y413015D01*
X921670Y412997D01*
X921710Y412982D01*
X921750Y412975D01*
X921786Y412968D01*
X921815Y412964D01*
X921841Y412960D01*
X921863D01*
X921910Y412964D01*
X921957Y412968D01*
X921998Y412979D01*
X922030Y412990D01*
X922059Y412997D01*
X922081Y413008D01*
X922096Y413011D01*
X922099Y413015D01*
X922136Y413037D01*
X922165Y413062D01*
X922190Y413088D01*
X922212Y413110D01*
X922230Y413131D01*
X922241Y413150D01*
X922249Y413161D01*
X922252Y413164D01*
X922270Y413201D01*
X922285Y413241D01*
X922292Y413281D01*
X922300Y413317D01*
X922303Y413346D01*
X922307Y413372D01*
Y413386D01*
Y413393D01*
Y414078D01*
X922303Y414132D01*
X922300Y414180D01*
X922292Y414223D01*
X922281Y414260D01*
X922270Y414289D01*
X922263Y414314D01*
X922260Y414329D01*
X922256Y414333D01*
X922234Y414373D01*
X922209Y414405D01*
X922183Y414435D01*
X922158Y414456D01*
X922136Y414475D01*
X922118Y414489D01*
X922107Y414496D01*
X922103Y414500D01*
X922063Y414522D01*
X922023Y414537D01*
X921987Y414547D01*
X921950Y414555D01*
X921921Y414558D01*
X921896Y414562D01*
X921874D01*
X921808Y414555D01*
X921779Y414551D01*
X921754Y414544D01*
X921732Y414537D01*
X921714Y414533D01*
X921703Y414526D01*
X921699D01*
X921641Y414493D01*
X921615Y414475D01*
X921593Y414460D01*
X921579Y414445D01*
X921564Y414431D01*
X921557Y414424D01*
X921553Y414420D01*
X921513Y414365D01*
X921488Y414314D01*
X921477Y414293D01*
X921470Y414274D01*
X921466Y414260D01*
Y414256D01*
X921051D01*
X921069Y414333D01*
X921091Y414402D01*
X921117Y414464D01*
X921146Y414515D01*
X921168Y414558D01*
X921189Y414591D01*
X921204Y414613D01*
X921208Y414620D01*
X921255Y414675D01*
X921302Y414722D01*
X921350Y414766D01*
X921397Y414799D01*
X921437Y414824D01*
X921470Y414846D01*
X921492Y414857D01*
X921495Y414860D01*
X921499D01*
X921564Y414890D01*
X921630Y414911D01*
X921692Y414926D01*
X921750Y414937D01*
X921801Y414944D01*
X921837Y414948D01*
X921874D01*
X921965Y414944D01*
D02*
G37*
G36*
X944145Y412900D02*
X943923D01*
Y413264D01*
X943762D01*
Y414858D01*
X943380D01*
X943297Y414855D01*
X943224Y414840D01*
X943158Y414822D01*
X943107Y414800D01*
X943067Y414775D01*
X943038Y414756D01*
X943020Y414742D01*
X943013Y414738D01*
X942969Y414691D01*
X942936Y414636D01*
X942914Y414582D01*
X942896Y414527D01*
X942889Y414480D01*
X942885Y414440D01*
X942882Y414425D01*
Y414414D01*
Y414407D01*
Y414403D01*
Y413719D01*
X942889Y413643D01*
X942903Y413577D01*
X942922Y413519D01*
X942947Y413472D01*
X942973Y413435D01*
X942991Y413406D01*
X943005Y413391D01*
X943013Y413384D01*
X943067Y413344D01*
X943125Y413315D01*
X943187Y413293D01*
X943246Y413279D01*
X943300Y413271D01*
X943340Y413268D01*
X943358Y413264D01*
X943762D01*
Y412900D01*
X943391D01*
X943286Y412904D01*
X943195Y412915D01*
X943111Y412933D01*
X943038Y412951D01*
X943005Y412958D01*
X942980Y412965D01*
X942954Y412976D01*
X942936Y412984D01*
X942922Y412991D01*
X942911Y412995D01*
X942903Y412998D01*
X942900D01*
X942827Y413038D01*
X942765Y413086D01*
X942714Y413133D01*
X942670Y413180D01*
X942638Y413220D01*
X942612Y413257D01*
X942598Y413279D01*
X942594Y413282D01*
Y413286D01*
X942558Y413359D01*
X942532Y413435D01*
X942514Y413508D01*
X942503Y413581D01*
X942492Y413639D01*
Y413664D01*
X942488Y413686D01*
Y413704D01*
Y413719D01*
Y413726D01*
Y413730D01*
Y414392D01*
X942492Y414487D01*
X942503Y414574D01*
X942521Y414651D01*
X942539Y414716D01*
X942561Y414767D01*
X942568Y414789D01*
X942576Y414807D01*
X942583Y414822D01*
X942590Y414833D01*
X942594Y414837D01*
Y414840D01*
X942638Y414906D01*
X942685Y414964D01*
X942740Y415015D01*
X942787Y415055D01*
X942834Y415084D01*
X942871Y415106D01*
X942885Y415113D01*
X942896Y415120D01*
X942900Y415124D01*
X942903D01*
X942984Y415157D01*
X943064Y415182D01*
X943147Y415197D01*
X943224Y415211D01*
X943289Y415219D01*
X943318D01*
X943344Y415222D01*
X943762D01*
Y414858D01*
X943923D01*
Y415222D01*
X944145D01*
Y412900D01*
D02*
G37*
G36*
X918245Y412600D02*
X918023D01*
Y412964D01*
X917862D01*
Y414558D01*
X917480D01*
X917397Y414555D01*
X917324Y414540D01*
X917258Y414522D01*
X917207Y414500D01*
X917167Y414475D01*
X917138Y414456D01*
X917120Y414442D01*
X917113Y414438D01*
X917069Y414391D01*
X917036Y414336D01*
X917014Y414282D01*
X916996Y414227D01*
X916989Y414180D01*
X916985Y414140D01*
X916982Y414125D01*
Y414114D01*
Y414107D01*
Y414103D01*
Y413419D01*
X916989Y413343D01*
X917003Y413277D01*
X917022Y413219D01*
X917047Y413171D01*
X917073Y413135D01*
X917091Y413106D01*
X917105Y413091D01*
X917113Y413084D01*
X917167Y413044D01*
X917225Y413015D01*
X917287Y412993D01*
X917346Y412979D01*
X917400Y412971D01*
X917440Y412968D01*
X917458Y412964D01*
X917862D01*
Y412600D01*
X917491D01*
X917386Y412604D01*
X917295Y412615D01*
X917211Y412633D01*
X917138Y412651D01*
X917105Y412658D01*
X917080Y412666D01*
X917054Y412676D01*
X917036Y412684D01*
X917022Y412691D01*
X917011Y412695D01*
X917003Y412698D01*
X917000D01*
X916927Y412738D01*
X916865Y412786D01*
X916814Y412833D01*
X916770Y412880D01*
X916738Y412920D01*
X916712Y412957D01*
X916698Y412979D01*
X916694Y412982D01*
Y412986D01*
X916658Y413059D01*
X916632Y413135D01*
X916614Y413208D01*
X916603Y413281D01*
X916592Y413339D01*
Y413364D01*
X916588Y413386D01*
Y413404D01*
Y413419D01*
Y413426D01*
Y413430D01*
Y414092D01*
X916592Y414187D01*
X916603Y414274D01*
X916621Y414351D01*
X916639Y414416D01*
X916661Y414467D01*
X916669Y414489D01*
X916676Y414507D01*
X916683Y414522D01*
X916690Y414533D01*
X916694Y414537D01*
Y414540D01*
X916738Y414606D01*
X916785Y414664D01*
X916840Y414715D01*
X916887Y414755D01*
X916934Y414784D01*
X916971Y414806D01*
X916985Y414813D01*
X916996Y414820D01*
X917000Y414824D01*
X917003D01*
X917083Y414857D01*
X917164Y414882D01*
X917247Y414897D01*
X917324Y414911D01*
X917389Y414919D01*
X917418D01*
X917444Y414922D01*
X917862D01*
Y414558D01*
X918023D01*
Y414922D01*
X918245D01*
Y412600D01*
D02*
G37*
G36*
X920538D02*
X920167D01*
Y414297D01*
X919206Y412600D01*
X918787D01*
Y414922D01*
X919158D01*
Y413206D01*
X920123Y414922D01*
X920538D01*
Y412600D01*
D02*
G37*
G36*
X946438Y412900D02*
X946067D01*
Y414598D01*
X945106Y412900D01*
X944687D01*
Y415222D01*
X945058D01*
Y413506D01*
X946023Y415222D01*
X946438D01*
Y412900D01*
D02*
G37*
%LPC*%
G36*
X926258Y350306D02*
X926218Y350235D01*
X926258Y350191D01*
Y350306D01*
D02*
G37*
G36*
X927267Y351505D02*
Y351397D01*
X927303Y351462D01*
X927267Y351505D01*
D02*
G37*
G36*
X936637Y359629D02*
X936316Y358704D01*
X936958D01*
X936637Y359629D01*
D02*
G37*
G36*
X939159Y359862D02*
X938646D01*
X938584Y359858D01*
X938533Y359851D01*
X938490Y359837D01*
X938453Y359826D01*
X938424Y359811D01*
X938402Y359796D01*
X938391Y359789D01*
X938388Y359786D01*
X938358Y359756D01*
X938337Y359720D01*
X938318Y359687D01*
X938307Y359651D01*
X938300Y359618D01*
X938297Y359593D01*
Y359578D01*
Y359571D01*
X938300Y359520D01*
X938311Y359476D01*
X938322Y359436D01*
X938337Y359407D01*
X938355Y359382D01*
X938366Y359363D01*
X938377Y359352D01*
X938380Y359349D01*
X938413Y359323D01*
X938453Y359305D01*
X938493Y359291D01*
X938533Y359283D01*
X938570Y359276D01*
X938599Y359272D01*
X939159D01*
Y358912D01*
X939349D01*
Y359272D01*
X939159D01*
Y359862D01*
D02*
G37*
G36*
X920167Y414405D02*
Y414297D01*
X920203Y414362D01*
X920167Y414405D01*
D02*
G37*
G36*
X919158Y413206D02*
X919118Y413135D01*
X919158Y413091D01*
Y413206D01*
D02*
G37*
G36*
X945058Y413506D02*
X945018Y413435D01*
X945058Y413391D01*
Y413506D01*
D02*
G37*
G36*
X946067Y414705D02*
Y414598D01*
X946103Y414662D01*
X946067Y414705D01*
D02*
G37*
%LPD*%
D60*
X954400Y476735D02*
D03*
Y481065D02*
D03*
X954300Y489765D02*
D03*
Y485435D02*
D03*
X947900Y490235D02*
D03*
Y494565D02*
D03*
X938600Y507565D02*
D03*
Y503235D02*
D03*
X925900Y507565D02*
D03*
Y503235D02*
D03*
X934267Y507615D02*
D03*
Y503285D02*
D03*
X930033Y507615D02*
D03*
Y503285D02*
D03*
X929000Y453465D02*
D03*
Y449135D02*
D03*
X932800Y469935D02*
D03*
Y474265D02*
D03*
X931800Y461965D02*
D03*
Y457635D02*
D03*
X939600Y470035D02*
D03*
Y474365D02*
D03*
D61*
X930440Y396900D02*
D03*
X922960D02*
D03*
D66*
X941700Y377140D02*
D03*
Y369660D02*
D03*
D69*
X951400Y466722D02*
D03*
D70*
X950514Y469478D02*
D03*
X952286D02*
D03*
D71*
X946535Y480700D02*
D03*
X950865D02*
D03*
X946435Y485800D02*
D03*
X950765D02*
D03*
X941035Y499500D02*
D03*
X945365D02*
D03*
X919570Y439852D02*
D03*
X923901D02*
D03*
X919570Y444052D02*
D03*
X923901D02*
D03*
D83*
X934363Y488282D02*
D03*
D84*
X930426Y480900D02*
D03*
X932395D02*
D03*
X934363D02*
D03*
X936331D02*
D03*
X938300D02*
D03*
Y495664D02*
D03*
X936331D02*
D03*
X934363D02*
D03*
X932395D02*
D03*
X930426D02*
D03*
D85*
X941745Y484345D02*
D03*
Y486313D02*
D03*
Y488282D02*
D03*
Y490250D02*
D03*
Y492219D02*
D03*
X926981D02*
D03*
Y490250D02*
D03*
Y488282D02*
D03*
Y486313D02*
D03*
Y484345D02*
D03*
D86*
X919446Y381900D02*
D03*
X922754D02*
D03*
X930746Y349200D02*
D03*
X934054D02*
D03*
D87*
X928442Y387400D02*
D03*
X933757D02*
D03*
D88*
X927260Y379021D02*
D03*
X934740D02*
D03*
D89*
X927260Y369572D02*
D03*
X931000D02*
D03*
X934740D02*
D03*
D90*
X937900Y533400D02*
D03*
X928451D02*
D03*
D91*
X948136D02*
D03*
X918215D02*
D03*
D92*
X944790Y523361D02*
D03*
X921561D02*
D03*
D93*
X938294Y522868D02*
D03*
X935735D02*
D03*
X933176D02*
D03*
X930616D02*
D03*
X928057D02*
D03*
D94*
X936024Y431447D02*
D03*
Y435679D02*
D03*
Y439911D02*
D03*
Y444144D02*
D03*
X929331D02*
D03*
Y439911D02*
D03*
Y435679D02*
D03*
Y431447D02*
D03*
D95*
X937300Y354300D02*
D03*
X927900Y354200D02*
D03*
X913600Y413800D02*
D03*
X951800Y413900D02*
D03*
D96*
X929932Y515229D02*
D03*
X931900D02*
D03*
X933869D02*
D03*
Y512571D02*
D03*
X932000D02*
D03*
X929932D02*
D03*
D97*
X933378Y466886D02*
D03*
Y465114D02*
D03*
D98*
X930622Y466000D02*
D03*
M02*
