G04 Layer_Color=32896*
%FSLAX25Y25*%
%MOIN*%
G70*
G01*
G75*
%ADD12C,0.00500*%
%ADD57C,0.00394*%
%ADD58C,0.00984*%
%ADD59C,0.00591*%
D12*
X919525Y380719D02*
X922675D01*
X919525Y383081D02*
X922675D01*
X919525Y380719D02*
Y381113D01*
X919525Y383081D02*
X919525D01*
Y382687D02*
Y383081D01*
X922675Y380719D02*
X922675D01*
X922675D02*
Y381113D01*
Y382687D02*
Y383081D01*
X921600Y380719D02*
Y383081D01*
X935400Y383100D02*
Y391700D01*
X926800Y383100D02*
X935400D01*
X926800D02*
Y391700D01*
X935400D01*
X930825Y348019D02*
X933975D01*
X930825Y350381D02*
X933975D01*
X930825Y348019D02*
Y348413D01*
X930825Y350381D02*
X930825D01*
Y349987D02*
Y350381D01*
X933975Y348019D02*
X933975D01*
X933975D02*
Y348413D01*
Y349987D02*
Y350381D01*
X932900Y348019D02*
Y350381D01*
X945200Y482400D02*
X952200D01*
X945200Y479000D02*
Y482400D01*
Y479000D02*
X952200D01*
Y482400D01*
X945100Y487500D02*
X952100D01*
X945100Y484100D02*
Y487500D01*
Y484100D02*
X952100D01*
Y487500D01*
X939700Y497800D02*
Y501200D01*
X946700D01*
Y497800D02*
Y501200D01*
X939700Y497800D02*
X946700D01*
X946200Y488900D02*
X949600D01*
X946200D02*
Y495900D01*
X949600D01*
Y488900D02*
Y495900D01*
X936900Y508900D02*
X940300D01*
Y501900D02*
Y508900D01*
X936900Y501900D02*
X940300D01*
X936900D02*
Y508900D01*
X924200D02*
X927600D01*
Y501900D02*
Y508900D01*
X924200Y501900D02*
X927600D01*
X924200D02*
Y508900D01*
X935967Y501950D02*
Y508950D01*
X932567D02*
X935967D01*
X932567Y501950D02*
Y508950D01*
Y501950D02*
X935967D01*
X931733D02*
Y508950D01*
X928333D02*
X931733D01*
X928333Y501950D02*
Y508950D01*
Y501950D02*
X931733D01*
X927165Y446063D02*
X938189D01*
X927165Y429528D02*
Y446063D01*
Y429528D02*
X938189D01*
Y446063D01*
X930700Y447800D02*
Y454800D01*
X927300D02*
X930700D01*
X927300Y447800D02*
Y454800D01*
Y447800D02*
X930700D01*
X918235Y441552D02*
X925235D01*
X918235Y438152D02*
Y441552D01*
Y438152D02*
X925235D01*
Y441552D01*
X918235Y442352D02*
Y445752D01*
X925235D01*
Y442352D02*
Y445752D01*
X918235Y442352D02*
X925235D01*
X928553Y511439D02*
Y516361D01*
Y511439D02*
X935246D01*
X928553Y516361D02*
X935246D01*
Y511439D02*
Y516361D01*
X931100Y468600D02*
X934500D01*
X931100D02*
Y475600D01*
X934500D01*
Y468600D02*
Y475600D01*
X930100Y463300D02*
X933500D01*
Y456300D02*
Y463300D01*
X930100Y456300D02*
X933500D01*
X930100D02*
Y463300D01*
X937900Y468700D02*
X941300D01*
X937900D02*
Y475700D01*
X941300D01*
Y468700D02*
Y475700D01*
D57*
X928347Y428346D02*
G03*
X928347Y428346I-394J0D01*
G01*
X928935Y517259D02*
G03*
X928935Y517259I-283J0D01*
G01*
X925898Y496746D02*
X928556D01*
X925898Y494089D02*
Y496746D01*
X940170D02*
X942828D01*
Y494089D02*
Y496746D01*
Y479817D02*
Y482475D01*
X940170Y479817D02*
X942828D01*
X925898D02*
X928556D01*
X925898D02*
Y482475D01*
D58*
X923831Y480408D02*
G03*
X923831Y480408I-492J0D01*
G01*
D59*
X932999Y394144D02*
Y397687D01*
X920401Y394144D02*
X932999D01*
X920401D02*
Y399656D01*
X932999D01*
Y397687D02*
Y399656D01*
X924307Y372525D02*
X937693D01*
Y376068D01*
X924307D02*
X937693D01*
X924307Y372525D02*
Y376068D01*
X940913Y379699D02*
X944456D01*
Y367101D02*
Y379699D01*
X938944Y367101D02*
X944456D01*
X938944D02*
Y379699D01*
X940913D01*
X953700Y479700D02*
X955100Y479687D01*
X952700Y475400D02*
Y482400D01*
Y475400D02*
X956100D01*
Y482400D01*
X952700D02*
X956100D01*
X953600Y486813D02*
X955000Y486800D01*
X956000Y484100D02*
Y491100D01*
X952600D02*
X956000D01*
X952600Y484100D02*
Y491100D01*
Y484100D02*
X956000D01*
X918476Y526700D02*
Y529000D01*
X918512Y537936D02*
Y543800D01*
X948039D01*
Y537936D02*
Y543800D01*
X948003Y526700D02*
Y529000D01*
M02*
