G04 Layer_Color=65535*
%FSLAX25Y25*%
%MOIN*%
G70*
G01*
G75*
%ADD12C,0.00500*%
%ADD57C,0.00394*%
%ADD58C,0.00984*%
%ADD59C,0.00591*%
D12*
X927600Y457700D02*
Y464700D01*
X924200Y457700D02*
X927600D01*
X924200D02*
Y464700D01*
X927600D01*
X922709Y444445D02*
X926109D01*
X922709Y437445D02*
Y444445D01*
Y437445D02*
X926109D01*
Y444445D01*
X926647D02*
X930046D01*
X926647Y437445D02*
Y444445D01*
Y437445D02*
X930046D01*
Y444445D01*
X945100Y482000D02*
Y485400D01*
Y482000D02*
X952100D01*
Y485400D01*
X945100D02*
X952100D01*
X937100Y488700D02*
X940500D01*
Y495700D01*
X937100D02*
X940500D01*
X937100Y488700D02*
Y495700D01*
X940500Y481200D02*
Y488200D01*
X937100Y481200D02*
X940500D01*
X937100D02*
Y488200D01*
X940500D01*
X924200Y467900D02*
X927600D01*
Y474900D01*
X924200D02*
X927600D01*
X924200Y467900D02*
Y474900D01*
X914123Y461673D02*
X916527Y464077D01*
X914123Y461673D02*
X919073Y456723D01*
X921477Y459127D01*
X916527Y464077D02*
X921477Y459127D01*
X907532Y464016D02*
X908197Y462589D01*
X906892Y472840D02*
X912217Y461422D01*
X901183Y470178D02*
X906508Y458760D01*
X916123Y464927D02*
X921073Y469877D01*
X923477Y467473D01*
X918527Y462523D02*
X923477Y467473D01*
X916123Y464927D02*
X918527Y462523D01*
X925200Y493200D02*
X928600D01*
X925200Y486200D02*
Y493200D01*
Y486200D02*
X928600D01*
Y493200D01*
X929235Y490000D02*
Y493400D01*
Y490000D02*
X936235D01*
Y493400D01*
X929235D02*
X936235D01*
X929235Y489500D02*
X936235D01*
Y486100D02*
Y489500D01*
X929235Y486100D02*
X936235D01*
X929235D02*
Y489500D01*
X936883Y444445D02*
X940283D01*
X936883Y437445D02*
Y444445D01*
Y437445D02*
X940283D01*
Y444445D01*
X954300Y476400D02*
X957700D01*
Y483400D01*
X954300D02*
X957700D01*
X954300Y476400D02*
Y483400D01*
X949600Y449400D02*
X953000D01*
X949600Y442400D02*
Y449400D01*
Y442400D02*
X953000D01*
Y449400D01*
X927000Y476400D02*
X930400D01*
Y483400D01*
X927000D02*
X930400D01*
X927000Y476400D02*
Y483400D01*
X945100Y478300D02*
Y481700D01*
Y478300D02*
X952100D01*
Y481700D01*
X945100D02*
X952100D01*
X933300Y476400D02*
X936700D01*
Y483400D01*
X933300D02*
X936700D01*
X933300Y476400D02*
Y483400D01*
X751400Y594400D02*
Y601400D01*
X748000Y594400D02*
X751400D01*
X748000D02*
Y601400D01*
X751400D01*
X1118600Y594400D02*
Y601400D01*
X1115200Y594400D02*
X1118600D01*
X1115200D02*
Y601400D01*
X1118600D01*
X1070700Y318800D02*
X1077700D01*
X1070700D02*
Y322200D01*
X1077700D01*
Y318800D02*
Y322200D01*
X787100Y321500D02*
X794100D01*
Y318100D02*
Y321500D01*
X787100Y318100D02*
X794100D01*
X787100D02*
Y321500D01*
X932084Y523990D02*
Y530991D01*
X928683Y523990D02*
X932084D01*
X928683D02*
Y530991D01*
X932084D01*
X926572Y523990D02*
Y530991D01*
X923172Y523990D02*
X926572D01*
X923172D02*
Y530991D01*
X926572D01*
X921060Y523990D02*
Y530991D01*
X917660Y523990D02*
X921060D01*
X917660D02*
Y530991D01*
X921060D01*
X937595Y523990D02*
Y530991D01*
X934195Y523990D02*
X937595D01*
X934195D02*
Y530991D01*
X937595D01*
X943107Y523990D02*
Y530991D01*
X939707Y523990D02*
X943107D01*
X939707D02*
Y530991D01*
X943107D01*
X948619Y523990D02*
Y530991D01*
X945219Y523990D02*
X948619D01*
X945219D02*
Y530991D01*
X948619D01*
X947200Y399400D02*
X950600D01*
X947200Y392400D02*
Y399400D01*
Y392400D02*
X950600D01*
Y399400D01*
X923700Y361300D02*
X927100D01*
Y368300D01*
X923700D02*
X927100D01*
X923700Y361300D02*
Y368300D01*
X938300Y361700D02*
X941700D01*
X938300Y354700D02*
Y361700D01*
Y354700D02*
X941700D01*
Y361700D01*
X929263Y365537D02*
X937137D01*
X929263Y357663D02*
X937137D01*
Y365537D01*
X929263Y357663D02*
Y365537D01*
X937300Y399300D02*
X940700D01*
X937300Y392300D02*
Y399300D01*
Y392300D02*
X940700D01*
Y399300D01*
X927200D02*
X930600D01*
X927200Y392300D02*
Y399300D01*
Y392300D02*
X930600D01*
Y399300D01*
X930900Y345900D02*
X934300D01*
Y352900D01*
X930900D02*
X934300D01*
X930900Y345900D02*
Y352900D01*
Y333500D02*
X934300D01*
X930900Y326500D02*
Y333500D01*
Y326500D02*
X934300D01*
Y333500D01*
X916900Y399400D02*
X920300D01*
X916900Y392400D02*
Y399400D01*
Y392400D02*
X920300D01*
Y399400D01*
X942200Y384400D02*
X945600D01*
Y391400D01*
X942200D02*
X945600D01*
X942200Y384400D02*
Y391400D01*
X920300Y380500D02*
X923700D01*
Y387500D01*
X920300D02*
X923700D01*
X920300Y380500D02*
Y387500D01*
X940820Y437445D02*
X944220D01*
Y444445D01*
X940820D02*
X944220D01*
X940820Y437445D02*
Y444445D01*
X944757Y437445D02*
X948157D01*
Y444445D01*
X944757D02*
X948157D01*
X944757Y437445D02*
Y444445D01*
X945100Y478300D02*
X952100D01*
Y474900D02*
Y478300D01*
X945100Y474900D02*
X952100D01*
X945100D02*
Y478300D01*
D57*
X928924Y342900D02*
G03*
X928924Y342900I-224J0D01*
G01*
X922523Y415979D02*
G03*
X922523Y415979I-197J0D01*
G01*
X932656D02*
G03*
X932656Y415979I-197J0D01*
G01*
X942789D02*
G03*
X942789Y415979I-197J0D01*
G01*
X952923Y415979D02*
G03*
X952923Y415979I-197J0D01*
G01*
X928483Y365000D02*
G03*
X928483Y365000I-283J0D01*
G01*
X848500Y306400D02*
Y313400D01*
X851900D01*
Y306400D02*
Y313400D01*
X848500Y306400D02*
X851900D01*
X1014400Y306300D02*
Y313300D01*
X1017800D01*
Y306300D02*
Y313300D01*
X1014400Y306300D02*
X1017800D01*
X929700Y342400D02*
X935842D01*
X929700Y336258D02*
X935842D01*
Y342400D01*
X929700Y336258D02*
Y342400D01*
D58*
X929679Y472913D02*
G03*
X929679Y472913I-492J0D01*
G01*
D59*
X927294Y374000D02*
G03*
X927294Y374000I-394J0D01*
G01*
X833501Y299387D02*
Y301356D01*
X846099D01*
Y295844D02*
Y301356D01*
X833501Y295844D02*
X846099D01*
X833501D02*
Y299387D01*
X848068Y295844D02*
Y301356D01*
X1033499Y295844D02*
Y297813D01*
X1020901Y295844D02*
X1033499D01*
X1020901D02*
Y301356D01*
X1033499D01*
Y297813D02*
Y301356D01*
X1018932Y295844D02*
Y301356D01*
X932677Y431890D02*
X936220D01*
Y444488D01*
X930709D02*
X936220D01*
X930709Y431890D02*
Y444488D01*
Y431890D02*
X932677D01*
X922326Y412810D02*
Y414502D01*
Y402298D02*
Y403991D01*
X913074Y412810D02*
Y414502D01*
Y402298D02*
Y403991D01*
X932459Y412810D02*
Y414502D01*
Y402298D02*
Y403991D01*
X923207Y412810D02*
Y414502D01*
Y402298D02*
Y403991D01*
X942593Y412810D02*
Y414502D01*
Y402298D02*
Y403991D01*
X933341Y412810D02*
Y414502D01*
Y402298D02*
Y403991D01*
X952726Y412810D02*
Y414502D01*
Y402298D02*
Y403991D01*
X943474Y412810D02*
Y414502D01*
Y402298D02*
Y403991D01*
X756987Y622899D02*
X758956D01*
Y610301D02*
Y622899D01*
X753444Y610301D02*
X758956D01*
X753444D02*
Y622899D01*
X756987D01*
X753444Y608332D02*
X758956D01*
X1112687Y622899D02*
X1114656D01*
Y610301D02*
Y622899D01*
X1109144Y610301D02*
X1114656D01*
X1109144D02*
Y622899D01*
X1112687D01*
X1109144Y608332D02*
X1114656D01*
X1094087Y337499D02*
X1096056D01*
Y324901D02*
Y337499D01*
X1090544Y324901D02*
X1096056D01*
X1090544D02*
Y337499D01*
X1094087D01*
X1090544Y322932D02*
X1096056D01*
X773187Y335399D02*
X775156D01*
Y322801D02*
Y335399D01*
X769644Y322801D02*
X775156D01*
X769644D02*
Y335399D01*
X773187D01*
X769644Y320832D02*
X775156D01*
X928291Y373207D02*
X929079D01*
X928291D02*
Y375963D01*
Y383837D02*
Y386593D01*
X929079D01*
X938921D02*
X939709D01*
Y383837D02*
Y386593D01*
X938921Y373207D02*
X939709D01*
Y375963D01*
M02*
