G04 Layer_Color=8421504*
%FSLAX25Y25*%
%MOIN*%
G70*
G01*
G75*
%ADD13R,0.02756X0.01968*%
%ADD14R,0.03543X0.03937*%
%ADD15C,0.00787*%
%ADD16O,0.03150X0.00787*%
%ADD17O,0.00787X0.03150*%
%ADD18R,0.14567X0.14567*%
%ADD19R,0.03937X0.03543*%
%ADD20R,0.00984X0.03543*%
%ADD21R,0.01772X0.01772*%
%ADD22R,0.02756X0.01575*%
%ADD23R,0.00984X0.01575*%
%ADD24R,0.01968X0.02756*%
G04:AMPARAMS|DCode=25|XSize=27.56mil|YSize=19.68mil|CornerRadius=0mil|HoleSize=0mil|Usage=FLASHONLY|Rotation=45.000|XOffset=0mil|YOffset=0mil|HoleType=Round|Shape=Rectangle|*
%AMROTATEDRECTD25*
4,1,4,-0.00278,-0.01670,-0.01670,-0.00278,0.00278,0.01670,0.01670,0.00278,-0.00278,-0.01670,0.0*
%
%ADD25ROTATEDRECTD25*%

G04:AMPARAMS|DCode=26|XSize=39.37mil|YSize=59.05mil|CornerRadius=0mil|HoleSize=0mil|Usage=FLASHONLY|Rotation=115.000|XOffset=0mil|YOffset=0mil|HoleType=Round|Shape=Rectangle|*
%AMROTATEDRECTD26*
4,1,4,0.03508,-0.00536,-0.01844,-0.03032,-0.03508,0.00536,0.01844,0.03032,0.03508,-0.00536,0.0*
%
%ADD26ROTATEDRECTD26*%

G04:AMPARAMS|DCode=27|XSize=27.56mil|YSize=19.68mil|CornerRadius=0mil|HoleSize=0mil|Usage=FLASHONLY|Rotation=135.000|XOffset=0mil|YOffset=0mil|HoleType=Round|Shape=Rectangle|*
%AMROTATEDRECTD27*
4,1,4,0.01670,-0.00278,0.00278,-0.01670,-0.01670,0.00278,-0.00278,0.01670,0.01670,-0.00278,0.0*
%
%ADD27ROTATEDRECTD27*%

%ADD28R,0.01968X0.01968*%
%ADD29R,0.01968X0.01968*%
%ADD30R,0.00984X0.01083*%
%ADD31R,0.01083X0.00984*%
%ADD32O,0.00984X0.03937*%
%ADD33O,0.03937X0.00984*%
D13*
X850200Y312065D02*
D03*
Y307735D02*
D03*
X1016100Y311965D02*
D03*
Y307635D02*
D03*
X925900Y459035D02*
D03*
Y463365D02*
D03*
X924409Y443110D02*
D03*
Y438779D02*
D03*
X928347Y443110D02*
D03*
Y438779D02*
D03*
X938800Y490035D02*
D03*
Y494365D02*
D03*
Y482535D02*
D03*
Y486865D02*
D03*
X925900Y469235D02*
D03*
Y473565D02*
D03*
X926900Y491865D02*
D03*
Y487535D02*
D03*
X938583Y443110D02*
D03*
Y438779D02*
D03*
X956000Y477735D02*
D03*
Y482065D02*
D03*
X951300Y448065D02*
D03*
Y443735D02*
D03*
X928700Y477735D02*
D03*
Y482065D02*
D03*
X935000Y477735D02*
D03*
Y482065D02*
D03*
X749700Y595735D02*
D03*
Y600065D02*
D03*
X1116900Y595735D02*
D03*
Y600065D02*
D03*
X930383Y525325D02*
D03*
Y529656D02*
D03*
X924872Y525325D02*
D03*
Y529656D02*
D03*
X919360Y525325D02*
D03*
Y529656D02*
D03*
X935895Y525325D02*
D03*
Y529656D02*
D03*
X941407Y525325D02*
D03*
Y529656D02*
D03*
X946919Y525325D02*
D03*
Y529656D02*
D03*
X948900Y398065D02*
D03*
Y393735D02*
D03*
X925400Y362635D02*
D03*
Y366965D02*
D03*
X940000Y360365D02*
D03*
Y356035D02*
D03*
X939000Y397965D02*
D03*
Y393635D02*
D03*
X928900Y397965D02*
D03*
Y393635D02*
D03*
X932600Y347235D02*
D03*
Y351565D02*
D03*
Y332165D02*
D03*
Y327835D02*
D03*
X918600Y398065D02*
D03*
Y393735D02*
D03*
X943900Y385735D02*
D03*
Y390065D02*
D03*
X922000Y381835D02*
D03*
Y386165D02*
D03*
X942520Y438779D02*
D03*
Y443110D02*
D03*
X946457Y438779D02*
D03*
Y443110D02*
D03*
D14*
X843540Y298600D02*
D03*
X836060D02*
D03*
X1023460D02*
D03*
X1030940D02*
D03*
D15*
X930472Y337172D02*
D03*
Y339400D02*
D03*
Y341628D02*
D03*
X931586Y338286D02*
D03*
Y340514D02*
D03*
X932700Y337172D02*
D03*
Y341628D02*
D03*
X933814Y338286D02*
D03*
Y340514D02*
D03*
X934928Y337172D02*
D03*
Y339400D02*
D03*
Y341628D02*
D03*
D16*
X931353Y470157D02*
D03*
Y468779D02*
D03*
Y467401D02*
D03*
Y466023D02*
D03*
Y464645D02*
D03*
Y463267D02*
D03*
Y461889D02*
D03*
Y460511D02*
D03*
Y459133D02*
D03*
Y457755D02*
D03*
Y456377D02*
D03*
Y454999D02*
D03*
Y453621D02*
D03*
Y452243D02*
D03*
X950447D02*
D03*
Y453621D02*
D03*
Y454999D02*
D03*
Y456377D02*
D03*
Y457755D02*
D03*
Y459133D02*
D03*
Y460511D02*
D03*
Y461889D02*
D03*
Y463267D02*
D03*
Y464645D02*
D03*
Y466023D02*
D03*
Y467401D02*
D03*
Y468779D02*
D03*
Y470157D02*
D03*
D17*
X934699Y451653D02*
D03*
X936077D02*
D03*
X937455D02*
D03*
X938833D02*
D03*
X940211D02*
D03*
X941589D02*
D03*
X942967D02*
D03*
X944345D02*
D03*
X945723D02*
D03*
X947101D02*
D03*
Y470747D02*
D03*
X945723D02*
D03*
X944345D02*
D03*
X942967D02*
D03*
X941589D02*
D03*
X940211D02*
D03*
X938833D02*
D03*
X937455D02*
D03*
X936077D02*
D03*
X934699D02*
D03*
D18*
X940900Y461200D02*
D03*
D19*
X933465Y434449D02*
D03*
Y441929D02*
D03*
X756200Y612860D02*
D03*
Y620340D02*
D03*
X1111900Y612860D02*
D03*
Y620340D02*
D03*
X1093300Y327460D02*
D03*
Y334940D02*
D03*
X772400Y325360D02*
D03*
Y332840D02*
D03*
D20*
X920653Y414286D02*
D03*
X918684D02*
D03*
X916716D02*
D03*
X914747D02*
D03*
X920653Y402514D02*
D03*
X918684D02*
D03*
X916716D02*
D03*
X914747D02*
D03*
X930786Y414286D02*
D03*
X928818D02*
D03*
X926849D02*
D03*
X924881D02*
D03*
X930786Y402514D02*
D03*
X928818D02*
D03*
X926849D02*
D03*
X924881D02*
D03*
X940919Y414286D02*
D03*
X938951D02*
D03*
X936982D02*
D03*
X935014D02*
D03*
X940919Y402514D02*
D03*
X938951D02*
D03*
X936982D02*
D03*
X935014D02*
D03*
X951053Y414286D02*
D03*
X949084D02*
D03*
X947116D02*
D03*
X945147D02*
D03*
X951053Y402514D02*
D03*
X949084D02*
D03*
X947116D02*
D03*
X945147D02*
D03*
D21*
X946526Y487061D02*
D03*
X942274D02*
D03*
X946526Y489739D02*
D03*
X942274D02*
D03*
D22*
X946969Y520778D02*
D03*
X941457D02*
D03*
X935946D02*
D03*
X919410D02*
D03*
X924922D02*
D03*
X930434D02*
D03*
X865800Y339222D02*
D03*
X1098600Y552478D02*
D03*
X1000700Y339222D02*
D03*
X767300Y552478D02*
D03*
D23*
X947855Y518022D02*
D03*
X946083D02*
D03*
X942343D02*
D03*
X940571D02*
D03*
X936831D02*
D03*
X935060D02*
D03*
X920296D02*
D03*
X918524D02*
D03*
X925807D02*
D03*
X924036D02*
D03*
X931319D02*
D03*
X929548D02*
D03*
X864914Y341978D02*
D03*
X866686D02*
D03*
X1099486Y549722D02*
D03*
X1097714D02*
D03*
X999814Y341978D02*
D03*
X1001586D02*
D03*
X768186Y549722D02*
D03*
X766414D02*
D03*
D24*
X946435Y483700D02*
D03*
X950765D02*
D03*
X930569Y491700D02*
D03*
X934900D02*
D03*
Y487800D02*
D03*
X930569D02*
D03*
X946435Y480000D02*
D03*
X950765D02*
D03*
X1072035Y320500D02*
D03*
X1076365D02*
D03*
X792765Y319800D02*
D03*
X788435D02*
D03*
X950765Y476600D02*
D03*
X946435D02*
D03*
D25*
X916269Y461931D02*
D03*
X919331Y458869D02*
D03*
D26*
X904038Y471509D02*
D03*
X909362Y460091D02*
D03*
D27*
X921331Y467731D02*
D03*
X918269Y464669D02*
D03*
D28*
X923725Y538375D02*
D03*
Y535225D02*
D03*
X926875D02*
D03*
Y538375D02*
D03*
D29*
X939225Y535225D02*
D03*
X942375D02*
D03*
Y538375D02*
D03*
X939225D02*
D03*
D30*
X931231Y358598D02*
D03*
X933200D02*
D03*
X935168D02*
D03*
Y364602D02*
D03*
X933200D02*
D03*
X931231D02*
D03*
D31*
X936202Y360616D02*
D03*
Y362584D02*
D03*
X930198D02*
D03*
Y360616D02*
D03*
D32*
X931047Y374191D02*
D03*
X933016D02*
D03*
X934984D02*
D03*
X936953D02*
D03*
Y385609D02*
D03*
X934984D02*
D03*
X933016D02*
D03*
X931047D02*
D03*
D33*
X938724Y377931D02*
D03*
Y379900D02*
D03*
Y381869D02*
D03*
X929276D02*
D03*
Y379900D02*
D03*
Y377931D02*
D03*
M02*
